<svg width="48" height="48" viewBox="0 0 48 48" fill="none" xmlns="http://www.w3.org/2000/svg">
<path d="M33.4795 27.5002C33.7035 27.7189 33.8128 27.9793 33.8128 28.2918C33.8128 28.6043 33.7035 28.87 33.4795 29.0887L24.3337 38.3908C24.1097 38.6147 23.8389 38.7241 23.5264 38.7241C23.2139 38.7241 22.943 38.6147 22.7191 38.3908L13.5941 29.0887C13.3753 28.8647 13.2712 28.5991 13.2764 28.2866C13.2816 27.9793 13.391 27.7137 13.6149 27.495C13.8389 27.2814 14.1045 27.1772 14.417 27.1772C14.7243 27.1825 14.9899 27.297 15.2035 27.521L22.4326 34.8804V10.6772C22.4326 10.3647 22.5368 10.1043 22.7555 9.88558C22.9743 9.66683 23.2399 9.55746 23.5472 9.55746C23.8597 9.55746 24.1201 9.66683 24.3389 9.88558C24.5576 10.1043 24.667 10.3647 24.667 10.6772V34.8804L31.891 27.521C32.1097 27.297 32.3701 27.1825 32.6826 27.1772C32.9951 27.172 33.2607 27.2814 33.4795 27.5002ZM47.0368 24.0106C47.0368 24.7762 47.0003 25.547 46.9222 26.3127C46.8493 27.0783 46.7347 27.8335 46.5837 28.5887C46.4378 29.3439 46.2503 30.0887 46.0264 30.8283C45.8024 31.5627 45.542 32.2866 45.2503 32.995C44.9535 33.7085 44.6253 34.4012 44.266 35.0783C43.9014 35.7606 43.5055 36.4168 43.0785 37.0575C42.6514 37.6981 42.193 38.3127 41.7035 38.9116C41.2191 39.5054 40.7035 40.0731 40.1566 40.6147C39.6149 41.1616 39.042 41.6772 38.4482 42.1668C37.8545 42.6512 37.2399 43.1095 36.5993 43.5366C35.9587 43.9637 35.2972 44.3595 34.6201 44.7241C33.943 45.0835 33.2503 45.4168 32.5368 45.7085C31.8285 46.0054 31.1045 46.2606 30.3649 46.4845C29.6305 46.7085 28.8857 46.896 28.1305 47.047C27.3753 47.1929 26.6149 47.3075 25.8493 47.3856C25.0837 47.4585 24.318 47.495 23.5472 47.495C22.7816 47.495 22.0107 47.4585 21.2451 47.3856C20.4795 47.3075 19.7191 47.1929 18.9639 47.047C18.2139 46.896 17.4639 46.7085 16.7295 46.4845C15.9951 46.2606 15.2712 46.0054 14.5576 45.7085C13.8493 45.4168 13.1566 45.0835 12.4743 44.7241C11.7972 44.3595 11.141 43.9637 10.5003 43.5366C9.8597 43.1095 9.23991 42.6512 8.64616 42.1668C8.05241 41.6772 7.4847 41.1616 6.93783 40.6147C6.39616 40.0731 5.88053 39.5054 5.39095 38.9116C4.90137 38.3127 4.44824 37.6981 4.02116 37.0575C3.58887 36.4168 3.19824 35.7606 2.83366 35.0783C2.46907 34.4012 2.14095 33.7085 1.84928 32.995C1.55241 32.2866 1.2972 31.5627 1.07324 30.8283C0.849284 30.0887 0.661785 29.3439 0.510742 28.5887C0.359701 27.8335 0.250326 27.0783 0.172201 26.3127C0.0992845 25.547 0.0576172 24.7762 0.0576172 24.0106C0.0576172 23.2397 0.0992845 22.4689 0.172201 21.7033C0.250326 20.9429 0.359701 20.1825 0.510742 19.4272C0.661785 18.672 0.849284 17.9272 1.07324 17.1877C1.2972 16.4533 1.55241 15.7293 1.84928 15.021C2.14095 14.3075 2.46907 13.6147 2.83366 12.9377C3.19824 12.2554 3.58887 11.5991 4.02116 10.9585C4.44824 10.3179 4.90137 9.70329 5.39095 9.10954C5.88053 8.51058 6.39616 7.94287 6.93783 7.4012C7.4847 6.85433 8.05241 6.3387 8.64616 5.84912C9.23991 5.36475 9.8597 4.90641 10.5003 4.47933C11.141 4.05225 11.7972 3.65641 12.4743 3.29183C13.1566 2.93245 13.8493 2.60433 14.5576 2.30745C15.2712 2.01579 15.9951 1.75537 16.7295 1.53141C17.4639 1.30745 18.2139 1.11996 18.9639 0.968913C19.7191 0.823081 20.4795 0.708496 21.2451 0.630371C22.0107 0.557455 22.7816 0.520996 23.5472 0.520996C24.318 0.520996 25.0837 0.557455 25.8493 0.635579C26.6149 0.708497 27.3753 0.82308 28.1305 0.974121C28.8857 1.12516 29.6305 1.31266 30.3649 1.53662C31.0993 1.76058 31.8232 2.021 32.5316 2.31266C33.2451 2.60954 33.9378 2.93766 34.6149 3.30225C35.2972 3.66162 35.9535 4.05746 36.5941 4.48454C37.2347 4.91162 37.8493 5.36996 38.443 5.85954C39.0368 6.34391 39.6097 6.85954 40.1514 7.40641C40.693 7.94808 41.2087 8.521 41.6982 9.11475C42.1878 9.7085 42.6462 10.3231 43.0732 10.9637C43.5003 11.6043 43.8962 12.2606 44.2555 12.9377C44.6201 13.62 44.9482 14.3127 45.2451 15.021C45.5368 15.7345 45.7972 16.4585 46.0212 17.1929C46.2451 17.9272 46.4326 18.672 46.5837 19.4272C46.7347 20.1825 46.8441 20.9429 46.9222 21.7085C47.0003 22.4741 47.0368 23.2397 47.0368 24.0106ZM44.8024 24.0106C44.8024 23.3127 44.766 22.62 44.6982 21.9272C44.6305 21.2345 44.5264 20.547 44.391 19.8647C44.2555 19.1772 44.0889 18.5054 43.8857 17.8387C43.6826 17.172 43.4482 16.521 43.1826 15.8752C42.917 15.2345 42.6201 14.6043 42.292 13.9897C41.9639 13.3752 41.6045 12.7814 41.2191 12.2033C40.8337 11.6252 40.417 11.0627 39.9743 10.5262C39.5368 9.98975 39.068 9.47412 38.5732 8.97933C38.0837 8.48975 37.568 8.021 37.0316 7.57829C36.4899 7.14079 35.9326 6.72412 35.3545 6.3387C34.7764 5.95329 34.1826 5.59391 33.568 5.26579C32.9535 4.93766 32.3232 4.64079 31.6826 4.37516C31.0368 4.10954 30.3857 3.87516 29.7191 3.67204C29.0524 3.46891 28.3753 3.30225 27.693 3.16683C27.0107 3.03141 26.3232 2.92725 25.6305 2.85954C24.9378 2.79183 24.2451 2.75537 23.5472 2.75537C22.8545 2.75537 22.1566 2.79183 21.4639 2.85954C20.7712 2.92725 20.0837 3.03141 19.4014 3.16683C18.7191 3.30225 18.0472 3.46891 17.3805 3.67204C16.7139 3.87516 16.0576 4.10954 15.417 4.37516C14.7712 4.64079 14.1462 4.93766 13.5316 5.26579C12.917 5.59391 12.318 5.95329 11.7399 6.3387C11.1618 6.72412 10.6045 7.14079 10.068 7.57829C9.52637 8.021 9.01595 8.48975 8.52116 8.97933C8.03158 9.47412 7.56283 9.98975 7.12012 10.5262C6.67741 11.0627 6.26595 11.6252 5.88053 12.2033C5.48991 12.7814 5.13574 13.3752 4.80762 13.9897C4.47949 14.6043 4.18262 15.2345 3.91699 15.8752C3.64616 16.521 3.41178 17.172 3.21387 17.8387C3.01074 18.5054 2.83887 19.1772 2.70345 19.8647C2.56803 20.547 2.46908 21.2345 2.40137 21.9272C2.33366 22.62 2.2972 23.3127 2.2972 24.0106C2.2972 24.7033 2.33366 25.396 2.40137 26.0887C2.46908 26.7814 2.56803 27.4689 2.70345 28.1564C2.83887 28.8387 3.01074 29.5106 3.21387 30.1772C3.41178 30.8439 3.64616 31.5002 3.91699 32.1408C4.18262 32.7814 4.47949 33.4116 4.80762 34.0262C5.13574 34.6408 5.48991 35.2345 5.88053 35.8127C6.26595 36.396 6.67741 36.9533 7.12012 37.4897C7.56283 38.0262 8.03158 38.5418 8.52116 39.0366C9.01595 39.5262 9.52637 39.995 10.068 40.4377C10.6045 40.8752 11.1618 41.2918 11.7399 41.6772C12.318 42.0627 12.917 42.422 13.5316 42.7502C14.1462 43.0783 14.7712 43.3752 15.417 43.6408C16.0576 43.9064 16.7139 44.1408 17.3805 44.3439C18.0472 44.547 18.7191 44.7137 19.4014 44.8491C20.0837 44.9845 20.7712 45.0887 21.4639 45.1564C22.1566 45.2241 22.8545 45.2606 23.5472 45.2606C24.2451 45.2606 24.9378 45.2241 25.6305 45.1564C26.3232 45.0887 27.0107 44.9845 27.693 44.8491C28.3753 44.7137 29.0472 44.5418 29.7139 44.3387C30.3805 44.1356 31.0368 43.9012 31.6774 43.6356C32.318 43.37 32.9482 43.0731 33.5628 42.745C34.1774 42.4168 34.7712 42.0575 35.3493 41.672C35.9274 41.2866 36.4847 40.87 37.0264 40.4272C37.5628 39.9897 38.0785 39.521 38.568 39.0262C39.0628 38.5366 39.5264 38.021 39.9691 37.4845C40.4118 36.9481 40.8232 36.3856 41.2139 35.8075C41.5993 35.2293 41.9535 34.6356 42.2868 34.021C42.6149 33.4064 42.9118 32.7814 43.1774 32.1356C43.443 31.495 43.6774 30.8387 43.8805 30.1772C44.0837 29.5106 44.2503 28.8335 44.3857 28.1512C44.5264 27.4689 44.6253 26.7814 44.6982 26.0887C44.766 25.396 44.7972 24.7033 44.8024 24.0106Z" fill="#000000"/>
</svg>
