<svg width="74" height="52" viewBox="0 0 74 52" fill="none" xmlns="http://www.w3.org/2000/svg">
<mask id="mask0_1_6345" style="mask-type:luminance" maskUnits="userSpaceOnUse" x="0" y="0" width="74" height="52">
<path d="M0.760498 0.130127H73.7292V51.1041H0.760498V0.130127Z" fill="white"/>
</mask>
<g mask="url(#mask0_1_6345)">
<path d="M4.75529 0.249973C4.27092 0.244765 3.80216 0.333307 3.34904 0.51039C2.90112 0.692682 2.50008 0.953099 2.15633 1.29685C1.80737 1.63539 1.54175 2.03122 1.35425 2.47393C1.16675 2.92185 1.073 3.3906 1.073 3.87497C1.073 4.35935 1.16675 4.8281 1.35425 5.27601C1.54175 5.72393 1.80737 6.11456 2.15633 6.45831C2.50008 6.79685 2.90112 7.05726 3.34904 7.23956C3.80216 7.41664 4.27092 7.50518 4.75529 7.49997H70.099C70.5834 7.50518 71.0522 7.41664 71.5001 7.23956C71.9532 7.05726 72.349 6.79685 72.698 6.45831C73.0417 6.11456 73.3074 5.72393 73.4949 5.27601C73.6824 4.8281 73.7761 4.35935 73.7761 3.87497C73.7761 3.3906 73.6824 2.92185 73.4949 2.47393C73.3074 2.03122 73.0417 1.63539 72.698 1.29685C72.349 0.953099 71.9532 0.692682 71.5001 0.51039C71.0522 0.333307 70.5834 0.244765 70.099 0.249973H4.75529ZM4.75529 21.9948C4.27092 21.9896 3.80216 22.0729 3.34904 22.2552C2.90112 22.4375 2.50008 22.6979 2.15633 23.0364C1.80737 23.3802 1.54175 23.7708 1.35425 24.2187C1.16675 24.6666 1.073 25.1354 1.073 25.6198C1.073 26.1041 1.16675 26.5677 1.35425 27.0156C1.54175 27.4635 1.80737 27.8593 2.15633 28.1979C2.50008 28.5416 2.90112 28.8021 3.34904 28.9791C3.80216 29.1614 4.27092 29.25 4.75529 29.2396H70.099C70.5834 29.25 71.0522 29.1614 71.5001 28.9791C71.9532 28.8021 72.349 28.5416 72.698 28.1979C73.0417 27.8593 73.3074 27.4635 73.4949 27.0156C73.6824 26.5677 73.7761 26.1041 73.7761 25.6198C73.7761 25.1354 73.6824 24.6666 73.4949 24.2187C73.3074 23.7708 73.0417 23.3802 72.698 23.0364C72.349 22.6979 71.9532 22.4375 71.5001 22.2552C71.0522 22.0729 70.5834 21.9896 70.099 21.9948H4.75529ZM4.75529 43.7396C4.27092 43.7291 3.80216 43.8177 3.34904 44C2.90112 44.1771 2.50008 44.4427 2.15633 44.7812C1.80737 45.1198 1.54175 45.5156 1.35425 45.9635C1.16675 46.4114 1.073 46.875 1.073 47.3594C1.073 47.8489 1.16675 48.3125 1.35425 48.7604C1.54175 49.2083 1.80737 49.6041 2.15633 49.9427C2.50008 50.2812 2.90112 50.5416 3.34904 50.7239C3.80216 50.9062 4.27092 50.9896 4.75529 50.9844H70.099C70.5834 50.9896 71.0522 50.9062 71.5001 50.7239C71.9532 50.5416 72.349 50.2812 72.698 49.9427C73.0417 49.6041 73.3074 49.2083 73.4949 48.7604C73.6876 48.3125 73.7813 47.8489 73.7813 47.3594C73.7813 46.875 73.6876 46.4114 73.4949 45.9635C73.3074 45.5156 73.0417 45.1198 72.698 44.7812C72.349 44.4427 71.9532 44.1771 71.5001 44C71.0522 43.8177 70.5834 43.7291 70.099 43.7396H4.75529Z" fill="black"/>
</g>
</svg>
