<svg width="58" height="58" viewBox="0 0 58 58" fill="none" xmlns="http://www.w3.org/2000/svg">
<path d="M8.60362 3.60393C8.2648 3.25774 7.87073 2.98889 7.42511 2.7937C6.97948 2.60587 6.51176 2.50644 6.02563 2.50644C5.53949 2.49907 5.07177 2.59114 4.62614 2.7716C4.17684 2.95575 3.77909 3.22091 3.43658 3.56342C3.09408 3.90592 2.82891 4.30367 2.64477 4.75298C2.46063 5.20228 2.37224 5.66632 2.37592 6.15614C2.37961 6.63859 2.47904 7.10631 2.66687 7.55194C2.86206 7.99756 3.13091 8.39163 3.4771 8.73045L49.6821 54.9355C50.0209 55.2816 50.415 55.5505 50.8569 55.742C51.3062 55.9335 51.7703 56.0293 52.2564 56.0366C52.7425 56.0366 53.2066 55.9482 53.6559 55.7641C54.1052 55.58 54.503 55.3148 54.8455 54.9723C55.188 54.6298 55.4531 54.232 55.6373 53.7827C55.8177 53.3371 55.9098 52.8694 55.9061 52.3869C55.9024 51.8971 55.8067 51.4331 55.6152 50.9838C55.4237 50.5418 55.1548 50.1478 54.8086 49.8089L8.60362 3.60393Z" fill="black"/>
<path d="M3.60393 49.3964C3.25774 49.7352 2.98889 50.1293 2.7937 50.5749C2.60587 51.0205 2.50644 51.4882 2.50644 51.9744C2.49907 52.4605 2.59114 52.9282 2.7716 53.3739C2.95575 53.8232 3.22091 54.2209 3.56342 54.5634C3.90592 54.9059 4.30367 55.1711 4.75298 55.3552C5.20228 55.5394 5.66632 55.6278 6.15614 55.6241C6.63859 55.6204 7.10631 55.521 7.55194 55.3331C7.99756 55.1379 8.39163 54.8691 8.73045 54.5229L54.9355 8.31789C55.2816 7.97907 55.5505 7.58501 55.742 7.14307C55.9335 6.69376 56.0293 6.22972 56.0366 5.74359C56.0366 5.25745 55.9482 4.79341 55.7641 4.3441C55.58 3.8948 55.3148 3.49705 54.9723 3.15454C54.6298 2.81204 54.232 2.54687 53.7827 2.36273C53.3371 2.18227 52.8694 2.0902 52.3869 2.09388C51.8971 2.09757 51.4331 2.19332 50.9838 2.38483C50.5418 2.57634 50.1478 2.84518 49.8089 3.19137L3.60393 49.3964Z" fill="black"/>
</svg>
