<svg width="925" height="1217" viewBox="0 0 925 1217" fill="none" xmlns="http://www.w3.org/2000/svg">
<path d="M219.427 341.172H413.859C427.276 341.172 438.161 330.281 438.161 316.865C438.161 303.448 427.276 292.557 413.859 292.557H219.427C206.01 292.557 195.125 303.448 195.125 316.865C195.125 330.281 206.01 341.172 219.427 341.172Z" fill="black"/>
<path d="M705.505 487.021H219.427C206.01 487.021 195.125 497.911 195.125 511.328C195.125 524.745 206.01 535.635 219.427 535.635H705.505C718.948 535.635 729.813 524.745 729.813 511.328C729.813 497.911 718.948 487.021 705.505 487.021Z" fill="black"/>
<path d="M705.505 681.484H219.427C206.01 681.484 195.125 692.349 195.125 705.792C195.125 719.234 206.01 730.099 219.427 730.099H705.505C718.948 730.099 729.813 719.234 729.813 705.792C729.813 692.349 718.948 681.484 705.505 681.484Z" fill="black"/>
<path d="M705.505 875.948H219.427C206.01 875.948 195.125 886.812 195.125 900.255C195.125 913.698 206.01 924.562 219.427 924.562H705.505C718.948 924.562 729.813 913.698 729.813 900.255C729.813 886.812 718.948 875.948 705.505 875.948Z" fill="black"/>
<mask id="mask0_9_1280" style="mask-type:luminance" maskUnits="userSpaceOnUse" x="0" y="0" width="925" height="1217">
<path d="M0.692871 0.854004H924.24V1216.26H0.692871V0.854004Z" fill="white"/>
</mask>
<g mask="url(#mask0_9_1280)">
<path d="M917.12 299.677L625.474 7.98413C620.927 3.41121 614.755 0.859131 608.292 0.859131H24.995C11.5783 0.859131 0.692871 11.7498 0.692871 25.1664V1191.95C0.692871 1205.39 11.5783 1216.26 24.995 1216.26H899.938C913.38 1216.26 924.24 1205.39 924.24 1191.95V316.864C924.24 310.422 921.688 304.224 917.12 299.677ZM632.594 83.8487L841.266 292.557H632.594V83.8487ZM49.3022 1167.64V49.4737H583.985V316.864C583.985 330.281 594.849 341.172 608.292 341.172H875.636V1167.64H49.3022Z" fill="black"/>
</g>
</svg>
