<svg width="124" height="138" viewBox="0 0 124 138" fill="none" xmlns="http://www.w3.org/2000/svg">
<mask id="mask0_1_6367" style="mask-type:luminance" maskUnits="userSpaceOnUse" x="0" y="0" width="124" height="138">
<path d="M0.46875 0.291748H124V137.167H0.46875V0.291748Z" fill="white"/>
</mask>
<g mask="url(#mask0_1_6367)">
<path d="M53.3177 0.244763C51.724 0.281222 50.4479 1.58851 50.4688 3.18747V20.5573C50.4583 21.5989 51 22.5729 51.9062 23.1041C52.8125 23.625 53.9219 23.625 54.8229 23.1041C55.7292 22.5729 56.2708 21.5989 56.2604 20.5573V3.18747C56.2708 2.40622 55.9688 1.64581 55.4115 1.09372C54.8594 0.541639 54.099 0.234346 53.3177 0.244763ZM27.2708 8.9531C26.0938 8.9531 25.0469 9.66664 24.5938 10.75C24.151 11.8489 24.4115 13.0937 25.2604 13.9166L36.8385 25.5C37.5625 26.2604 38.651 26.5625 39.6562 26.2916C40.6771 26.0312 41.4688 25.2396 41.7292 24.2239C42 23.2187 41.6927 22.1302 40.9375 21.4062L29.3542 9.82289C28.8125 9.26039 28.0625 8.9531 27.2708 8.9531ZM79.3698 8.9531C78.6094 8.96351 77.8958 9.28122 77.375 9.82289L65.7969 21.4062C65.0365 22.1302 64.7344 23.2187 65.0052 24.2239C65.2656 25.2396 66.0573 26.0312 67.0729 26.2916C68.0781 26.5625 69.1667 26.2604 69.8906 25.5L81.4688 13.9166C82.3333 13.0833 82.5781 11.8177 82.1146 10.7187C81.651 9.60935 80.5677 8.90622 79.3698 8.9531ZM108.875 11.8958C106.036 11.8958 103.188 12.9687 101.036 15.1198L48.2292 67.9271C47.3594 66.3333 46.9323 65.4843 45.3125 62.7135C42.6198 58.1302 39.625 53.1666 36.8958 50.4271C32.7135 46.2448 26.9219 43.3489 21.4948 41.8646C18.7917 41.1302 16.1667 40.7448 13.7656 40.8385C11.3698 40.9271 9.05208 41.4375 7.28646 43.1875L2.09375 48.3802C0.963542 49.5104 0.963542 51.3541 2.09375 52.4896L17.9844 68.3802L30.349 105.443C30.4948 105.87 30.7344 106.255 31.0521 106.573L53.7812 129.307C63.125 138.651 78.349 138.651 87.6927 129.307L92.7031 124.297H91.5052C92.2708 124.297 93.0052 123.99 93.5521 123.448L119.609 97.3906C123.906 93.0781 123.906 86.0208 119.609 81.7135C117.88 79.9843 115.682 79.1458 113.432 78.8073C114.812 74.8906 114.031 70.3437 110.922 67.2343C109.193 65.5052 107 64.6666 104.75 64.3281C106.125 60.4166 105.349 55.8698 102.234 52.7604C100.859 51.3802 99.1615 50.6093 97.3958 50.1093L116.714 30.7916C121.021 26.4843 121.021 19.4271 116.714 15.1198C114.562 12.9687 111.714 11.8958 108.875 11.8958ZM108.875 17.6406C110.224 17.6406 111.568 18.1614 112.62 19.2135C114.714 21.3073 114.714 24.6093 112.62 26.6979L86.5625 52.7604C85.4635 53.901 85.4844 55.6979 86.6042 56.8073C87.7135 57.9271 89.5104 57.9479 90.6562 56.8541C92.75 54.7604 96.0521 54.7604 98.1406 56.8541C100.234 58.9427 100.234 62.25 98.1406 64.3385L95.2448 67.2343C94.151 68.3802 94.1719 70.1771 95.2917 71.2864C96.401 72.4062 98.1979 72.4271 99.3438 71.3281C101.432 69.2396 104.734 69.2396 106.828 71.3281C108.922 73.4218 108.922 76.7239 106.828 78.8177L103.932 81.7135C102.839 82.8541 102.859 84.651 103.979 85.7604C105.089 86.8802 106.885 86.9062 108.026 85.8073C110.12 83.7135 113.422 83.7135 115.516 85.8073C117.609 87.901 117.609 91.2031 115.516 93.3073L89.4583 119.354L83.599 125.214C76.474 132.339 65.0052 132.339 57.8802 125.214L35.6302 102.953L23.2708 65.8906C23.1198 65.4687 22.8854 65.0885 22.5677 64.7604L8.23958 50.4271L11.3802 47.2864C11.5156 47.151 12.4115 46.6875 13.9948 46.6302C15.5781 46.5729 17.7031 46.8437 19.9792 47.4635C24.5104 48.6979 29.6042 51.3229 32.8125 54.5364C34.3281 56.0625 37.7031 61.1718 40.3125 65.6302C42.9271 70.0989 45.0208 74.0312 45.0208 74.0312C45.4479 74.8489 46.2396 75.401 47.1458 75.5364C48.0469 75.6718 48.9792 75.3698 49.6198 74.7239L105.13 19.2135C106.182 18.1614 107.531 17.6406 108.875 17.6406Z" fill="#787FF6"/>
</g>
</svg>
