<svg width="145" height="139" viewBox="0 0 145 139" fill="none" xmlns="http://www.w3.org/2000/svg">
<mask id="mask0_1_6372" style="mask-type:luminance" maskUnits="userSpaceOnUse" x="0" y="0" width="145" height="139">
<path d="M0.09375 0.291748H144.333V138.224H0.09375V0.291748Z" fill="white"/>
</mask>
<g mask="url(#mask0_1_6372)">
<path d="M13.7084 49.2188H61.6824C62.9167 49.2188 63.9011 50.2345 63.9011 51.4428C63.9011 52.6824 62.8907 53.6667 61.6824 53.6667H13.7084C10.7553 53.6095 10.7813 49.2449 13.7084 49.2188ZM13.7084 71.5313H51.6615C54.5886 71.474 54.6199 67.1147 51.6615 67.0574H13.7084C10.7813 67.1147 10.7553 71.474 13.7084 71.5313ZM13.7084 89.3699H35.0365C37.9636 89.3126 37.9636 84.9532 35.0365 84.8959H13.7084C10.7813 84.9532 10.7553 89.3126 13.7084 89.3699ZM51.6355 102.76H13.7084C10.7813 102.818 10.7553 107.177 13.7084 107.234H51.6355C54.5626 107.177 54.5886 102.792 51.6355 102.76ZM131.094 138.609C127.63 138.609 124.313 137.172 121.948 134.641L105.068 116.604C101.828 113.198 94.9376 105.802 91.672 102.313V117.281C91.672 120.068 89.3959 122.344 86.6095 122.344H83.6824V124.849C88.8595 125.859 92.797 130.422 92.797 135.906C92.797 137.146 91.7865 138.13 90.5782 138.13H17.5886C16.3542 138.13 15.3699 137.115 15.3699 135.906C15.2553 130.646 19.3334 125.75 24.4845 124.849V122.344H5.18237C2.39591 122.344 0.119873 120.068 0.119873 117.281V21.1407C0.119873 20.547 0.369873 19.9845 0.765706 19.5626L19.3907 0.937581C19.8126 0.541748 20.3751 0.291748 20.9688 0.291748H86.5522C89.3386 0.291748 91.6147 2.56779 91.6147 5.35425V55.6042L102 64.1876C109.26 70.349 101.885 81.8022 93.3334 77.7761L91.448 80.0574L94.3178 82.422C96.2865 84.0522 96.823 86.7501 95.8647 88.974C108.021 96.797 126.984 108.417 139.109 116.464C148.083 123.807 142.714 138.693 131.094 138.609ZM87.9897 58.3647C87.3386 57.9688 76.6772 48.6303 76.0834 48.8803C72.1772 47.6459 69.474 52.8751 72.849 55.3542L94.3178 73.1042C95.8647 74.5417 98.3438 74.4272 99.6615 72.797C100.958 71.2501 100.734 68.9167 99.1876 67.6459C99.1563 67.5938 87.9897 58.3647 87.9897 58.3647ZM89.7292 75.1042L71.724 60.1928C69.3907 63.0053 57.8542 76.9897 55.2657 80.1147L73.2709 94.9949C75.3282 92.4949 87.3699 77.948 89.7292 75.1042ZM72.2605 99.974L50.5365 82.0261C46.7397 78.9584 42.1511 84.4167 45.8126 87.6251L67.672 105.719C69.7553 107.547 73.3542 106.141 73.6355 103.38C73.8334 102.089 73.2449 100.766 72.2605 99.974ZM7.74487 18.8907H18.1511C18.4897 18.8907 18.7449 18.6095 18.7449 18.297V7.8855L7.74487 18.8907ZM81.4584 129.125H26.7345C23.8647 129.042 21.1095 130.984 20.2084 133.682H87.9584C87.0313 131.01 84.4428 129.099 81.4584 129.125ZM79.0938 120.771C78.5626 118.688 76.7605 117.281 74.6772 117.281H33.5157C31.0105 117.25 28.9584 119.391 28.9584 121.839V124.651H79.2345C79.1824 123.891 79.349 121.474 79.0938 120.771ZM87.172 98.9376C85.5678 99.6667 83.6824 99.5834 82.1355 98.7397C81.4584 98.4011 79.0417 96.2917 78.422 95.7865L76.5626 98.0365C81.9949 105.885 72.3699 115 64.8334 109.12L42.9688 91.0574C35.7084 84.922 43.0834 73.5001 51.6615 77.4688C53.4636 75.3022 67.0261 58.8959 68.4324 57.1824C64.2397 51.6095 69.0522 43.2553 76.0001 44.297C77.5209 44.4897 78.9532 45.0834 80.1667 46.0938L87.172 51.8907V5.32821C87.172 4.98967 86.8907 4.73446 86.5522 4.73446H23.2188V18.297C23.2188 21.0834 20.9376 23.3595 18.1511 23.3595H4.59383V117.281C4.59383 117.62 4.87508 117.901 5.18237 117.901H25.4115C26.9063 114.859 30.1095 112.807 33.5157 112.833H74.6772C78.0574 112.833 81.3178 114.859 82.7813 117.901H86.5782C86.9167 117.901 87.198 117.62 87.198 117.281V98.9376H87.172ZM91.6459 87.4272C92.0365 86.948 91.9845 86.2188 91.5053 85.823L88.6355 83.4584L81.2605 92.349L84.1303 94.7136C84.6095 95.1095 85.3438 95.0522 85.7345 94.573C86.6355 93.4792 90.7188 88.5261 91.6459 87.4272ZM101.156 105.912L105.682 100.427L93.2188 92.5209C92.6876 93.1667 91.6147 94.4636 91.0834 95.1095L101.156 105.912ZM106.557 111.682L112.354 104.677L109.484 102.844L104.224 109.203L106.557 111.682ZM135.427 119.25L116.177 107.068L109.651 114.974L125.24 131.599C128.391 135.146 134.412 134.948 137.365 131.234C140.432 127.521 139.505 121.813 135.427 119.25ZM48.2865 26.5678C49.2136 4.03133 81.3178 4.03133 82.2449 26.5678C82.2449 35.9376 74.6251 43.5626 65.2553 43.5626C55.8855 43.5626 48.2865 35.9376 48.2865 26.5678ZM52.7605 26.5678C53.3803 43.1407 77.1824 43.172 77.8022 26.5678C77.8022 19.6772 72.1772 14.047 65.2813 14.047C58.3855 14.047 52.7605 19.6772 52.7605 26.5678ZM61.4272 32.2813C62.297 33.1511 63.7032 33.1511 64.5782 32.2813L72.823 24.0365C74.849 21.9272 71.7813 18.8334 69.672 20.8855L63.0001 27.5522L60.8907 25.4428C58.7813 23.4167 55.6876 26.4845 57.7397 28.5938L61.4272 32.2813Z" fill="#787FF6"/>
</g>
</svg>
