<svg xmlns="http://www.w3.org/2000/svg" xmlns:xlink="http://www.w3.org/1999/xlink" width="500" zoomAndPan="magnify" viewBox="0 0 375 374.999991" height="500" preserveAspectRatio="xMidYMid meet" version="1.0"><defs><g/></defs><g fill="#000000" fill-opacity="1"><g transform="translate(93.399685, 193.66543)"><g/></g><g transform="translate(106.516849, 191.534891)"><g/></g><g transform="translate(119.634012, 189.404352)"><g/></g><g transform="translate(132.751176, 187.273814)"><g/></g><g transform="translate(145.868339, 185.143275)"><g/></g></g><g fill="#000000" fill-opacity="1"><g transform="translate(158.985502, 183.012737)"><g><path d="M 2.09375 -4.578125 L 2.046875 -4.5625 C 0.359375 -4.3125 -0.804688 -4.503906 -1.453125 -5.140625 C -2.109375 -5.773438 -2.242188 -6.738281 -1.859375 -8.03125 C -1.523438 -9.019531 -1.039062 -9.914062 -0.40625 -10.71875 C -0.1875 -10.988281 0.0390625 -11.21875 0.28125 -11.40625 C 0.53125 -11.59375 0.820312 -11.710938 1.15625 -11.765625 C 1.34375 -11.828125 1.570312 -11.832031 1.84375 -11.78125 C 1.925781 -11.757812 2.015625 -11.742188 2.109375 -11.734375 C 2.285156 -11.796875 2.460938 -11.882812 2.640625 -12 C 2.679688 -12.039062 2.742188 -12.082031 2.828125 -12.125 C 3.179688 -12.34375 3.570312 -12.46875 4 -12.5 C 4.175781 -12.53125 4.359375 -12.5625 4.546875 -12.59375 C 5.253906 -12.59375 5.816406 -12.390625 6.234375 -11.984375 C 6.648438 -11.578125 6.863281 -11.03125 6.875 -10.34375 C 6.875 -9.925781 6.800781 -9.523438 6.65625 -9.140625 C 5.726562 -6.535156 4.242188 -5.019531 2.203125 -4.59375 Z M 3.828125 -11.203125 C 2.910156 -11.097656 2.140625 -10.707031 1.515625 -10.03125 C 0.890625 -9.363281 0.460938 -8.632812 0.234375 -7.84375 C 0.00390625 -7.0625 0.00390625 -6.445312 0.234375 -6 C 0.472656 -5.5625 0.984375 -5.503906 1.765625 -5.828125 C 2.628906 -6.265625 3.347656 -6.921875 3.921875 -7.796875 C 4.503906 -8.671875 4.8125 -9.460938 4.84375 -10.171875 C 4.882812 -10.878906 4.546875 -11.222656 3.828125 -11.203125 Z M 3.828125 -11.203125 "/></g></g><g transform="translate(168.198747, 181.516287)"><g><path d="M 7.0625 -9.640625 C 7.375 -10.085938 7.65625 -10.351562 7.90625 -10.4375 C 8.15625 -10.519531 8.328125 -10.503906 8.421875 -10.390625 C 8.523438 -10.285156 8.503906 -10.109375 8.359375 -9.859375 C 7.535156 -8.460938 6.566406 -7.21875 5.453125 -6.125 C 4.335938 -5.03125 3.125 -4.300781 1.8125 -3.9375 C 0.5 -3.582031 -0.425781 -4.179688 -0.96875 -5.734375 C -1.4375 -7.285156 -1 -10.671875 0.34375 -15.890625 C 1.6875 -21.109375 2.71875 -25.367188 3.4375 -28.671875 C 3.5 -28.972656 3.617188 -29.242188 3.796875 -29.484375 C 4.023438 -29.804688 4.34375 -29.921875 4.75 -29.828125 C 4.894531 -29.785156 5.039062 -29.710938 5.1875 -29.609375 C 5.332031 -29.515625 5.410156 -29.296875 5.421875 -28.953125 C 2.054688 -15.085938 0.550781 -7.601562 0.90625 -6.5 C 1.257812 -5.394531 2.035156 -5.234375 3.234375 -6.015625 C 4.429688 -6.804688 5.332031 -7.554688 5.9375 -8.265625 C 6.539062 -8.972656 6.914062 -9.429688 7.0625 -9.640625 Z M 7.0625 -9.640625 "/></g></g><g transform="translate(176.856769, 180.110019)"><g><path d="M 7.0625 -9.640625 C 7.375 -10.085938 7.65625 -10.351562 7.90625 -10.4375 C 8.15625 -10.519531 8.328125 -10.503906 8.421875 -10.390625 C 8.523438 -10.285156 8.503906 -10.109375 8.359375 -9.859375 C 7.535156 -8.460938 6.566406 -7.21875 5.453125 -6.125 C 4.335938 -5.03125 3.125 -4.300781 1.8125 -3.9375 C 0.5 -3.582031 -0.425781 -4.179688 -0.96875 -5.734375 C -1.4375 -7.285156 -1 -10.671875 0.34375 -15.890625 C 1.6875 -21.109375 2.71875 -25.367188 3.4375 -28.671875 C 3.5 -28.972656 3.617188 -29.242188 3.796875 -29.484375 C 4.023438 -29.804688 4.34375 -29.921875 4.75 -29.828125 C 4.894531 -29.785156 5.039062 -29.710938 5.1875 -29.609375 C 5.332031 -29.515625 5.410156 -29.296875 5.421875 -28.953125 C 2.054688 -15.085938 0.550781 -7.601562 0.90625 -6.5 C 1.257812 -5.394531 2.035156 -5.234375 3.234375 -6.015625 C 4.429688 -6.804688 5.332031 -7.554688 5.9375 -8.265625 C 6.539062 -8.972656 6.914062 -9.429688 7.0625 -9.640625 Z M 7.0625 -9.640625 "/></g></g><g transform="translate(185.51479, 178.703751)"><g><path d="M 11.15625 -10.875 C 11.457031 -10.769531 11.535156 -10.398438 11.390625 -9.765625 C 11.140625 -9.265625 10.851562 -8.789062 10.53125 -8.34375 C 10.207031 -7.90625 9.835938 -7.492188 9.421875 -7.109375 C 9.390625 -7.109375 9.378906 -7.097656 9.390625 -7.078125 C 9.128906 -6.828125 8.835938 -6.597656 8.515625 -6.390625 C 5.921875 -4.941406 4.421875 -5.296875 4.015625 -7.453125 C 3.046875 -6.296875 2.390625 -5.578125 2.046875 -5.296875 C 1.222656 -4.609375 0.269531 -4.210938 -0.8125 -4.109375 C -1.601562 -4.003906 -2.175781 -4.144531 -2.53125 -4.53125 C -2.882812 -4.925781 -2.957031 -5.523438 -2.75 -6.328125 C -2.425781 -7.578125 -1.863281 -8.734375 -1.0625 -9.796875 C -0.132812 -10.992188 0.953125 -12.007812 2.203125 -12.84375 C 2.859375 -13.320312 3.582031 -13.582031 4.375 -13.625 C 5.175781 -13.707031 5.722656 -13.34375 6.015625 -12.53125 C 6.117188 -12.28125 6.09375 -12.039062 5.9375 -11.8125 C 5.71875 -11.539062 5.429688 -11.4375 5.078125 -11.5 C 5.054688 -11.5 5.019531 -11.5 4.96875 -11.5 C 4.925781 -11.507812 4.890625 -11.523438 4.859375 -11.546875 C 4.460938 -11.960938 4.097656 -12.101562 3.765625 -11.96875 C 3.429688 -11.832031 3.09375 -11.613281 2.75 -11.3125 C 1.132812 -9.988281 0.0507812 -8.328125 -0.5 -6.328125 C -0.539062 -6.234375 -0.554688 -6.132812 -0.546875 -6.03125 C -0.546875 -5.9375 -0.503906 -5.863281 -0.421875 -5.8125 C -0.210938 -5.78125 0.0078125 -5.832031 0.25 -5.96875 C 0.488281 -6.113281 0.71875 -6.300781 0.9375 -6.53125 C 1.164062 -6.769531 1.359375 -6.960938 1.515625 -7.109375 C 1.535156 -7.148438 1.546875 -7.171875 1.546875 -7.171875 C 2.273438 -8.015625 2.984375 -8.875 3.671875 -9.75 C 3.960938 -10.1875 4.378906 -10.472656 4.921875 -10.609375 C 5.679688 -10.734375 6.046875 -10.445312 6.015625 -9.75 C 5.992188 -9.476562 5.960938 -9.207031 5.921875 -8.9375 C 5.796875 -7.789062 5.890625 -7.144531 6.203125 -7 C 6.515625 -6.851562 6.9375 -6.921875 7.46875 -7.203125 C 8.007812 -7.492188 8.523438 -7.953125 9.015625 -8.578125 C 9.503906 -9.210938 9.910156 -9.78125 10.234375 -10.28125 C 10.554688 -10.789062 10.863281 -10.988281 11.15625 -10.875 Z M 11.15625 -10.875 "/></g></g><g transform="translate(197.018334, 176.835302)"><g><path d="M 6.59375 -12 C 6.625 -11.1875 6.332031 -10.609375 5.71875 -10.265625 C 5.113281 -9.921875 4.851562 -10.203125 4.9375 -11.109375 C 5.019531 -12.023438 4.585938 -12.1875 3.640625 -11.59375 C 2.691406 -11 1.945312 -10.3125 1.40625 -9.53125 C 0.550781 -8.332031 -0.171875 -7.066406 -0.765625 -5.734375 C -0.835938 -5.609375 -0.890625 -5.507812 -0.921875 -5.4375 C -1.097656 -5.070312 -1.273438 -4.710938 -1.453125 -4.359375 C -1.566406 -4.128906 -1.722656 -3.972656 -1.921875 -3.890625 C -2.117188 -3.816406 -2.320312 -3.773438 -2.53125 -3.765625 C -2.738281 -3.765625 -2.90625 -3.816406 -3.03125 -3.921875 C -3.15625 -4.023438 -3.1875 -4.171875 -3.125 -4.359375 C -3.050781 -4.703125 -2.953125 -5.046875 -2.828125 -5.390625 C -2.109375 -7.492188 -1.367188 -9.601562 -0.609375 -11.71875 C -0.585938 -11.738281 -0.582031 -11.765625 -0.59375 -11.796875 C -0.476562 -12.128906 -0.34375 -12.441406 -0.1875 -12.734375 C 0.0078125 -13.015625 0.257812 -13.15625 0.5625 -13.15625 C 0.863281 -13.15625 1.09375 -13.015625 1.25 -12.734375 C 1.445312 -12.347656 1.597656 -12.132812 1.703125 -12.09375 C 1.804688 -12.050781 2.003906 -12.125 2.296875 -12.3125 C 2.960938 -12.6875 3.613281 -12.976562 4.25 -13.1875 C 4.894531 -13.394531 5.441406 -13.453125 5.890625 -13.359375 C 6.335938 -13.265625 6.570312 -12.8125 6.59375 -12 Z M 6.59375 -12 "/></g></g><g transform="translate(205.693707, 175.426216)"><g/></g><g transform="translate(218.810871, 173.295677)"><g><path d="M 81.5 -64.640625 C 81.832031 -64.421875 82.144531 -64.171875 82.4375 -63.890625 C 82.738281 -63.617188 82.960938 -63.269531 83.109375 -62.84375 C 83.273438 -62.363281 83.160156 -61.96875 82.765625 -61.65625 C 82.535156 -61.488281 82.289062 -61.429688 82.03125 -61.484375 C 81.769531 -61.535156 81.566406 -61.6875 81.421875 -61.9375 C 81.023438 -62.65625 80.507812 -63.191406 79.875 -63.546875 C 79.238281 -63.910156 78.5625 -64.207031 77.84375 -64.4375 C 76.269531 -64.96875 74.671875 -65.34375 73.046875 -65.5625 C 71.421875 -65.789062 69.789062 -65.957031 68.15625 -66.0625 C 65.425781 -66.1875 61.863281 -65.976562 57.46875 -65.4375 C 53.082031 -64.90625 48.234375 -64.054688 42.921875 -62.890625 C 37.609375 -61.722656 32.21875 -60.257812 26.75 -58.5 C 21.28125 -56.738281 16.097656 -54.695312 11.203125 -52.375 C 6.316406 -50.0625 2.113281 -47.476562 -1.40625 -44.625 C -4.925781 -41.78125 -7.394531 -38.695312 -8.8125 -35.375 C -9.976562 -32.5 -9.847656 -29.691406 -8.421875 -26.953125 C -7.410156 -25.066406 -6.117188 -23.414062 -4.546875 -22 C -2.222656 -19.863281 0.273438 -17.972656 2.953125 -16.328125 C 5.234375 -14.847656 7.523438 -13.367188 9.828125 -11.890625 C 12.066406 -10.484375 14.3125 -9.039062 16.5625 -7.5625 C 19.082031 -5.914062 21.5625 -4.226562 24 -2.5 C 24.238281 -2.332031 24.476562 -2.179688 24.71875 -2.046875 C 26.03125 -1.160156 27.226562 -0.144531 28.3125 1 C 29.4375 2.34375 29.785156 3.460938 29.359375 4.359375 C 28.941406 5.265625 27.988281 5.988281 26.5 6.53125 C 25.007812 7.070312 23.238281 7.453125 21.1875 7.671875 C 19.132812 7.898438 17.039062 7.976562 14.90625 7.90625 C 12.769531 7.84375 10.859375 7.660156 9.171875 7.359375 C 7.484375 7.066406 6.265625 6.679688 5.515625 6.203125 C 3.992188 5.203125 3.703125 3.921875 4.640625 2.359375 C 5.640625 0.765625 6.976562 -0.492188 8.65625 -1.421875 C 11.0625 -2.835938 13.65625 -3.34375 16.4375 -2.9375 C 16.976562 -2.832031 17.503906 -2.664062 18.015625 -2.4375 C 18.066406 -2.414062 18.113281 -2.394531 18.15625 -2.375 C 18.300781 -2.332031 18.40625 -2.242188 18.46875 -2.109375 C 18.539062 -1.972656 18.546875 -1.816406 18.484375 -1.640625 C 18.304688 -1.347656 18.054688 -1.234375 17.734375 -1.296875 C 17.429688 -1.347656 17.140625 -1.429688 16.859375 -1.546875 C 14.878906 -2.171875 12.96875 -2.054688 11.125 -1.203125 C 9.28125 -0.359375 7.820312 0.957031 6.75 2.75 C 6.300781 3.601562 6.378906 4.273438 6.984375 4.765625 C 7.597656 5.253906 8.472656 5.609375 9.609375 5.828125 C 10.742188 6.054688 11.867188 6.195312 12.984375 6.25 C 14.109375 6.300781 14.941406 6.320312 15.484375 6.3125 C 15.585938 6.300781 15.664062 6.300781 15.71875 6.3125 C 15.820312 6.300781 15.953125 6.296875 16.109375 6.296875 C 16.804688 6.335938 17.765625 6.34375 18.984375 6.3125 C 20.203125 6.289062 21.445312 6.207031 22.71875 6.0625 C 23.988281 5.914062 25.050781 5.65625 25.90625 5.28125 C 26.769531 4.90625 27.207031 4.378906 27.21875 3.703125 C 27.226562 3.023438 26.570312 2.128906 25.25 1.015625 C 23.820312 -0.160156 22.34375 -1.296875 20.8125 -2.390625 C 16.976562 -5.054688 13.070312 -7.609375 9.09375 -10.046875 C 7.675781 -10.960938 6.242188 -11.878906 4.796875 -12.796875 C 2.421875 -14.335938 0.0664062 -15.925781 -2.265625 -17.5625 C -4.421875 -19.0625 -6.382812 -20.78125 -8.15625 -22.71875 C -9.425781 -24.125 -10.414062 -25.703125 -11.125 -27.453125 C -12.21875 -30.328125 -12.113281 -33.164062 -10.8125 -35.96875 C -9.394531 -39.09375 -7.082031 -42.03125 -3.875 -44.78125 C -0.664062 -47.53125 3.160156 -50.054688 7.609375 -52.359375 C 12.054688 -54.660156 16.859375 -56.71875 22.015625 -58.53125 C 27.171875 -60.351562 32.425781 -61.90625 37.78125 -63.1875 C 43.132812 -64.46875 48.304688 -65.445312 53.296875 -66.125 C 58.285156 -66.800781 62.84375 -67.15625 66.96875 -67.1875 C 71.101562 -67.226562 74.554688 -66.90625 77.328125 -66.21875 C 78.773438 -65.90625 80.164062 -65.378906 81.5 -64.640625 Z M 81.5 -64.640625 "/></g></g><g transform="translate(244.385869, 169.141691)"><g><path d="M 5.6875 -8.4375 C 5.195312 -7.601562 4.578125 -6.8125 3.828125 -6.0625 C 3.085938 -5.3125 2.203125 -4.742188 1.171875 -4.359375 C 0.148438 -3.972656 -0.679688 -3.914062 -1.328125 -4.1875 C -1.984375 -4.457031 -2.234375 -5.257812 -2.078125 -6.59375 C -1.835938 -7.988281 -1.40625 -9.347656 -0.78125 -10.671875 C -0.632812 -10.960938 -0.398438 -11.1875 -0.078125 -11.34375 C 0.160156 -11.4375 0.390625 -11.425781 0.609375 -11.3125 C 0.828125 -11.195312 0.929688 -11.023438 0.921875 -10.796875 C 0.816406 -10.347656 0.691406 -9.898438 0.546875 -9.453125 C 0.410156 -9.003906 0.320312 -8.710938 0.28125 -8.578125 C -0.0195312 -7.765625 -0.179688 -6.941406 -0.203125 -6.109375 C -0.128906 -5.648438 0.488281 -5.722656 1.65625 -6.328125 C 2.820312 -6.929688 3.90625 -7.867188 4.90625 -9.140625 C 5.90625 -10.410156 6.410156 -10.816406 6.421875 -10.359375 C 6.429688 -9.910156 6.1875 -9.269531 5.6875 -8.4375 Z M 1.75 -13.75 C 1.6875 -13.6875 1.566406 -13.609375 1.390625 -13.515625 C 1.222656 -13.429688 1.039062 -13.351562 0.84375 -13.28125 C 0.65625 -13.21875 0.492188 -13.222656 0.359375 -13.296875 C 0.234375 -13.378906 0.203125 -13.566406 0.265625 -13.859375 C 0.378906 -14.367188 0.503906 -14.820312 0.640625 -15.21875 C 0.773438 -15.625 0.972656 -16.078125 1.234375 -16.578125 C 1.410156 -16.796875 1.617188 -16.929688 1.859375 -16.984375 C 2.097656 -17.035156 2.3125 -17.003906 2.5 -16.890625 C 2.6875 -16.785156 2.765625 -16.601562 2.734375 -16.34375 C 2.617188 -15.375 2.289062 -14.507812 1.75 -13.75 Z M 1.75 -13.75 "/></g></g><g transform="translate(251.152659, 168.042604)"><g><path d="M 13.796875 -11.78125 C 13.890625 -11.820312 14 -11.835938 14.125 -11.828125 C 14.25 -11.828125 14.347656 -11.789062 14.421875 -11.71875 C 14.503906 -11.601562 14.519531 -11.476562 14.46875 -11.34375 C 14.414062 -11.207031 14.316406 -11.09375 14.171875 -11 C 13.210938 -10.320312 12.25 -9.625 11.28125 -8.90625 C 10.144531 -8.070312 9.007812 -7.234375 7.875 -6.390625 C 7.695312 -6.285156 7.53125 -6.171875 7.375 -6.046875 C 7.125 -5.835938 6.867188 -5.648438 6.609375 -5.484375 C 6.023438 -5.078125 5.679688 -4.53125 5.578125 -3.84375 C 5.285156 -2.175781 4.953125 -0.519531 4.578125 1.125 C 4.117188 3.34375 3.460938 5.476562 2.609375 7.53125 C 2.117188 8.71875 1.46875 9.804688 0.65625 10.796875 C -0.289062 12.035156 -1.460938 12.90625 -2.859375 13.40625 C -5.171875 14.28125 -7.503906 14.503906 -9.859375 14.078125 C -10.828125 13.890625 -11.695312 13.488281 -12.46875 12.875 C -13.519531 12.0625 -13.726562 11.046875 -13.09375 9.828125 C -12.800781 9.296875 -12.476562 8.796875 -12.125 8.328125 C -11.28125 7.273438 -10.347656 6.300781 -9.328125 5.40625 C -5.628906 2.113281 -1.796875 -0.984375 2.171875 -3.890625 C 2.191406 -3.898438 2.203125 -3.90625 2.203125 -3.90625 C 2.617188 -4.207031 3.03125 -4.519531 3.4375 -4.84375 C 3.476562 -4.914062 3.546875 -5.054688 3.640625 -5.265625 C 3.742188 -5.484375 3.8125 -5.691406 3.84375 -5.890625 C 3.875 -6.085938 3.832031 -6.21875 3.71875 -6.28125 C 3.601562 -6.351562 3.375 -6.273438 3.03125 -6.046875 C 2.894531 -5.960938 2.765625 -5.878906 2.640625 -5.796875 C 2.328125 -5.578125 2.015625 -5.378906 1.703125 -5.203125 C -0.203125 -4.398438 -1.320312 -5 -1.65625 -7 C -1.789062 -8.21875 -1.59375 -9.363281 -1.0625 -10.4375 C -0.539062 -11.507812 0.191406 -12.40625 1.140625 -13.125 C 2.097656 -13.851562 3.203125 -14.25 4.453125 -14.3125 C 4.578125 -14.332031 4.707031 -14.335938 4.84375 -14.328125 C 5.195312 -14.335938 5.539062 -14.367188 5.875 -14.421875 C 6.21875 -14.472656 6.550781 -14.601562 6.875 -14.8125 C 7.238281 -15.03125 7.535156 -15.035156 7.765625 -14.828125 C 7.992188 -14.617188 8.078125 -14.316406 8.015625 -13.921875 C 7.796875 -13.148438 7.582031 -12.367188 7.375 -11.578125 C 7.226562 -11.078125 7.085938 -10.570312 6.953125 -10.0625 C 6.804688 -9.5 6.664062 -8.9375 6.53125 -8.375 C 6.332031 -7.632812 6.34375 -7.265625 6.5625 -7.265625 C 6.789062 -7.265625 7.148438 -7.445312 7.640625 -7.8125 C 7.703125 -7.84375 7.773438 -7.878906 7.859375 -7.921875 C 8.742188 -8.546875 9.640625 -9.160156 10.546875 -9.765625 C 11.203125 -10.191406 11.84375 -10.617188 12.46875 -11.046875 C 12.894531 -11.335938 13.335938 -11.582031 13.796875 -11.78125 Z M 2.984375 -0.46875 C 3.171875 -1.550781 3.210938 -2.242188 3.109375 -2.546875 C 3.003906 -2.859375 2.769531 -2.90625 2.40625 -2.6875 C 2.039062 -2.476562 1.570312 -2.117188 1 -1.609375 C 0.632812 -1.285156 0.226562 -0.957031 -0.21875 -0.625 C -2.875 1.445312 -5.445312 3.601562 -7.9375 5.84375 C -9.050781 6.757812 -10.003906 7.804688 -10.796875 8.984375 C -11.640625 10.242188 -11.445312 11.207031 -10.21875 11.875 C -9.5 12.269531 -8.734375 12.507812 -7.921875 12.59375 C -7.109375 12.675781 -6.226562 12.640625 -5.28125 12.484375 C -4.175781 12.367188 -3.191406 11.992188 -2.328125 11.359375 C -1.472656 10.734375 -0.734375 9.863281 -0.109375 8.75 C 0.273438 8.050781 0.628906 7.320312 0.953125 6.5625 C 1.890625 4.269531 2.566406 1.925781 2.984375 -0.46875 Z M 0.828125 -6.421875 C 1.160156 -6.347656 1.585938 -6.53125 2.109375 -6.96875 C 2.628906 -7.40625 3.140625 -7.972656 3.640625 -8.671875 C 4.140625 -9.378906 4.515625 -10.078125 4.765625 -10.765625 C 5.015625 -11.460938 5.015625 -12.019531 4.765625 -12.4375 C 4.703125 -12.550781 4.609375 -12.648438 4.484375 -12.734375 C 4.265625 -12.929688 4.039062 -13.003906 3.8125 -12.953125 C 3.582031 -12.910156 3.347656 -12.832031 3.109375 -12.71875 C 2.328125 -12.238281 1.675781 -11.539062 1.15625 -10.625 C 0.632812 -9.707031 0.332031 -8.832031 0.25 -8 C 0.175781 -7.175781 0.367188 -6.648438 0.828125 -6.421875 Z M 0.828125 -6.421875 "/></g></g><g transform="translate(265.970196, 165.635884)"><g><path d="M 12.328125 -10.890625 C 12.554688 -10.691406 12.394531 -10.234375 11.84375 -9.515625 C 11.300781 -8.804688 10.695312 -8.179688 10.03125 -7.640625 C 9.375 -7.109375 8.597656 -6.550781 7.703125 -5.96875 C 7.117188 -5.582031 6.460938 -5.378906 5.734375 -5.359375 C 5.003906 -5.335938 4.570312 -5.710938 4.4375 -6.484375 C 4.3125 -7.265625 4.363281 -8.0625 4.59375 -8.875 C 4.820312 -9.726562 4.832031 -10.144531 4.625 -10.125 C 4.425781 -10.113281 4.039062 -9.859375 3.46875 -9.359375 C 1.988281 -8.003906 0.65625 -6.515625 -0.53125 -4.890625 C -0.84375 -4.367188 -1.289062 -4.03125 -1.875 -3.875 C -2.175781 -3.832031 -2.425781 -3.890625 -2.625 -4.046875 C -2.820312 -4.210938 -2.875 -4.414062 -2.78125 -4.65625 C -2.070312 -6.695312 -1.347656 -8.726562 -0.609375 -10.75 C -0.429688 -11.164062 -0.117188 -11.457031 0.328125 -11.625 C 0.515625 -11.6875 0.703125 -11.65625 0.890625 -11.53125 C 1.085938 -11.40625 1.203125 -11.242188 1.234375 -11.046875 C 1.242188 -10.847656 1.207031 -10.613281 1.125 -10.34375 C 1.082031 -10.1875 1.046875 -10.035156 1.015625 -9.890625 C 0.992188 -9.742188 1 -9.625 1.03125 -9.53125 C 1.0625 -9.4375 1.140625 -9.414062 1.265625 -9.46875 C 1.421875 -9.59375 1.570312 -9.722656 1.71875 -9.859375 C 2.125 -10.191406 2.507812 -10.507812 2.875 -10.8125 C 3.195312 -11.0625 3.539062 -11.300781 3.90625 -11.53125 C 4.28125 -11.757812 4.675781 -11.9375 5.09375 -12.0625 C 5.78125 -12.21875 6.296875 -12.140625 6.640625 -11.828125 C 6.992188 -11.523438 7.113281 -11.035156 7 -10.359375 C 6.851562 -9.742188 6.703125 -9.128906 6.546875 -8.515625 C 6.316406 -7.941406 6.328125 -7.53125 6.578125 -7.28125 C 6.828125 -7.039062 7.738281 -7.519531 9.3125 -8.71875 L 10.5 -9.671875 C 11.601562 -10.660156 12.210938 -11.066406 12.328125 -10.890625 Z M 12.328125 -10.890625 "/></g></g></g><g fill="#000000" fill-opacity="1"><g transform="translate(154.208599, 241.535594)"><g><path d="M 60.3125 -37.515625 C 60.195312 -37.472656 60.0625 -37.453125 59.90625 -37.453125 C 59.75 -37.453125 59.59375 -37.492188 59.4375 -37.578125 C 59.28125 -37.710938 59.203125 -37.84375 59.203125 -37.96875 C 59.203125 -38.09375 59.226562 -38.222656 59.28125 -38.359375 C 60.1875 -40.492188 60.910156 -42.703125 61.453125 -44.984375 C 61.804688 -46.398438 62.082031 -47.84375 62.28125 -49.3125 C 62.40625 -50.226562 62.273438 -51.164062 61.890625 -52.125 C 61.503906 -53.144531 60.742188 -53.796875 59.609375 -54.078125 C 58.753906 -54.234375 57.90625 -54.253906 57.0625 -54.140625 C 56.914062 -54.117188 56.769531 -54.09375 56.625 -54.0625 C 54.851562 -53.707031 53.160156 -53.175781 51.546875 -52.46875 C 48.753906 -51.289062 46.085938 -49.957031 43.546875 -48.46875 C 41.003906 -46.976562 38.539062 -45.40625 36.15625 -43.75 C 25.6875 -36.375 16.640625 -27.738281 9.015625 -17.84375 C 7.078125 -15.425781 5.460938 -12.820312 4.171875 -10.03125 C 3.722656 -9.039062 3.363281 -8.015625 3.09375 -6.953125 C 2.914062 -6.347656 2.828125 -5.71875 2.828125 -5.0625 C 2.773438 -2.945312 3.914062 -1.554688 6.25 -0.890625 C 8.207031 -0.335938 10.140625 -0.164062 12.046875 -0.375 C 13.546875 -0.476562 14.992188 -0.644531 16.390625 -0.875 C 17.054688 -0.976562 17.691406 -1.109375 18.296875 -1.265625 C 27.191406 -2.804688 35.414062 -5.332031 42.96875 -8.84375 C 43.082031 -8.914062 43.195312 -8.972656 43.3125 -9.015625 C 43.820312 -9.285156 44.363281 -9.519531 44.9375 -9.71875 C 45.082031 -9.757812 45.328125 -9.820312 45.671875 -9.90625 C 46.023438 -9.988281 46.363281 -10.019531 46.6875 -10 C 47.019531 -9.988281 47.25 -9.878906 47.375 -9.671875 C 47.414062 -9.554688 47.40625 -9.457031 47.34375 -9.375 C 47.289062 -9.300781 47.203125 -9.242188 47.078125 -9.203125 C 46.617188 -8.992188 46.160156 -8.785156 45.703125 -8.578125 C 44.328125 -7.972656 42.960938 -7.375 41.609375 -6.78125 C 33.921875 -3.414062 25.757812 -1.0625 17.125 0.28125 C 15.34375 0.570312 13.554688 0.832031 11.765625 1.0625 C 9.753906 1.300781 7.679688 1.203125 5.546875 0.765625 C 1.296875 -0.128906 -0.519531 -2.460938 0.09375 -6.234375 C 0.34375 -7.734375 0.816406 -9.160156 1.515625 -10.515625 C 2.460938 -12.484375 3.566406 -14.351562 4.828125 -16.125 C 6.085938 -17.90625 7.410156 -19.640625 8.796875 -21.328125 C 15.046875 -28.921875 22.160156 -35.726562 30.140625 -41.75 C 32.578125 -43.582031 35.082031 -45.328125 37.65625 -46.984375 C 40.226562 -48.640625 42.921875 -50.171875 45.734375 -51.578125 C 48.085938 -52.765625 50.53125 -53.769531 53.0625 -54.59375 C 54.09375 -54.914062 55.128906 -55.160156 56.171875 -55.328125 C 56.859375 -55.441406 57.550781 -55.53125 58.25 -55.59375 C 59.070312 -55.644531 59.910156 -55.613281 60.765625 -55.5 C 63.085938 -55.070312 64.441406 -53.800781 64.828125 -51.6875 C 64.984375 -50.757812 65 -49.835938 64.875 -48.921875 C 64.632812 -47.148438 64.25 -45.425781 63.71875 -43.75 C 63.195312 -42.082031 62.609375 -40.4375 61.953125 -38.8125 C 61.785156 -38.25 61.425781 -37.847656 60.875 -37.609375 C 60.707031 -37.554688 60.550781 -37.53125 60.40625 -37.53125 Z M 60.3125 -37.515625 "/></g></g><g transform="translate(203.640871, 233.50662)"><g><path d="M 7.0625 -9.640625 C 7.375 -10.085938 7.65625 -10.351562 7.90625 -10.4375 C 8.15625 -10.519531 8.328125 -10.503906 8.421875 -10.390625 C 8.523438 -10.285156 8.503906 -10.109375 8.359375 -9.859375 C 7.535156 -8.460938 6.566406 -7.21875 5.453125 -6.125 C 4.335938 -5.03125 3.125 -4.300781 1.8125 -3.9375 C 0.5 -3.582031 -0.425781 -4.179688 -0.96875 -5.734375 C -1.4375 -7.285156 -1 -10.671875 0.34375 -15.890625 C 1.6875 -21.109375 2.71875 -25.367188 3.4375 -28.671875 C 3.5 -28.972656 3.617188 -29.242188 3.796875 -29.484375 C 4.023438 -29.804688 4.34375 -29.921875 4.75 -29.828125 C 4.894531 -29.785156 5.039062 -29.710938 5.1875 -29.609375 C 5.332031 -29.515625 5.410156 -29.296875 5.421875 -28.953125 C 2.054688 -15.085938 0.550781 -7.601562 0.90625 -6.5 C 1.257812 -5.394531 2.035156 -5.234375 3.234375 -6.015625 C 4.429688 -6.804688 5.332031 -7.554688 5.9375 -8.265625 C 6.539062 -8.972656 6.914062 -9.429688 7.0625 -9.640625 Z M 7.0625 -9.640625 "/></g></g><g transform="translate(212.298893, 232.100352)"><g><path d="M -0.0625 -3.125 C -1.164062 -2.945312 -1.8125 -3.4375 -2 -4.59375 C -2.226562 -5.988281 -1.71875 -8.609375 -0.46875 -12.453125 C -0.414062 -12.617188 -0.300781 -12.71875 -0.125 -12.75 C 0.601562 -12.863281 1.015625 -12.625 1.109375 -12.03125 C 1.140625 -11.832031 1.117188 -11.570312 1.046875 -11.25 C 1.015625 -11.15625 0.648438 -9.53125 -0.046875 -6.375 C -0.148438 -5.851562 -0.179688 -5.476562 -0.140625 -5.25 C -0.0976562 -4.988281 0.0390625 -4.878906 0.28125 -4.921875 C 1.125 -5.054688 2.992188 -7.519531 5.890625 -12.3125 C 6.253906 -12.945312 6.660156 -13.300781 7.109375 -13.375 C 7.773438 -13.476562 8.148438 -13.289062 8.234375 -12.8125 C 8.265625 -12.625 8.175781 -11.882812 7.96875 -10.59375 C 7.675781 -8.851562 7.550781 -7.859375 7.59375 -7.609375 C 7.65625 -7.222656 7.8125 -7.050781 8.0625 -7.09375 C 8.707031 -7.195312 10.382812 -8.628906 13.09375 -11.390625 C 13.25 -11.578125 13.382812 -11.679688 13.5 -11.703125 C 13.789062 -11.742188 13.972656 -11.523438 14.046875 -11.046875 C 14.066406 -10.910156 14.046875 -10.796875 13.984375 -10.703125 C 12.578125 -9.046875 11.363281 -7.757812 10.34375 -6.84375 C 9.40625 -6.007812 8.53125 -5.523438 7.71875 -5.390625 L 7.484375 -5.359375 C 6.253906 -5.410156 5.507812 -6.238281 5.25 -7.84375 C 4.15625 -6.519531 3.242188 -5.441406 2.515625 -4.609375 C 1.785156 -3.785156 0.925781 -3.289062 -0.0625 -3.125 Z M -0.0625 -3.125 "/></g></g><g transform="translate(226.561206, 229.783814)"><g><path d="M 4.421875 -29 C 4.453125 -29.101562 4.554688 -29.203125 4.734375 -29.296875 C 4.921875 -29.390625 5.109375 -29.46875 5.296875 -29.53125 C 5.492188 -29.59375 5.671875 -29.613281 5.828125 -29.59375 C 5.984375 -29.582031 6.0625 -29.523438 6.0625 -29.421875 C 6.019531 -28.859375 5.914062 -28.300781 5.75 -27.75 C 5.738281 -27.6875 5.710938 -27.59375 5.671875 -27.46875 C 5.078125 -25.09375 4.457031 -22.734375 3.8125 -20.390625 C 3.707031 -20.035156 3.625 -19.695312 3.5625 -19.375 C 3.3125 -18.570312 3.007812 -17.59375 2.65625 -16.4375 C 2.238281 -15.21875 1.894531 -14.109375 1.625 -13.109375 C 1.945312 -13.648438 2.394531 -14.082031 2.96875 -14.40625 C 3.550781 -14.726562 4.003906 -14.921875 4.328125 -14.984375 C 5.566406 -15.160156 6.34375 -14.664062 6.65625 -13.5 C 7.070312 -12.1875 7.050781 -10.769531 6.59375 -9.25 C 6.144531 -7.726562 5.429688 -6.4375 4.453125 -5.375 C 3.585938 -4.6875 2.722656 -4.304688 1.859375 -4.234375 C 1.003906 -4.160156 0.1875 -4.453125 -0.59375 -5.109375 C -0.675781 -5.097656 -0.753906 -5.046875 -0.828125 -4.953125 C -0.898438 -4.859375 -0.984375 -4.753906 -1.078125 -4.640625 C -1.179688 -4.460938 -1.296875 -4.316406 -1.421875 -4.203125 C -1.515625 -4.148438 -1.625 -4.125 -1.75 -4.125 C -1.875 -4.125 -1.976562 -4.144531 -2.0625 -4.1875 C -2.34375 -4.351562 -2.460938 -4.597656 -2.421875 -4.921875 C -1.859375 -7.617188 -1.140625 -10.453125 -0.265625 -13.421875 C 0.597656 -16.390625 1.472656 -19.285156 2.359375 -22.109375 C 2.722656 -23.367188 3.09375 -24.585938 3.46875 -25.765625 C 3.601562 -26.242188 3.738281 -26.726562 3.875 -27.21875 C 4.050781 -27.789062 4.234375 -28.382812 4.421875 -29 Z M 2.609375 -12.546875 C 1.816406 -11.765625 1.171875 -10.863281 0.671875 -9.84375 C 0.179688 -8.832031 0.109375 -7.832031 0.453125 -6.84375 C 0.648438 -6.257812 0.957031 -5.878906 1.375 -5.703125 C 1.789062 -5.523438 2.222656 -5.679688 2.671875 -6.171875 C 3.085938 -6.742188 3.492188 -7.425781 3.890625 -8.21875 C 4.285156 -9.019531 4.578125 -9.851562 4.765625 -10.71875 C 4.890625 -11.476562 4.9375 -12.125 4.90625 -12.65625 C 4.882812 -13.195312 4.691406 -13.5 4.328125 -13.5625 C 3.972656 -13.625 3.398438 -13.285156 2.609375 -12.546875 Z M 2.609375 -12.546875 "/></g></g></g><g fill="#000000" fill-opacity="1"><g transform="translate(59.930674, 201.444304)"><g><path d="M 128.109375 -25.046875 C 127.171875 -24.960938 126.226562 -24.882812 125.28125 -24.8125 C 124.414062 -24.71875 123.546875 -24.632812 122.671875 -24.5625 C 116.359375 -23.90625 110.070312 -23.0625 103.8125 -22.03125 C 96.625 -20.882812 89.453125 -19.519531 82.296875 -17.9375 C 81.046875 -17.664062 79.890625 -17.164062 78.828125 -16.4375 C 70.285156 -10.75 61.472656 -5.628906 52.390625 -1.078125 C 43.316406 3.460938 34.003906 7.523438 24.453125 11.109375 C 20.285156 12.742188 16.046875 14.117188 11.734375 15.234375 C 9.734375 15.753906 7.703125 16.082031 5.640625 16.21875 C 5.367188 16.238281 5.097656 16.25 4.828125 16.25 C 3.898438 16.289062 3.015625 16.144531 2.171875 15.8125 C 0.859375 15.238281 0.460938 14.285156 0.984375 12.953125 C 1.390625 11.992188 1.988281 11.148438 2.78125 10.421875 C 4.332031 8.898438 6.046875 7.597656 7.921875 6.515625 C 12.546875 3.796875 17.332031 1.394531 22.28125 -0.6875 C 27.175781 -2.800781 32.144531 -4.742188 37.1875 -6.515625 C 37.320312 -6.535156 37.445312 -6.578125 37.5625 -6.640625 C 37.71875 -6.710938 37.894531 -6.78125 38.09375 -6.84375 C 38.820312 -7.050781 39.3125 -7.539062 39.5625 -8.3125 C 39.988281 -9.445312 40.4375 -10.578125 40.90625 -11.703125 C 40.988281 -11.890625 41.070312 -12.097656 41.15625 -12.328125 C 42.175781 -14.867188 43.222656 -17.429688 44.296875 -20.015625 C 46.285156 -24.890625 48.269531 -29.773438 50.25 -34.671875 C 51.5625 -37.753906 52.613281 -40.929688 53.40625 -44.203125 C 53.445312 -44.492188 53.535156 -44.789062 53.671875 -45.09375 C 53.921875 -45.445312 54.25 -45.566406 54.65625 -45.453125 C 54.820312 -45.503906 55.003906 -45.503906 55.203125 -45.453125 C 55.359375 -45.429688 55.488281 -45.363281 55.59375 -45.25 C 55.695312 -45.144531 55.75 -45.007812 55.75 -44.84375 C 55.789062 -44.351562 55.769531 -43.878906 55.6875 -43.421875 C 55.09375 -40.535156 54.207031 -37.734375 53.03125 -35.015625 C 51.007812 -30.117188 48.976562 -25.207031 46.9375 -20.28125 C 46.125 -18.257812 45.296875 -16.242188 44.453125 -14.234375 C 44.296875 -13.847656 44.132812 -13.460938 43.96875 -13.078125 C 43.476562 -11.859375 42.972656 -10.625 42.453125 -9.375 C 42.429688 -9.320312 42.421875 -9.285156 42.421875 -9.265625 C 42.328125 -9.128906 42.273438 -9 42.265625 -8.875 C 42.253906 -8.75 42.316406 -8.628906 42.453125 -8.515625 C 42.472656 -8.492188 42.515625 -8.46875 42.578125 -8.4375 C 42.628906 -8.46875 42.695312 -8.492188 42.78125 -8.515625 C 42.8125 -8.515625 42.835938 -8.515625 42.859375 -8.515625 C 44.148438 -8.921875 45.421875 -9.328125 46.671875 -9.734375 C 48.890625 -10.472656 51.101562 -11.195312 53.3125 -11.90625 C 61.15625 -14.320312 69.066406 -16.429688 77.046875 -18.234375 C 77.992188 -18.453125 78.859375 -18.832031 79.640625 -19.375 C 81.898438 -20.976562 84.125 -22.625 86.3125 -24.3125 C 88.5 -26 90.601562 -27.785156 92.625 -29.671875 C 94.820312 -31.648438 96.820312 -33.835938 98.625 -36.234375 C 99.6875 -37.617188 100.488281 -39.15625 101.03125 -40.84375 C 101.769531 -43.425781 101.296875 -45.703125 99.609375 -47.671875 C 98.984375 -48.398438 98.28125 -49.023438 97.5 -49.546875 C 96.726562 -50.066406 95.90625 -50.515625 95.03125 -50.890625 C 92.0625 -52.171875 88.972656 -52.988281 85.765625 -53.34375 C 82.960938 -53.6875 80.160156 -53.859375 77.359375 -53.859375 C 74.796875 -53.859375 72.238281 -53.753906 69.6875 -53.546875 C 63.125 -53.023438 56.628906 -52.03125 50.203125 -50.5625 C 45.828125 -49.613281 41.535156 -48.429688 37.328125 -47.015625 C 33.128906 -45.597656 29.039062 -43.8125 25.0625 -41.65625 C 23.59375 -40.90625 22.171875 -40.078125 20.796875 -39.171875 C 19.421875 -38.273438 18.109375 -37.296875 16.859375 -36.234375 C 15.910156 -35.359375 15.03125 -34.429688 14.21875 -33.453125 C 13.601562 -32.796875 13.160156 -32.035156 12.890625 -31.171875 C 12.460938 -29.835938 12.753906 -28.691406 13.765625 -27.734375 C 14.390625 -27.140625 15.109375 -26.695312 15.921875 -26.40625 C 17.304688 -25.820312 18.75 -25.484375 20.25 -25.390625 C 21.039062 -25.328125 21.84375 -25.28125 22.65625 -25.25 C 23.738281 -25.195312 24.828125 -25.144531 25.921875 -25.09375 C 26.796875 -25.039062 27.65625 -24.957031 28.5 -24.84375 C 28.613281 -24.820312 28.707031 -24.769531 28.78125 -24.6875 C 28.863281 -24.601562 28.929688 -24.507812 28.984375 -24.40625 C 29.003906 -24.175781 28.945312 -24.023438 28.8125 -23.953125 C 28.675781 -23.890625 28.539062 -23.875 28.40625 -23.90625 L 28.171875 -23.90625 C 28.097656 -23.90625 28.015625 -23.90625 27.921875 -23.90625 C 27.128906 -23.9375 26.359375 -23.953125 25.609375 -23.953125 C 25.359375 -23.953125 25.109375 -23.953125 24.859375 -23.953125 C 24.472656 -23.953125 24.078125 -23.953125 23.671875 -23.953125 L 23.640625 -23.953125 C 22.523438 -23.953125 21.421875 -23.976562 20.328125 -24.03125 C 19.242188 -24.082031 18.160156 -24.21875 17.078125 -24.4375 C 15.847656 -24.707031 14.660156 -25.113281 13.515625 -25.65625 C 12.890625 -25.957031 12.304688 -26.320312 11.765625 -26.75 C 10.128906 -28.113281 9.722656 -29.816406 10.546875 -31.859375 C 11.109375 -33.191406 11.921875 -34.367188 12.984375 -35.390625 C 14.367188 -36.816406 15.890625 -38.109375 17.546875 -39.265625 C 22.066406 -42.359375 26.875 -44.859375 31.96875 -46.765625 C 36.070312 -48.347656 40.238281 -49.675781 44.46875 -50.75 C 48.707031 -51.820312 52.988281 -52.710938 57.3125 -53.421875 C 63.976562 -54.597656 70.691406 -55.195312 77.453125 -55.21875 C 77.660156 -55.21875 77.875 -55.21875 78.09375 -55.21875 C 80.65625 -55.21875 83.207031 -55.085938 85.75 -54.828125 C 88.289062 -54.566406 90.800781 -54.082031 93.28125 -53.375 C 95.320312 -52.8125 97.253906 -52 99.078125 -50.9375 C 100.035156 -50.363281 100.890625 -49.679688 101.640625 -48.890625 C 104.148438 -46.285156 104.75 -43.238281 103.4375 -39.75 C 102.84375 -38.195312 102.03125 -36.753906 101 -35.421875 C 99.09375 -32.910156 96.96875 -30.609375 94.625 -28.515625 C 91.769531 -25.929688 88.789062 -23.492188 85.6875 -21.203125 C 85.601562 -21.128906 85.492188 -21.0625 85.359375 -21 C 85.191406 -20.894531 85.023438 -20.769531 84.859375 -20.625 C 84.703125 -20.488281 84.59375 -20.304688 84.53125 -20.078125 C 84.644531 -19.992188 84.742188 -19.953125 84.828125 -19.953125 C 84.960938 -19.972656 85.097656 -19.992188 85.234375 -20.015625 C 85.367188 -20.078125 85.507812 -20.125 85.65625 -20.15625 C 93.675781 -21.78125 101.726562 -23.128906 109.8125 -24.203125 C 113.707031 -24.679688 117.582031 -25.125 121.4375 -25.53125 C 122.769531 -25.664062 124.09375 -25.800781 125.40625 -25.9375 C 125.863281 -26 126.34375 -26.03125 126.84375 -26.03125 C 127.300781 -26.050781 127.757812 -26.007812 128.21875 -25.90625 C 128.28125 -25.875 128.335938 -25.820312 128.390625 -25.75 C 128.441406 -25.6875 128.46875 -25.632812 128.46875 -25.59375 C 128.5 -25.414062 128.472656 -25.285156 128.390625 -25.203125 C 128.304688 -25.128906 128.210938 -25.078125 128.109375 -25.046875 Z M 35.484375 4.75 C 35.484375 4.75 35.492188 4.75 35.515625 4.75 C 35.710938 4.664062 35.894531 4.554688 36.0625 4.421875 C 36.238281 4.285156 36.359375 4.097656 36.421875 3.859375 C 36.359375 3.859375 36.316406 3.859375 36.296875 3.859375 C 35.753906 3.878906 35.40625 3.804688 35.25 3.640625 C 35.101562 3.472656 35.097656 3.160156 35.234375 2.703125 C 35.304688 2.410156 35.410156 2.113281 35.546875 1.8125 C 35.585938 1.726562 35.617188 1.660156 35.640625 1.609375 C 35.847656 1.066406 36.050781 0.535156 36.25 0.015625 C 36.738281 -1.160156 37.203125 -2.347656 37.640625 -3.546875 C 37.671875 -3.597656 37.710938 -3.664062 37.765625 -3.75 C 37.847656 -3.9375 37.898438 -4.117188 37.921875 -4.296875 C 37.953125 -4.472656 37.910156 -4.65625 37.796875 -4.84375 C 37.773438 -4.84375 37.75 -4.84375 37.71875 -4.84375 C 37.582031 -4.820312 37.457031 -4.78125 37.34375 -4.71875 C 37.269531 -4.6875 37.203125 -4.660156 37.140625 -4.640625 C 33.691406 -3.390625 30.28125 -2.066406 26.90625 -0.671875 C 23.53125 0.710938 20.195312 2.222656 16.90625 3.859375 C 14.226562 5.128906 11.640625 6.554688 9.140625 8.140625 C 7.703125 9.003906 6.390625 10.039062 5.203125 11.25 C 4.546875 11.84375 4.050781 12.554688 3.71875 13.390625 C 3.613281 13.671875 3.617188 13.929688 3.734375 14.171875 C 3.859375 14.421875 4.070312 14.585938 4.375 14.671875 C 4.726562 14.773438 5.09375 14.828125 5.46875 14.828125 C 5.882812 14.828125 6.296875 14.789062 6.703125 14.71875 C 9.335938 14.25 11.945312 13.59375 14.53125 12.75 C 20.144531 10.957031 25.671875 8.914062 31.109375 6.625 C 32.578125 6.03125 34.035156 5.40625 35.484375 4.75 Z M 73.234375 -15.125 C 73.253906 -15.1875 73.296875 -15.226562 73.359375 -15.25 C 73.460938 -15.300781 73.539062 -15.367188 73.59375 -15.453125 C 73.65625 -15.546875 73.644531 -15.671875 73.5625 -15.828125 C 73.425781 -15.804688 73.273438 -15.765625 73.109375 -15.703125 C 72.191406 -15.453125 71.28125 -15.222656 70.375 -15.015625 C 67.90625 -14.359375 65.445312 -13.6875 63 -13 C 56.1875 -11.101562 49.4375 -9 42.75 -6.6875 C 42.164062 -6.5 41.675781 -6.238281 41.28125 -5.90625 C 40.894531 -5.582031 40.617188 -5.117188 40.453125 -4.515625 C 40.347656 -4.210938 40.226562 -3.914062 40.09375 -3.625 C 40.007812 -3.488281 39.941406 -3.347656 39.890625 -3.203125 C 39.722656 -2.796875 39.453125 -2.226562 39.078125 -1.5 C 38.691406 -0.757812 38.304688 0.015625 37.921875 0.828125 C 37.535156 1.648438 37.269531 2.347656 37.125 2.921875 C 36.976562 3.503906 37.039062 3.84375 37.3125 3.9375 C 37.695312 3.84375 38.050781 3.691406 38.375 3.484375 C 38.53125 3.398438 38.695312 3.320312 38.875 3.25 C 46.25 0.0078125 53.457031 -3.582031 60.5 -7.53125 C 63.300781 -9.144531 66.070312 -10.78125 68.8125 -12.4375 C 70.019531 -13.175781 71.222656 -13.898438 72.421875 -14.609375 C 72.441406 -14.628906 72.46875 -14.640625 72.5 -14.640625 C 72.769531 -14.773438 73.015625 -14.9375 73.234375 -15.125 Z M 73.234375 -15.125 "/></g></g></g></svg>