<svg xmlns="http://www.w3.org/2000/svg" xmlns:xlink="http://www.w3.org/1999/xlink" width="500" zoomAndPan="magnify" viewBox="0 0 375 187.499995" height="250" preserveAspectRatio="xMidYMid meet" version="1.0"><defs><g/></defs><g fill="#000000" fill-opacity="1"><g transform="translate(93.649953, 93.190729)"><g/></g><g transform="translate(106.73223, 91.065856)"><g/></g><g transform="translate(119.814507, 88.940984)"><g/></g><g transform="translate(132.896784, 86.816112)"><g/></g><g transform="translate(145.979062, 84.69124)"><g/></g></g><g fill="#000000" fill-opacity="1"><g transform="translate(159.061338, 82.566368)"><g><path d="M 2.078125 -4.5625 L 2.03125 -4.546875 C 0.351562 -4.296875 -0.804688 -4.484375 -1.453125 -5.109375 C -2.097656 -5.742188 -2.234375 -6.707031 -1.859375 -8 C -1.515625 -9 -1.03125 -9.894531 -0.40625 -10.6875 C -0.1875 -10.957031 0.0390625 -11.1875 0.28125 -11.375 C 0.519531 -11.5625 0.8125 -11.679688 1.15625 -11.734375 C 1.332031 -11.804688 1.5625 -11.8125 1.84375 -11.75 C 1.9375 -11.726562 2.019531 -11.707031 2.09375 -11.6875 C 2.289062 -11.757812 2.46875 -11.851562 2.625 -11.96875 C 2.664062 -12.019531 2.726562 -12.054688 2.8125 -12.078125 C 3.175781 -12.296875 3.566406 -12.425781 3.984375 -12.46875 C 4.160156 -12.5 4.34375 -12.53125 4.53125 -12.5625 C 5.226562 -12.5625 5.785156 -12.359375 6.203125 -11.953125 C 6.628906 -11.546875 6.847656 -10.992188 6.859375 -10.296875 C 6.859375 -9.890625 6.789062 -9.488281 6.65625 -9.09375 C 5.71875 -6.507812 4.226562 -5.003906 2.1875 -4.578125 Z M 3.8125 -11.1875 C 2.894531 -11.070312 2.125 -10.675781 1.5 -10 C 0.882812 -9.332031 0.460938 -8.609375 0.234375 -7.828125 C 0.015625 -7.046875 0.0195312 -6.429688 0.25 -5.984375 C 0.476562 -5.546875 0.984375 -5.488281 1.765625 -5.8125 C 2.628906 -6.25 3.347656 -6.898438 3.921875 -7.765625 C 4.492188 -8.640625 4.800781 -9.429688 4.84375 -10.140625 C 4.882812 -10.859375 4.539062 -11.207031 3.8125 -11.1875 Z M 3.8125 -11.1875 "/></g></g><g transform="translate(168.25008, 81.073898)"><g><path d="M 7.03125 -9.609375 C 7.34375 -10.054688 7.625 -10.320312 7.875 -10.40625 C 8.125 -10.488281 8.296875 -10.472656 8.390625 -10.359375 C 8.492188 -10.253906 8.472656 -10.078125 8.328125 -9.828125 C 7.503906 -8.441406 6.535156 -7.203125 5.421875 -6.109375 C 4.316406 -5.015625 3.109375 -4.289062 1.796875 -3.9375 C 0.492188 -3.582031 -0.421875 -4.175781 -0.953125 -5.71875 C -1.421875 -7.257812 -0.992188 -10.632812 0.328125 -15.84375 C 1.660156 -21.050781 2.695312 -25.304688 3.4375 -28.609375 C 3.5 -28.910156 3.613281 -29.175781 3.78125 -29.40625 C 4.019531 -29.726562 4.335938 -29.84375 4.734375 -29.75 C 4.867188 -29.71875 5.007812 -29.648438 5.15625 -29.546875 C 5.3125 -29.441406 5.390625 -29.222656 5.390625 -28.890625 C 2.046875 -15.054688 0.546875 -7.585938 0.890625 -6.484375 C 1.242188 -5.378906 2.019531 -5.21875 3.21875 -6 C 4.414062 -6.789062 5.3125 -7.535156 5.90625 -8.234375 C 6.507812 -8.929688 6.882812 -9.390625 7.03125 -9.609375 Z M 7.03125 -9.609375 "/></g></g><g transform="translate(176.885075, 79.67137)"><g><path d="M 7.03125 -9.609375 C 7.34375 -10.054688 7.625 -10.320312 7.875 -10.40625 C 8.125 -10.488281 8.296875 -10.472656 8.390625 -10.359375 C 8.492188 -10.253906 8.472656 -10.078125 8.328125 -9.828125 C 7.503906 -8.441406 6.535156 -7.203125 5.421875 -6.109375 C 4.316406 -5.015625 3.109375 -4.289062 1.796875 -3.9375 C 0.492188 -3.582031 -0.421875 -4.175781 -0.953125 -5.71875 C -1.421875 -7.257812 -0.992188 -10.632812 0.328125 -15.84375 C 1.660156 -21.050781 2.695312 -25.304688 3.4375 -28.609375 C 3.5 -28.910156 3.613281 -29.175781 3.78125 -29.40625 C 4.019531 -29.726562 4.335938 -29.84375 4.734375 -29.75 C 4.867188 -29.71875 5.007812 -29.648438 5.15625 -29.546875 C 5.3125 -29.441406 5.390625 -29.222656 5.390625 -28.890625 C 2.046875 -15.054688 0.546875 -7.585938 0.890625 -6.484375 C 1.242188 -5.378906 2.019531 -5.21875 3.21875 -6 C 4.414062 -6.789062 5.3125 -7.535156 5.90625 -8.234375 C 6.507812 -8.929688 6.882812 -9.390625 7.03125 -9.609375 Z M 7.03125 -9.609375 "/></g></g><g transform="translate(185.52007, 78.268842)"><g><path d="M 11.125 -10.859375 C 11.414062 -10.753906 11.492188 -10.378906 11.359375 -9.734375 C 11.097656 -9.242188 10.804688 -8.773438 10.484375 -8.328125 C 10.171875 -7.890625 9.816406 -7.476562 9.421875 -7.09375 C 9.378906 -7.082031 9.359375 -7.066406 9.359375 -7.046875 C 9.097656 -6.804688 8.816406 -6.582031 8.515625 -6.375 C 5.910156 -4.9375 4.40625 -5.289062 4 -7.4375 C 3.03125 -6.28125 2.378906 -5.5625 2.046875 -5.28125 C 1.210938 -4.59375 0.257812 -4.195312 -0.8125 -4.09375 C -1.59375 -4 -2.160156 -4.144531 -2.515625 -4.53125 C -2.867188 -4.925781 -2.941406 -5.515625 -2.734375 -6.296875 C -2.410156 -7.554688 -1.851562 -8.710938 -1.0625 -9.765625 C -0.144531 -10.960938 0.9375 -11.976562 2.1875 -12.8125 C 2.84375 -13.269531 3.570312 -13.53125 4.375 -13.59375 C 5.15625 -13.675781 5.691406 -13.304688 5.984375 -12.484375 C 6.097656 -12.234375 6.082031 -11.992188 5.9375 -11.765625 C 5.707031 -11.492188 5.414062 -11.394531 5.0625 -11.46875 C 5.03125 -11.46875 4.992188 -11.46875 4.953125 -11.46875 C 4.921875 -11.476562 4.890625 -11.492188 4.859375 -11.515625 C 4.453125 -11.929688 4.085938 -12.070312 3.765625 -11.9375 C 3.441406 -11.800781 3.097656 -11.585938 2.734375 -11.296875 C 1.128906 -9.972656 0.0507812 -8.3125 -0.5 -6.3125 C -0.53125 -6.21875 -0.539062 -6.117188 -0.53125 -6.015625 C -0.53125 -5.921875 -0.488281 -5.847656 -0.40625 -5.796875 C -0.207031 -5.765625 0.0078125 -5.816406 0.25 -5.953125 C 0.488281 -6.097656 0.71875 -6.285156 0.9375 -6.515625 C 1.164062 -6.753906 1.359375 -6.945312 1.515625 -7.09375 C 1.535156 -7.125 1.546875 -7.140625 1.546875 -7.140625 C 2.265625 -7.984375 2.972656 -8.847656 3.671875 -9.734375 C 3.960938 -10.171875 4.367188 -10.453125 4.890625 -10.578125 C 5.648438 -10.703125 6.023438 -10.414062 6.015625 -9.71875 C 5.984375 -9.445312 5.945312 -9.179688 5.90625 -8.921875 C 5.78125 -7.773438 5.867188 -7.125 6.171875 -6.96875 C 6.484375 -6.820312 6.910156 -6.890625 7.453125 -7.171875 C 7.992188 -7.460938 8.503906 -7.921875 8.984375 -8.546875 C 9.472656 -9.179688 9.878906 -9.75 10.203125 -10.25 C 10.523438 -10.757812 10.832031 -10.960938 11.125 -10.859375 Z M 11.125 -10.859375 "/></g></g><g transform="translate(196.99302, 76.405363)"><g><path d="M 6.578125 -11.96875 C 6.597656 -11.164062 6.304688 -10.585938 5.703125 -10.234375 C 5.109375 -9.890625 4.847656 -10.171875 4.921875 -11.078125 C 5.003906 -11.992188 4.570312 -12.15625 3.625 -11.5625 C 2.6875 -10.96875 1.941406 -10.285156 1.390625 -9.515625 C 0.535156 -8.316406 -0.179688 -7.050781 -0.765625 -5.71875 C -0.835938 -5.59375 -0.882812 -5.492188 -0.90625 -5.421875 C -1.09375 -5.054688 -1.273438 -4.703125 -1.453125 -4.359375 C -1.566406 -4.128906 -1.722656 -3.972656 -1.921875 -3.890625 C -2.117188 -3.804688 -2.316406 -3.769531 -2.515625 -3.78125 C -2.722656 -3.769531 -2.890625 -3.816406 -3.015625 -3.921875 C -3.140625 -4.023438 -3.175781 -4.164062 -3.125 -4.34375 C -3.039062 -4.695312 -2.9375 -5.039062 -2.8125 -5.375 C -2.09375 -7.476562 -1.351562 -9.582031 -0.59375 -11.6875 C -0.582031 -11.707031 -0.578125 -11.734375 -0.578125 -11.765625 C -0.472656 -12.097656 -0.34375 -12.40625 -0.1875 -12.6875 C 0 -12.976562 0.25 -13.125 0.5625 -13.125 C 0.875 -13.125 1.109375 -12.984375 1.265625 -12.703125 C 1.453125 -12.316406 1.597656 -12.097656 1.703125 -12.046875 C 1.804688 -12.003906 2.003906 -12.082031 2.296875 -12.28125 C 2.960938 -12.632812 3.613281 -12.921875 4.25 -13.140625 C 4.882812 -13.359375 5.425781 -13.421875 5.875 -13.328125 C 6.320312 -13.234375 6.554688 -12.78125 6.578125 -11.96875 Z M 6.578125 -11.96875 "/></g></g><g transform="translate(205.64532, 75.000024)"><g/></g><g transform="translate(218.727597, 72.875152)"><g><path d="M 81.296875 -64.453125 C 81.640625 -64.253906 81.957031 -64.015625 82.25 -63.734375 C 82.539062 -63.453125 82.757812 -63.101562 82.90625 -62.6875 C 83.0625 -62.207031 82.941406 -61.804688 82.546875 -61.484375 C 82.316406 -61.316406 82.070312 -61.257812 81.8125 -61.3125 C 81.550781 -61.375 81.347656 -61.53125 81.203125 -61.78125 C 80.804688 -62.5 80.289062 -63.03125 79.65625 -63.375 C 79.019531 -63.726562 78.347656 -64.023438 77.640625 -64.265625 C 76.066406 -64.785156 74.46875 -65.160156 72.84375 -65.390625 C 71.21875 -65.617188 69.597656 -65.785156 67.984375 -65.890625 C 65.265625 -66.015625 61.710938 -65.804688 57.328125 -65.265625 C 52.953125 -64.722656 48.113281 -63.875 42.8125 -62.71875 C 37.519531 -61.5625 32.140625 -60.101562 26.671875 -58.34375 C 21.210938 -56.582031 16.046875 -54.546875 11.171875 -52.234375 C 6.304688 -49.921875 2.117188 -47.34375 -1.390625 -44.5 C -4.910156 -41.664062 -7.378906 -38.59375 -8.796875 -35.28125 C -9.953125 -32.414062 -9.820312 -29.613281 -8.40625 -26.875 C -7.382812 -25 -6.097656 -23.351562 -4.546875 -21.9375 C -2.222656 -19.820312 0.269531 -17.941406 2.9375 -16.296875 C 5.207031 -14.804688 7.492188 -13.332031 9.796875 -11.875 C 12.023438 -10.445312 14.265625 -9.003906 16.515625 -7.546875 C 19.023438 -5.898438 21.5 -4.21875 23.9375 -2.5 C 24.164062 -2.332031 24.40625 -2.175781 24.65625 -2.03125 C 25.96875 -1.15625 27.160156 -0.144531 28.234375 1 C 29.359375 2.34375 29.710938 3.460938 29.296875 4.359375 C 28.878906 5.265625 27.925781 5.984375 26.4375 6.515625 C 24.945312 7.054688 23.175781 7.4375 21.125 7.65625 C 19.082031 7.875 17 7.953125 14.875 7.890625 C 12.75 7.828125 10.84375 7.644531 9.15625 7.34375 C 7.46875 7.050781 6.25 6.664062 5.5 6.1875 C 3.988281 5.1875 3.691406 3.90625 4.609375 2.34375 C 5.617188 0.757812 6.960938 -0.492188 8.640625 -1.421875 C 11.046875 -2.835938 13.628906 -3.34375 16.390625 -2.9375 C 16.929688 -2.832031 17.457031 -2.664062 17.96875 -2.4375 C 18.019531 -2.414062 18.066406 -2.390625 18.109375 -2.359375 C 18.242188 -2.316406 18.34375 -2.226562 18.40625 -2.09375 C 18.476562 -1.96875 18.484375 -1.816406 18.421875 -1.640625 C 18.253906 -1.347656 18.007812 -1.226562 17.6875 -1.28125 C 17.382812 -1.34375 17.09375 -1.429688 16.8125 -1.546875 C 14.84375 -2.148438 12.9375 -2.03125 11.09375 -1.1875 C 9.25 -0.34375 7.796875 0.960938 6.734375 2.734375 C 6.285156 3.585938 6.363281 4.257812 6.96875 4.75 C 7.582031 5.238281 8.457031 5.59375 9.59375 5.8125 C 10.726562 6.039062 11.851562 6.179688 12.96875 6.234375 C 14.082031 6.285156 14.90625 6.3125 15.4375 6.3125 C 15.539062 6.289062 15.625 6.289062 15.6875 6.3125 C 15.789062 6.289062 15.914062 6.28125 16.0625 6.28125 C 16.769531 6.320312 17.726562 6.328125 18.9375 6.296875 C 20.144531 6.265625 21.382812 6.179688 22.65625 6.046875 C 23.925781 5.910156 24.988281 5.65625 25.84375 5.28125 C 26.695312 4.90625 27.128906 4.375 27.140625 3.6875 C 27.160156 3.007812 26.507812 2.117188 25.1875 1.015625 C 23.757812 -0.160156 22.28125 -1.289062 20.75 -2.375 C 16.925781 -5.039062 13.035156 -7.59375 9.078125 -10.03125 C 7.648438 -10.945312 6.222656 -11.859375 4.796875 -12.765625 C 2.410156 -14.296875 0.0625 -15.878906 -2.25 -17.515625 C -4.40625 -19.015625 -6.367188 -20.726562 -8.140625 -22.65625 C -9.398438 -24.050781 -10.390625 -25.628906 -11.109375 -27.390625 C -12.191406 -30.242188 -12.082031 -33.070312 -10.78125 -35.875 C -9.363281 -38.988281 -7.050781 -41.914062 -3.84375 -44.65625 C -0.644531 -47.40625 3.164062 -49.925781 7.59375 -52.21875 C 12.03125 -54.519531 16.816406 -56.578125 21.953125 -58.390625 C 27.097656 -60.203125 32.335938 -61.742188 37.671875 -63.015625 C 43.015625 -64.285156 48.175781 -65.257812 53.15625 -65.9375 C 58.132812 -66.625 62.6875 -66.984375 66.8125 -67.015625 C 70.9375 -67.046875 74.375 -66.722656 77.125 -66.046875 C 78.5625 -65.734375 79.953125 -65.203125 81.296875 -64.453125 Z M 81.296875 -64.453125 "/></g></g><g transform="translate(244.234576, 68.732213)"><g><path d="M 5.6875 -8.40625 C 5.195312 -7.582031 4.578125 -6.796875 3.828125 -6.046875 C 3.085938 -5.296875 2.203125 -4.726562 1.171875 -4.34375 C 0.148438 -3.957031 -0.679688 -3.898438 -1.328125 -4.171875 C -1.984375 -4.441406 -2.234375 -5.238281 -2.078125 -6.5625 C -1.828125 -7.957031 -1.398438 -9.3125 -0.796875 -10.625 C -0.648438 -10.914062 -0.410156 -11.144531 -0.078125 -11.3125 C 0.171875 -11.40625 0.398438 -11.394531 0.609375 -11.28125 C 0.828125 -11.164062 0.925781 -10.992188 0.90625 -10.765625 C 0.800781 -10.328125 0.679688 -9.882812 0.546875 -9.4375 C 0.410156 -8.988281 0.316406 -8.691406 0.265625 -8.546875 C -0.0234375 -7.742188 -0.1875 -6.925781 -0.21875 -6.09375 C -0.144531 -5.632812 0.472656 -5.707031 1.640625 -6.3125 C 2.816406 -6.914062 3.898438 -7.851562 4.890625 -9.125 C 5.878906 -10.394531 6.382812 -10.800781 6.40625 -10.34375 C 6.425781 -9.882812 6.1875 -9.238281 5.6875 -8.40625 Z M 1.734375 -13.703125 C 1.691406 -13.648438 1.582031 -13.578125 1.40625 -13.484375 C 1.238281 -13.390625 1.054688 -13.3125 0.859375 -13.25 C 0.671875 -13.1875 0.507812 -13.191406 0.375 -13.265625 C 0.238281 -13.347656 0.195312 -13.535156 0.25 -13.828125 C 0.363281 -14.335938 0.488281 -14.789062 0.625 -15.1875 C 0.757812 -15.582031 0.960938 -16.03125 1.234375 -16.53125 C 1.410156 -16.75 1.613281 -16.882812 1.84375 -16.9375 C 2.082031 -17 2.296875 -16.972656 2.484375 -16.859375 C 2.679688 -16.742188 2.765625 -16.550781 2.734375 -16.28125 C 2.617188 -15.320312 2.285156 -14.460938 1.734375 -13.703125 Z M 1.734375 -13.703125 "/></g></g><g transform="translate(250.98337, 67.636049)"><g><path d="M 13.78125 -11.75 C 13.863281 -11.789062 13.960938 -11.804688 14.078125 -11.796875 C 14.203125 -11.796875 14.300781 -11.757812 14.375 -11.6875 C 14.46875 -11.582031 14.484375 -11.457031 14.421875 -11.3125 C 14.367188 -11.175781 14.269531 -11.0625 14.125 -10.96875 C 13.164062 -10.289062 12.210938 -9.59375 11.265625 -8.875 C 10.117188 -8.039062 8.976562 -7.207031 7.84375 -6.375 C 7.675781 -6.269531 7.507812 -6.148438 7.34375 -6.015625 C 7.09375 -5.828125 6.835938 -5.644531 6.578125 -5.46875 C 6.003906 -5.0625 5.664062 -4.515625 5.5625 -3.828125 C 5.269531 -2.160156 4.9375 -0.503906 4.5625 1.140625 C 4.113281 3.335938 3.453125 5.46875 2.578125 7.53125 C 2.097656 8.695312 1.460938 9.773438 0.671875 10.765625 C -0.285156 11.992188 -1.460938 12.863281 -2.859375 13.375 C -5.171875 14.25 -7.492188 14.46875 -9.828125 14.03125 C -10.796875 13.851562 -11.664062 13.457031 -12.4375 12.84375 C -13.476562 12.03125 -13.6875 11.015625 -13.0625 9.796875 C -12.769531 9.273438 -12.441406 8.78125 -12.078125 8.3125 C -11.242188 7.257812 -10.316406 6.289062 -9.296875 5.40625 C -5.609375 2.113281 -1.789062 -0.976562 2.15625 -3.875 C 2.175781 -3.882812 2.1875 -3.890625 2.1875 -3.890625 C 2.601562 -4.203125 3.015625 -4.515625 3.421875 -4.828125 C 3.472656 -4.898438 3.546875 -5.039062 3.640625 -5.25 C 3.734375 -5.457031 3.796875 -5.660156 3.828125 -5.859375 C 3.867188 -6.066406 3.828125 -6.203125 3.703125 -6.265625 C 3.585938 -6.335938 3.359375 -6.253906 3.015625 -6.015625 C 2.878906 -5.941406 2.753906 -5.863281 2.640625 -5.78125 C 2.328125 -5.5625 2.007812 -5.363281 1.6875 -5.1875 C -0.195312 -4.394531 -1.300781 -4.992188 -1.625 -6.984375 C -1.78125 -8.203125 -1.597656 -9.34375 -1.078125 -10.40625 C -0.554688 -11.476562 0.179688 -12.375 1.140625 -13.09375 C 2.109375 -13.8125 3.210938 -14.207031 4.453125 -14.28125 C 4.578125 -14.300781 4.703125 -14.300781 4.828125 -14.28125 C 5.179688 -14.289062 5.523438 -14.320312 5.859375 -14.375 C 6.203125 -14.425781 6.539062 -14.5625 6.875 -14.78125 C 7.226562 -14.988281 7.519531 -14.988281 7.75 -14.78125 C 7.976562 -14.570312 8.0625 -14.269531 8 -13.875 C 7.78125 -13.113281 7.5625 -12.332031 7.34375 -11.53125 C 7.195312 -11.039062 7.0625 -10.539062 6.9375 -10.03125 C 6.78125 -9.476562 6.640625 -8.921875 6.515625 -8.359375 C 6.316406 -7.617188 6.328125 -7.25 6.546875 -7.25 C 6.765625 -7.25 7.125 -7.429688 7.625 -7.796875 C 7.6875 -7.828125 7.757812 -7.863281 7.84375 -7.90625 C 8.726562 -8.507812 9.625 -9.117188 10.53125 -9.734375 C 11.175781 -10.160156 11.8125 -10.59375 12.4375 -11.03125 C 12.875 -11.300781 13.320312 -11.539062 13.78125 -11.75 Z M 2.984375 -0.46875 C 3.171875 -1.550781 3.210938 -2.242188 3.109375 -2.546875 C 3.015625 -2.847656 2.78125 -2.890625 2.40625 -2.671875 C 2.03125 -2.460938 1.5625 -2.109375 1 -1.609375 C 0.625 -1.273438 0.21875 -0.945312 -0.21875 -0.625 C -2.875 1.4375 -5.441406 3.585938 -7.921875 5.828125 C -9.023438 6.742188 -9.972656 7.789062 -10.765625 8.96875 C -11.609375 10.21875 -11.414062 11.175781 -10.1875 11.84375 C -9.476562 12.238281 -8.71875 12.472656 -7.90625 12.546875 C -7.09375 12.628906 -6.21875 12.597656 -5.28125 12.453125 C -4.175781 12.335938 -3.195312 11.960938 -2.34375 11.328125 C -1.488281 10.703125 -0.738281 9.835938 -0.09375 8.734375 C 0.28125 8.023438 0.628906 7.296875 0.953125 6.546875 C 1.878906 4.253906 2.554688 1.914062 2.984375 -0.46875 Z M 0.84375 -6.40625 C 1.15625 -6.332031 1.570312 -6.515625 2.09375 -6.953125 C 2.613281 -7.390625 3.125 -7.957031 3.625 -8.65625 C 4.125 -9.363281 4.492188 -10.0625 4.734375 -10.75 C 4.984375 -11.4375 4.988281 -11.988281 4.75 -12.40625 C 4.6875 -12.519531 4.597656 -12.617188 4.484375 -12.703125 C 4.253906 -12.898438 4.023438 -12.972656 3.796875 -12.921875 C 3.578125 -12.867188 3.351562 -12.789062 3.125 -12.6875 C 2.332031 -12.207031 1.675781 -11.507812 1.15625 -10.59375 C 0.632812 -9.6875 0.332031 -8.816406 0.25 -7.984375 C 0.164062 -7.148438 0.363281 -6.625 0.84375 -6.40625 Z M 0.84375 -6.40625 "/></g></g><g transform="translate(265.761498, 65.23573)"><g><path d="M 12.296875 -10.875 C 12.523438 -10.65625 12.363281 -10.191406 11.8125 -9.484375 C 11.269531 -8.773438 10.671875 -8.15625 10.015625 -7.625 C 9.359375 -7.09375 8.578125 -6.535156 7.671875 -5.953125 C 7.097656 -5.578125 6.445312 -5.375 5.71875 -5.34375 C 4.988281 -5.3125 4.5625 -5.679688 4.4375 -6.453125 C 4.3125 -7.234375 4.359375 -8.035156 4.578125 -8.859375 C 4.816406 -9.703125 4.832031 -10.117188 4.625 -10.109375 C 4.414062 -10.097656 4.023438 -9.835938 3.453125 -9.328125 C 1.984375 -7.984375 0.65625 -6.5 -0.53125 -4.875 C -0.84375 -4.351562 -1.289062 -4.019531 -1.875 -3.875 C -2.175781 -3.832031 -2.421875 -3.890625 -2.609375 -4.046875 C -2.804688 -4.210938 -2.863281 -4.410156 -2.78125 -4.640625 C -2.070312 -6.679688 -1.34375 -8.707031 -0.59375 -10.71875 C -0.425781 -11.132812 -0.125 -11.425781 0.3125 -11.59375 C 0.5 -11.664062 0.691406 -11.632812 0.890625 -11.5 C 1.085938 -11.375 1.207031 -11.210938 1.25 -11.015625 C 1.25 -10.816406 1.203125 -10.585938 1.109375 -10.328125 C 1.085938 -10.160156 1.054688 -10.003906 1.015625 -9.859375 C 0.984375 -9.710938 0.984375 -9.59375 1.015625 -9.5 C 1.054688 -9.40625 1.132812 -9.390625 1.25 -9.453125 C 1.414062 -9.578125 1.570312 -9.707031 1.71875 -9.84375 C 2.113281 -10.15625 2.5 -10.46875 2.875 -10.78125 C 3.195312 -11.03125 3.539062 -11.269531 3.90625 -11.5 C 4.269531 -11.726562 4.660156 -11.90625 5.078125 -12.03125 C 5.765625 -12.195312 6.28125 -12.125 6.625 -11.8125 C 6.976562 -11.5 7.09375 -11.003906 6.96875 -10.328125 C 6.832031 -9.710938 6.6875 -9.101562 6.53125 -8.5 C 6.300781 -7.925781 6.304688 -7.515625 6.546875 -7.265625 C 6.796875 -7.023438 7.710938 -7.5 9.296875 -8.6875 L 10.46875 -9.65625 C 11.570312 -10.644531 12.179688 -11.050781 12.296875 -10.875 Z M 12.296875 -10.875 "/></g></g></g><g fill="#000000" fill-opacity="1"><g transform="translate(154.29714, 140.933579)"><g><path d="M 60.15625 -37.421875 C 60.03125 -37.378906 59.890625 -37.351562 59.734375 -37.34375 C 59.585938 -37.34375 59.441406 -37.382812 59.296875 -37.46875 C 59.128906 -37.601562 59.046875 -37.734375 59.046875 -37.859375 C 59.046875 -37.992188 59.078125 -38.125 59.140625 -38.25 C 60.035156 -40.382812 60.75 -42.585938 61.28125 -44.859375 C 61.632812 -46.273438 61.914062 -47.71875 62.125 -49.1875 C 62.257812 -50.09375 62.128906 -51.023438 61.734375 -51.984375 C 61.347656 -53.003906 60.59375 -53.648438 59.46875 -53.921875 C 58.601562 -54.078125 57.75 -54.101562 56.90625 -54 C 56.757812 -53.976562 56.613281 -53.953125 56.46875 -53.921875 C 54.695312 -53.566406 53.015625 -53.035156 51.421875 -52.328125 C 48.640625 -51.160156 45.976562 -49.832031 43.4375 -48.34375 C 40.894531 -46.863281 38.4375 -45.296875 36.0625 -43.640625 C 25.613281 -36.273438 16.59375 -27.65625 9 -17.78125 C 7.0625 -15.382812 5.453125 -12.789062 4.171875 -10 C 3.722656 -9.019531 3.359375 -7.992188 3.078125 -6.921875 C 2.910156 -6.316406 2.820312 -5.695312 2.8125 -5.0625 C 2.769531 -2.945312 3.910156 -1.554688 6.234375 -0.890625 C 8.179688 -0.335938 10.109375 -0.160156 12.015625 -0.359375 C 13.515625 -0.472656 14.960938 -0.644531 16.359375 -0.875 C 17.015625 -0.976562 17.644531 -1.109375 18.25 -1.265625 C 27.125 -2.796875 35.320312 -5.3125 42.84375 -8.8125 C 42.96875 -8.875 43.085938 -8.929688 43.203125 -8.984375 C 43.710938 -9.265625 44.25 -9.503906 44.8125 -9.703125 C 44.957031 -9.742188 45.207031 -9.800781 45.5625 -9.875 C 45.914062 -9.957031 46.253906 -9.992188 46.578125 -9.984375 C 46.898438 -9.972656 47.117188 -9.859375 47.234375 -9.640625 C 47.285156 -9.523438 47.28125 -9.429688 47.21875 -9.359375 C 47.164062 -9.285156 47.078125 -9.226562 46.953125 -9.1875 C 46.492188 -8.96875 46.039062 -8.757812 45.59375 -8.5625 C 44.21875 -7.957031 42.851562 -7.351562 41.5 -6.75 C 33.832031 -3.40625 25.691406 -1.054688 17.078125 0.296875 C 15.296875 0.578125 13.515625 0.828125 11.734375 1.046875 C 9.722656 1.285156 7.65625 1.1875 5.53125 0.75 C 1.289062 -0.132812 -0.519531 -2.457031 0.09375 -6.21875 C 0.34375 -7.71875 0.8125 -9.140625 1.5 -10.484375 C 2.457031 -12.453125 3.5625 -14.320312 4.8125 -16.09375 C 6.0625 -17.863281 7.382812 -19.585938 8.78125 -21.265625 C 15 -28.835938 22.09375 -35.628906 30.0625 -41.640625 C 32.5 -43.453125 35 -45.1875 37.5625 -46.84375 C 40.132812 -48.507812 42.816406 -50.039062 45.609375 -51.4375 C 47.953125 -52.625 50.394531 -53.632812 52.9375 -54.46875 C 53.957031 -54.78125 54.988281 -55.019531 56.03125 -55.1875 C 56.707031 -55.300781 57.394531 -55.390625 58.09375 -55.453125 C 58.914062 -55.492188 59.75 -55.460938 60.59375 -55.359375 C 62.90625 -54.921875 64.257812 -53.648438 64.65625 -51.546875 C 64.8125 -50.617188 64.832031 -49.703125 64.71875 -48.796875 C 64.46875 -47.023438 64.078125 -45.304688 63.546875 -43.640625 C 63.023438 -41.972656 62.441406 -40.328125 61.796875 -38.703125 C 61.628906 -38.148438 61.269531 -37.753906 60.71875 -37.515625 C 60.550781 -37.460938 60.394531 -37.4375 60.25 -37.4375 Z M 60.15625 -37.421875 "/></g></g><g transform="translate(203.597943, 132.925958)"><g><path d="M 7.03125 -9.609375 C 7.34375 -10.054688 7.625 -10.320312 7.875 -10.40625 C 8.125 -10.488281 8.296875 -10.472656 8.390625 -10.359375 C 8.492188 -10.253906 8.472656 -10.078125 8.328125 -9.828125 C 7.503906 -8.441406 6.535156 -7.203125 5.421875 -6.109375 C 4.316406 -5.015625 3.109375 -4.289062 1.796875 -3.9375 C 0.492188 -3.582031 -0.421875 -4.175781 -0.953125 -5.71875 C -1.421875 -7.257812 -0.992188 -10.632812 0.328125 -15.84375 C 1.660156 -21.050781 2.695312 -25.304688 3.4375 -28.609375 C 3.5 -28.910156 3.613281 -29.175781 3.78125 -29.40625 C 4.019531 -29.726562 4.335938 -29.84375 4.734375 -29.75 C 4.867188 -29.71875 5.007812 -29.648438 5.15625 -29.546875 C 5.3125 -29.441406 5.390625 -29.222656 5.390625 -28.890625 C 2.046875 -15.054688 0.546875 -7.585938 0.890625 -6.484375 C 1.242188 -5.378906 2.019531 -5.21875 3.21875 -6 C 4.414062 -6.789062 5.3125 -7.535156 5.90625 -8.234375 C 6.507812 -8.929688 6.882812 -9.390625 7.03125 -9.609375 Z M 7.03125 -9.609375 "/></g></g><g transform="translate(212.232938, 131.52343)"><g><path d="M -0.0625 -3.125 C -1.164062 -2.945312 -1.8125 -3.429688 -2 -4.578125 C -2.21875 -5.960938 -1.703125 -8.578125 -0.453125 -12.421875 C -0.421875 -12.578125 -0.316406 -12.671875 -0.140625 -12.703125 C 0.597656 -12.816406 1.015625 -12.582031 1.109375 -12 C 1.140625 -11.800781 1.117188 -11.539062 1.046875 -11.21875 C 1.003906 -11.125 0.644531 -9.503906 -0.03125 -6.359375 C -0.144531 -5.835938 -0.179688 -5.460938 -0.140625 -5.234375 C -0.0976562 -4.972656 0.0351562 -4.863281 0.265625 -4.90625 C 1.109375 -5.039062 2.976562 -7.5 5.875 -12.28125 C 6.25 -12.914062 6.660156 -13.269531 7.109375 -13.34375 C 7.773438 -13.445312 8.144531 -13.257812 8.21875 -12.78125 C 8.25 -12.59375 8.15625 -11.859375 7.9375 -10.578125 C 7.664062 -8.828125 7.550781 -7.832031 7.59375 -7.59375 C 7.644531 -7.207031 7.789062 -7.035156 8.03125 -7.078125 C 8.675781 -7.179688 10.347656 -8.613281 13.046875 -11.375 C 13.203125 -11.550781 13.34375 -11.648438 13.46875 -11.671875 C 13.757812 -11.710938 13.945312 -11.492188 14.03125 -11.015625 C 14.039062 -10.890625 14.015625 -10.78125 13.953125 -10.6875 C 12.554688 -9.03125 11.34375 -7.742188 10.3125 -6.828125 C 9.382812 -5.992188 8.515625 -5.507812 7.703125 -5.375 L 7.453125 -5.328125 C 6.234375 -5.390625 5.492188 -6.222656 5.234375 -7.828125 C 4.140625 -6.503906 3.226562 -5.429688 2.5 -4.609375 C 1.78125 -3.785156 0.925781 -3.289062 -0.0625 -3.125 Z M -0.0625 -3.125 "/></g></g><g transform="translate(226.457319, 129.213053)"><g><path d="M 4.40625 -28.921875 C 4.4375 -29.023438 4.539062 -29.125 4.71875 -29.21875 C 4.90625 -29.3125 5.097656 -29.390625 5.296875 -29.453125 C 5.492188 -29.515625 5.671875 -29.535156 5.828125 -29.515625 C 5.984375 -29.503906 6.054688 -29.441406 6.046875 -29.328125 C 6.003906 -28.773438 5.898438 -28.226562 5.734375 -27.6875 C 5.722656 -27.601562 5.695312 -27.503906 5.65625 -27.390625 C 5.050781 -25.023438 4.429688 -22.671875 3.796875 -20.328125 C 3.691406 -19.984375 3.609375 -19.648438 3.546875 -19.328125 C 3.304688 -18.523438 3.003906 -17.550781 2.640625 -16.40625 C 2.234375 -15.1875 1.894531 -14.078125 1.625 -13.078125 C 1.945312 -13.617188 2.394531 -14.050781 2.96875 -14.375 C 3.550781 -14.695312 4 -14.882812 4.3125 -14.9375 C 5.539062 -15.113281 6.320312 -14.617188 6.65625 -13.453125 C 7.070312 -12.140625 7.046875 -10.726562 6.578125 -9.21875 C 6.117188 -7.707031 5.40625 -6.421875 4.4375 -5.359375 C 3.570312 -4.671875 2.710938 -4.289062 1.859375 -4.21875 C 1.003906 -4.15625 0.1875 -4.445312 -0.59375 -5.09375 C -0.675781 -5.082031 -0.753906 -5.03125 -0.828125 -4.9375 C -0.898438 -4.84375 -0.984375 -4.738281 -1.078125 -4.625 C -1.179688 -4.445312 -1.296875 -4.304688 -1.421875 -4.203125 C -1.515625 -4.140625 -1.625 -4.109375 -1.75 -4.109375 C -1.875 -4.117188 -1.972656 -4.140625 -2.046875 -4.171875 C -2.335938 -4.335938 -2.460938 -4.582031 -2.421875 -4.90625 C -1.859375 -7.59375 -1.144531 -10.414062 -0.28125 -13.375 C 0.582031 -16.34375 1.460938 -19.234375 2.359375 -22.046875 C 2.710938 -23.304688 3.070312 -24.523438 3.4375 -25.703125 C 3.59375 -26.171875 3.734375 -26.648438 3.859375 -27.140625 C 4.035156 -27.722656 4.21875 -28.316406 4.40625 -28.921875 Z M 2.609375 -12.515625 C 1.804688 -11.734375 1.160156 -10.832031 0.671875 -9.8125 C 0.179688 -8.800781 0.113281 -7.800781 0.46875 -6.8125 C 0.65625 -6.238281 0.957031 -5.863281 1.375 -5.6875 C 1.789062 -5.507812 2.21875 -5.664062 2.65625 -6.15625 C 3.09375 -6.71875 3.503906 -7.398438 3.890625 -8.203125 C 4.273438 -9.003906 4.566406 -9.832031 4.765625 -10.6875 C 4.878906 -11.445312 4.921875 -12.09375 4.890625 -12.625 C 4.859375 -13.164062 4.664062 -13.460938 4.3125 -13.515625 C 3.957031 -13.578125 3.390625 -13.242188 2.609375 -12.515625 Z M 2.609375 -12.515625 "/></g></g></g><g fill="#000000" fill-opacity="1"><g transform="translate(60.269955, 100.948907)"><g><path d="M 127.734375 -24.984375 C 126.804688 -24.890625 125.867188 -24.804688 124.921875 -24.734375 C 124.054688 -24.648438 123.1875 -24.570312 122.3125 -24.5 C 116.019531 -23.84375 109.753906 -23 103.515625 -21.96875 C 96.347656 -20.832031 89.191406 -19.472656 82.046875 -17.890625 C 80.804688 -17.617188 79.65625 -17.117188 78.59375 -16.390625 C 70.082031 -10.710938 61.300781 -5.609375 52.25 -1.078125 C 43.195312 3.453125 33.910156 7.503906 24.390625 11.078125 C 20.234375 12.710938 16 14.082031 11.6875 15.1875 C 9.707031 15.707031 7.6875 16.035156 5.625 16.171875 C 5.351562 16.191406 5.082031 16.203125 4.8125 16.203125 C 3.882812 16.242188 3.003906 16.097656 2.171875 15.765625 C 0.859375 15.191406 0.460938 14.238281 0.984375 12.90625 C 1.390625 11.957031 1.988281 11.117188 2.78125 10.390625 C 4.320312 8.878906 6.03125 7.582031 7.90625 6.5 C 12.507812 3.78125 17.28125 1.382812 22.21875 -0.6875 C 27.101562 -2.789062 32.054688 -4.726562 37.078125 -6.5 C 37.210938 -6.519531 37.335938 -6.5625 37.453125 -6.625 C 37.609375 -6.695312 37.785156 -6.765625 37.984375 -6.828125 C 38.710938 -7.035156 39.195312 -7.519531 39.4375 -8.28125 C 39.875 -9.414062 40.328125 -10.546875 40.796875 -11.671875 C 40.867188 -11.859375 40.945312 -12.0625 41.03125 -12.28125 C 42.0625 -14.820312 43.101562 -17.382812 44.15625 -19.96875 C 46.144531 -24.820312 48.125 -29.691406 50.09375 -34.578125 C 51.40625 -37.648438 52.457031 -40.8125 53.25 -44.0625 C 53.300781 -44.363281 53.394531 -44.660156 53.53125 -44.953125 C 53.769531 -45.316406 54.09375 -45.441406 54.5 -45.328125 C 54.664062 -45.378906 54.847656 -45.378906 55.046875 -45.328125 C 55.203125 -45.304688 55.332031 -45.238281 55.4375 -45.125 C 55.539062 -45.007812 55.59375 -44.875 55.59375 -44.71875 C 55.632812 -44.226562 55.609375 -43.753906 55.515625 -43.296875 C 54.929688 -40.421875 54.050781 -37.625 52.875 -34.90625 C 50.863281 -30.019531 48.84375 -25.125 46.8125 -20.21875 C 46 -18.207031 45.171875 -16.195312 44.328125 -14.1875 C 44.171875 -13.800781 44.007812 -13.421875 43.84375 -13.046875 C 43.351562 -11.828125 42.847656 -10.59375 42.328125 -9.34375 C 42.304688 -9.289062 42.296875 -9.253906 42.296875 -9.234375 C 42.210938 -9.097656 42.160156 -8.96875 42.140625 -8.84375 C 42.128906 -8.71875 42.191406 -8.597656 42.328125 -8.484375 C 42.359375 -8.460938 42.398438 -8.441406 42.453125 -8.421875 C 42.503906 -8.441406 42.570312 -8.460938 42.65625 -8.484375 C 42.6875 -8.484375 42.710938 -8.484375 42.734375 -8.484375 C 44.015625 -8.898438 45.28125 -9.3125 46.53125 -9.71875 C 48.75 -10.445312 50.957031 -11.164062 53.15625 -11.875 C 60.976562 -14.28125 68.863281 -16.382812 76.8125 -18.1875 C 77.757812 -18.394531 78.625 -18.769531 79.40625 -19.3125 C 81.664062 -20.914062 83.882812 -22.554688 86.0625 -24.234375 C 88.25 -25.921875 90.347656 -27.703125 92.359375 -29.578125 C 94.554688 -31.554688 96.546875 -33.742188 98.328125 -36.140625 C 99.390625 -37.515625 100.191406 -39.039062 100.734375 -40.71875 C 101.472656 -43.300781 101 -45.570312 99.3125 -47.53125 C 98.695312 -48.257812 98 -48.878906 97.21875 -49.390625 C 96.445312 -49.910156 95.628906 -50.363281 94.765625 -50.75 C 91.804688 -52.019531 88.722656 -52.832031 85.515625 -53.1875 C 82.722656 -53.53125 79.925781 -53.703125 77.125 -53.703125 C 74.570312 -53.703125 72.023438 -53.597656 69.484375 -53.390625 C 62.941406 -52.878906 56.46875 -51.890625 50.0625 -50.421875 C 45.695312 -49.460938 41.414062 -48.273438 37.21875 -46.859375 C 33.03125 -45.453125 28.957031 -43.675781 25 -41.53125 C 23.53125 -40.78125 22.109375 -39.957031 20.734375 -39.0625 C 19.367188 -38.164062 18.0625 -37.191406 16.8125 -36.140625 C 15.863281 -35.253906 14.984375 -34.328125 14.171875 -33.359375 C 13.566406 -32.703125 13.128906 -31.941406 12.859375 -31.078125 C 12.421875 -29.742188 12.710938 -28.601562 13.734375 -27.65625 C 14.347656 -27.0625 15.0625 -26.617188 15.875 -26.328125 C 17.257812 -25.742188 18.695312 -25.40625 20.1875 -25.3125 C 20.976562 -25.25 21.78125 -25.207031 22.59375 -25.1875 C 23.675781 -25.132812 24.757812 -25.078125 25.84375 -25.015625 C 26.71875 -24.960938 27.578125 -24.878906 28.421875 -24.765625 C 28.523438 -24.742188 28.617188 -24.691406 28.703125 -24.609375 C 28.785156 -24.535156 28.851562 -24.441406 28.90625 -24.328125 C 28.925781 -24.109375 28.867188 -23.960938 28.734375 -23.890625 C 28.597656 -23.828125 28.460938 -23.804688 28.328125 -23.828125 L 28.078125 -23.828125 C 28.003906 -23.828125 27.925781 -23.828125 27.84375 -23.828125 C 27.050781 -23.867188 26.28125 -23.890625 25.53125 -23.890625 C 25.28125 -23.890625 25.035156 -23.890625 24.796875 -23.890625 C 24.410156 -23.890625 24.015625 -23.890625 23.609375 -23.890625 L 23.578125 -23.890625 C 22.460938 -23.890625 21.363281 -23.910156 20.28125 -23.953125 C 19.195312 -24.003906 18.109375 -24.140625 17.015625 -24.359375 C 15.796875 -24.628906 14.613281 -25.039062 13.46875 -25.59375 C 12.851562 -25.882812 12.273438 -26.242188 11.734375 -26.671875 C 10.097656 -28.035156 9.691406 -29.734375 10.515625 -31.765625 C 11.078125 -33.097656 11.890625 -34.269531 12.953125 -35.28125 C 14.328125 -36.707031 15.84375 -38 17.5 -39.15625 C 22 -42.238281 26.789062 -44.726562 31.875 -46.625 C 35.96875 -48.195312 40.125 -49.519531 44.34375 -50.59375 C 48.5625 -51.664062 52.832031 -52.554688 57.15625 -53.265625 C 63.800781 -54.429688 70.488281 -55.03125 77.21875 -55.0625 C 77.425781 -55.0625 77.644531 -55.0625 77.875 -55.0625 C 80.425781 -55.0625 82.96875 -54.929688 85.5 -54.671875 C 88.039062 -54.410156 90.539062 -53.929688 93 -53.234375 C 95.039062 -52.660156 96.972656 -51.84375 98.796875 -50.78125 C 99.742188 -50.21875 100.59375 -49.539062 101.34375 -48.75 C 103.851562 -46.144531 104.453125 -43.101562 103.140625 -39.625 C 102.546875 -38.082031 101.734375 -36.644531 100.703125 -35.3125 C 98.804688 -32.8125 96.691406 -30.519531 94.359375 -28.4375 C 91.503906 -25.851562 88.53125 -23.421875 85.4375 -21.140625 C 85.351562 -21.066406 85.242188 -21 85.109375 -20.9375 C 84.941406 -20.832031 84.78125 -20.710938 84.625 -20.578125 C 84.46875 -20.441406 84.359375 -20.253906 84.296875 -20.015625 C 84.398438 -19.929688 84.5 -19.890625 84.59375 -19.890625 C 84.726562 -19.910156 84.863281 -19.9375 85 -19.96875 C 85.132812 -20.03125 85.269531 -20.070312 85.40625 -20.09375 C 93.40625 -21.71875 101.429688 -23.0625 109.484375 -24.125 C 113.367188 -24.601562 117.238281 -25.046875 121.09375 -25.453125 C 122.425781 -25.585938 123.742188 -25.722656 125.046875 -25.859375 C 125.503906 -25.921875 125.976562 -25.953125 126.46875 -25.953125 C 126.925781 -25.984375 127.382812 -25.941406 127.84375 -25.828125 C 127.90625 -25.804688 127.960938 -25.757812 128.015625 -25.6875 C 128.078125 -25.625 128.109375 -25.566406 128.109375 -25.515625 C 128.128906 -25.335938 128.097656 -25.207031 128.015625 -25.125 C 127.941406 -25.050781 127.847656 -25.003906 127.734375 -24.984375 Z M 35.375 4.734375 C 35.375 4.734375 35.382812 4.734375 35.40625 4.734375 C 35.601562 4.648438 35.785156 4.539062 35.953125 4.40625 C 36.128906 4.269531 36.25 4.082031 36.3125 3.84375 C 36.25 3.84375 36.207031 3.84375 36.1875 3.84375 C 35.644531 3.875 35.300781 3.804688 35.15625 3.640625 C 35.007812 3.472656 35.003906 3.160156 35.140625 2.703125 C 35.210938 2.398438 35.316406 2.101562 35.453125 1.8125 C 35.484375 1.726562 35.515625 1.660156 35.546875 1.609375 C 35.753906 1.066406 35.957031 0.535156 36.15625 0.015625 C 36.632812 -1.148438 37.097656 -2.332031 37.546875 -3.53125 C 37.566406 -3.582031 37.601562 -3.648438 37.65625 -3.734375 C 37.738281 -3.921875 37.789062 -4.101562 37.8125 -4.28125 C 37.84375 -4.457031 37.800781 -4.640625 37.6875 -4.828125 C 37.664062 -4.828125 37.640625 -4.828125 37.609375 -4.828125 C 37.472656 -4.804688 37.351562 -4.765625 37.25 -4.703125 C 37.164062 -4.671875 37.097656 -4.644531 37.046875 -4.625 C 33.597656 -3.375 30.191406 -2.054688 26.828125 -0.671875 C 23.460938 0.710938 20.140625 2.21875 16.859375 3.84375 C 14.191406 5.113281 11.613281 6.539062 9.125 8.125 C 7.675781 8.988281 6.363281 10.019531 5.1875 11.21875 C 4.53125 11.800781 4.035156 12.515625 3.703125 13.359375 C 3.597656 13.628906 3.601562 13.882812 3.71875 14.125 C 3.84375 14.375 4.054688 14.546875 4.359375 14.640625 C 4.710938 14.734375 5.078125 14.78125 5.453125 14.78125 C 5.859375 14.78125 6.265625 14.742188 6.671875 14.671875 C 9.304688 14.203125 11.910156 13.546875 14.484375 12.703125 C 20.085938 10.921875 25.601562 8.890625 31.03125 6.609375 C 32.476562 6.015625 33.925781 5.390625 35.375 4.734375 Z M 73.03125 -15.078125 C 73.050781 -15.140625 73.09375 -15.179688 73.15625 -15.203125 C 73.25 -15.253906 73.320312 -15.320312 73.375 -15.40625 C 73.4375 -15.5 73.429688 -15.625 73.359375 -15.78125 C 73.222656 -15.757812 73.066406 -15.71875 72.890625 -15.65625 C 71.984375 -15.40625 71.078125 -15.175781 70.171875 -14.96875 C 67.703125 -14.3125 65.25 -13.644531 62.8125 -12.96875 C 56.03125 -11.070312 49.300781 -8.96875 42.625 -6.65625 C 42.039062 -6.476562 41.554688 -6.222656 41.171875 -5.890625 C 40.785156 -5.566406 40.503906 -5.101562 40.328125 -4.5 C 40.234375 -4.195312 40.117188 -3.898438 39.984375 -3.609375 C 39.898438 -3.472656 39.832031 -3.335938 39.78125 -3.203125 C 39.601562 -2.796875 39.332031 -2.226562 38.96875 -1.5 C 38.582031 -0.757812 38.195312 0.015625 37.8125 0.828125 C 37.4375 1.640625 37.171875 2.335938 37.015625 2.921875 C 36.867188 3.503906 36.929688 3.835938 37.203125 3.921875 C 37.585938 3.835938 37.941406 3.691406 38.265625 3.484375 C 38.421875 3.390625 38.585938 3.304688 38.765625 3.234375 C 46.109375 0.00390625 53.296875 -3.578125 60.328125 -7.515625 C 63.117188 -9.117188 65.882812 -10.742188 68.625 -12.390625 C 69.820312 -13.128906 71.015625 -13.851562 72.203125 -14.5625 C 72.234375 -14.582031 72.257812 -14.59375 72.28125 -14.59375 C 72.550781 -14.726562 72.800781 -14.890625 73.03125 -15.078125 Z M 73.03125 -15.078125 "/></g></g></g></svg>