<svg width="321" height="218" viewBox="0 0 321 218" fill="none" xmlns="http://www.w3.org/2000/svg">
<path d="M150.52 62.3465C149.395 62.6278 148.25 62.9038 147.083 63.1799C146.01 63.4715 144.942 63.7528 143.875 64.0132C136.151 66.0965 128.51 68.4247 120.958 70.9924C112.25 73.857 103.604 76.9924 95.0204 80.409C93.5204 81.008 92.1767 81.8622 90.9996 82.9715C81.5413 91.7632 71.6298 99.909 61.2704 107.409C50.9059 114.899 40.1506 121.826 28.9996 128.201C24.135 131.076 19.1454 133.638 14.0204 135.888C11.6298 136.93 9.17148 137.742 6.64544 138.326C6.3121 138.419 5.97877 138.498 5.64544 138.555C4.47877 138.789 3.33814 138.789 2.22877 138.555C0.489186 138.097 -0.187897 136.992 0.187103 135.242C0.504811 133.977 1.08294 132.805 1.91627 131.722C3.52564 129.524 5.39544 127.56 7.52044 125.826C12.7131 121.503 18.1767 117.565 23.9163 113.992C29.5829 110.367 35.3642 106.946 41.2704 103.722C41.4371 103.669 41.5829 103.586 41.7079 103.472C41.885 103.362 42.0934 103.242 42.3329 103.117C43.1923 102.716 43.6975 102.013 43.8538 101.013C44.1559 99.5028 44.4892 98.0028 44.8538 96.5132C44.9059 96.2528 44.9684 95.982 45.0413 95.7007C45.8017 92.3257 46.5725 88.9299 47.3538 85.5132C48.8538 79.0445 50.3381 72.5653 51.8121 66.0757C52.8121 61.982 53.4788 57.8257 53.8121 53.6174C53.7965 53.232 53.8538 52.8413 53.9788 52.4507C54.2131 51.9507 54.5881 51.732 55.1038 51.784C55.3121 51.7007 55.5413 51.6695 55.7913 51.6799C55.9996 51.6799 56.1715 51.7424 56.3121 51.8674C56.4631 51.982 56.5517 52.133 56.5829 52.3257C56.7496 52.9247 56.8173 53.5132 56.7913 54.0965C56.635 57.8205 56.109 61.4872 55.2079 65.0965C53.6923 71.5965 52.1559 78.1122 50.6038 84.6382C50.0048 87.3049 49.3798 89.982 48.7288 92.659C48.6142 93.1747 48.4996 93.6799 48.3746 94.1799C47.9996 95.8049 47.6142 97.4507 47.2288 99.1174C47.2131 99.1747 47.2079 99.2163 47.2079 99.2424C47.1246 99.4403 47.0881 99.6174 47.1038 99.784C47.1142 99.9403 47.2131 100.071 47.3954 100.18C47.4371 100.196 47.4996 100.216 47.5829 100.242C47.6506 100.201 47.7288 100.154 47.8121 100.097C47.8381 100.097 47.8642 100.097 47.8954 100.097C49.4215 99.3205 50.9215 98.5549 52.3954 97.8049C55.0204 96.4299 57.6246 95.0757 60.2079 93.7424C69.4579 89.1747 78.8642 84.9507 88.4371 81.0757C89.5725 80.6486 90.5725 80.008 91.4371 79.159C93.9215 76.7007 96.3538 74.2111 98.7288 71.6799C101.114 69.1382 103.38 66.4924 105.52 63.7424C107.854 60.8413 109.885 57.7163 111.625 54.3674C112.677 52.4403 113.364 50.3674 113.687 48.159C114.088 44.7997 113.041 42.0705 110.541 39.9715C109.625 39.1799 108.625 38.5445 107.541 38.0549C106.468 37.5705 105.364 37.1799 104.229 36.8882C100.27 35.8882 96.2548 35.4924 92.1871 35.7007C88.6298 35.8413 85.109 36.1903 81.6246 36.7424C78.4423 37.2736 75.2913 37.9247 72.1663 38.7007C64.109 40.659 56.2392 43.2111 48.5621 46.3465C43.3121 48.4038 38.2131 50.7372 33.2704 53.3465C28.3225 55.9611 23.5934 59.008 19.0829 62.4924C17.4163 63.7163 15.8173 65.0288 14.2913 66.4299C12.76 67.8205 11.3381 69.2997 10.0204 70.8674C9.00481 72.1486 8.08814 73.482 7.27044 74.8674C6.64544 75.7997 6.2496 76.8361 6.08294 77.9715C5.80169 79.7215 6.39544 81.0913 7.85377 82.0757C8.75481 82.6903 9.73919 83.0965 10.8121 83.3049C12.6559 83.7528 14.5204 83.883 16.3954 83.7007C17.3798 83.607 18.3798 83.5028 19.3954 83.3882C20.7704 83.2215 22.1454 83.0705 23.5204 82.9299C24.6142 82.8049 25.6975 82.7215 26.7704 82.6799C26.9215 82.6799 27.0465 82.732 27.1454 82.8257C27.2548 82.909 27.359 83.0132 27.4579 83.1382C27.5256 83.4195 27.484 83.6174 27.3329 83.7424C27.1767 83.857 27.01 83.9038 26.8329 83.8882L26.5413 83.9299C26.4423 83.9455 26.3381 83.9611 26.2288 83.9715C25.2392 84.0965 24.2809 84.2372 23.3538 84.3882C23.0309 84.4455 22.7288 84.4924 22.4371 84.534C21.9475 84.6174 21.4475 84.7007 20.9371 84.784H20.9163C19.5256 85.008 18.1454 85.2007 16.7704 85.3674C15.4059 85.5236 14.0309 85.5705 12.6454 85.5132C11.0621 85.4038 9.4996 85.133 7.95794 84.7007C7.1246 84.4507 6.33294 84.1174 5.58294 83.7007C3.27564 82.3413 2.42148 80.3049 3.02044 77.5965C3.46314 75.8205 4.23919 74.1955 5.35377 72.7215C6.78085 70.6538 8.41627 68.7424 10.2496 66.9924C15.234 62.2163 20.6975 58.1382 26.6454 54.7632C31.4371 51.9455 36.3538 49.4455 41.3954 47.2632C46.4371 45.0861 51.5725 43.1174 56.8121 41.3674C64.8538 38.5497 73.0673 36.4455 81.4579 35.0549C81.734 35.0028 82.01 34.9507 82.2913 34.909C85.4684 34.3986 88.6663 34.0497 91.8746 33.8674C95.0829 33.6747 98.2965 33.7632 101.52 34.1382C104.171 34.4455 106.739 35.0705 109.229 36.0132C110.531 36.5288 111.734 37.2007 112.833 38.034C116.484 40.7736 117.843 44.4455 116.916 49.0549C116.484 51.0861 115.76 53.034 114.75 54.909C112.875 58.4247 110.698 61.7111 108.229 64.7632C105.187 68.5705 101.963 72.2111 98.5621 75.6799C98.4892 75.7788 98.3642 75.8778 98.1871 75.9715C98.0204 76.1382 97.8538 76.3257 97.6871 76.534C97.5204 76.7424 97.4163 77.0028 97.3746 77.3049C97.5413 77.3882 97.6767 77.4247 97.7913 77.409C97.9267 77.357 98.0881 77.2997 98.2704 77.2424C98.4215 77.133 98.5829 77.0497 98.7496 76.9924C108.401 73.3413 118.135 70.034 127.958 67.0757C132.718 65.6903 137.458 64.357 142.166 63.0757C143.791 62.633 145.406 62.1955 147.02 61.7632C147.562 61.5861 148.145 61.4455 148.77 61.3465C149.323 61.2215 149.901 61.1903 150.5 61.2424C150.583 61.2736 150.666 61.3205 150.75 61.3882C150.833 61.4611 150.88 61.5236 150.895 61.5757C150.948 61.7997 150.937 61.9715 150.854 62.0965C150.77 62.2111 150.656 62.2945 150.52 62.3465ZM41.3954 118.055C41.3954 118.055 41.4163 118.055 41.4579 118.055C41.6923 117.904 41.9006 117.732 42.0829 117.534C42.2756 117.341 42.385 117.086 42.4163 116.763C42.3329 116.779 42.2756 116.784 42.2496 116.784C41.5673 116.94 41.1246 116.925 40.9163 116.742C40.7079 116.55 40.6298 116.169 40.6871 115.597C40.7288 115.196 40.8017 114.8 40.9163 114.409C40.9267 114.3 40.9579 114.216 40.9996 114.159C41.1506 113.409 41.2965 112.701 41.4371 112.034C41.7809 110.482 42.1246 108.909 42.4579 107.326C42.4684 107.258 42.4892 107.159 42.5204 107.034C42.5881 106.8 42.6246 106.571 42.6246 106.347C42.6246 106.112 42.5309 105.888 42.3538 105.68C42.3121 105.68 42.2756 105.68 42.2496 105.68C42.109 105.753 41.9684 105.836 41.8329 105.93C41.7496 105.972 41.6663 106.024 41.5829 106.076C37.5413 108.315 33.5621 110.638 29.6454 113.055C25.7392 115.461 21.9059 118.008 18.1454 120.701C15.0725 122.826 12.1506 125.123 9.3746 127.597C7.76002 128.972 6.33294 130.524 5.08294 132.263C4.40064 133.138 3.92669 134.128 3.66627 135.242C3.59335 135.586 3.65585 135.899 3.85377 136.18C4.0621 136.472 4.36419 136.643 4.77044 136.701C5.21314 136.742 5.67669 136.722 6.16627 136.638C6.66627 136.555 7.16627 136.419 7.66627 136.242C10.8434 135.143 13.9579 133.81 16.9996 132.242C23.5934 128.878 30.0517 125.222 36.3746 121.263C38.0673 120.248 39.7392 119.18 41.3954 118.055ZM84.3329 85.7424C84.359 85.659 84.4059 85.5965 84.4788 85.5549C84.5881 85.4872 84.6663 85.3882 84.7079 85.2632C84.76 85.1382 84.7288 84.982 84.6038 84.784C84.4475 84.857 84.2704 84.9455 84.0621 85.0549C82.9788 85.5549 81.8954 86.0288 80.8121 86.4715C77.8642 87.7788 74.9423 89.107 72.0413 90.4507C63.9684 94.1747 56.0048 98.1538 48.1454 102.388C47.4475 102.737 46.8954 103.154 46.4788 103.638C46.0621 104.112 45.8017 104.753 45.7079 105.555C45.6506 105.93 45.5725 106.321 45.4788 106.722C45.3954 106.93 45.3329 107.117 45.2913 107.284C45.1663 107.826 44.9371 108.586 44.6038 109.555C44.2809 110.555 43.9684 111.607 43.6663 112.701C43.359 113.784 43.1715 114.711 43.1038 115.472C43.0309 116.222 43.1767 116.628 43.5413 116.68C43.984 116.503 44.385 116.242 44.7496 115.909C44.9423 115.774 45.135 115.633 45.3329 115.492C53.8329 109.982 62.0673 104.071 70.0413 97.7632C73.1923 95.1955 76.3121 92.607 79.3954 89.9924C80.7392 88.8257 82.0829 87.6747 83.4163 86.534C83.4423 86.508 83.4684 86.4924 83.4996 86.4924C83.8173 86.284 84.0934 86.034 84.3329 85.7424Z" fill="black"/>
<path d="M100.839 96.7214L100.776 96.7422C98.5365 97.0755 96.9948 96.8255 96.1302 95.9922C95.2708 95.1484 95.0885 93.862 95.5885 92.138C96.0469 90.8047 96.6927 89.612 97.526 88.5547C97.8177 88.1953 98.1198 87.888 98.4427 87.638C98.7604 87.388 99.151 87.2318 99.6094 87.1589C99.8594 87.0755 100.161 87.0755 100.526 87.1589C100.651 87.1745 100.76 87.1953 100.859 87.2214C101.109 87.138 101.344 87.013 101.568 86.8464C101.635 86.7943 101.719 86.7422 101.818 86.7005C102.302 86.4245 102.823 86.2526 103.38 86.1797C103.615 86.138 103.859 86.0964 104.109 86.0547C105.036 86.0547 105.781 86.3255 106.339 86.8672C106.891 87.4089 107.177 88.1484 107.193 89.0755C107.203 89.6172 107.12 90.1536 106.943 90.6797C105.693 94.1276 103.703 96.1328 100.984 96.7005L100.839 96.7214ZM103.151 87.9089C101.927 88.0495 100.901 88.5703 100.068 89.4714C99.2448 90.362 98.6823 91.3255 98.3802 92.3672C98.0885 93.4089 98.0938 94.2318 98.401 94.8255C98.7031 95.4089 99.3698 95.487 100.401 95.0547C101.568 94.4714 102.531 93.6068 103.297 92.4505C104.057 91.2839 104.469 90.2318 104.526 89.2839C104.594 88.3411 104.135 87.8828 103.151 87.9089Z" fill="black"/>
<path d="M119.687 88.0035C120.104 87.4098 120.479 87.0556 120.812 86.941C121.146 86.8317 121.375 86.8525 121.5 87.0035C121.635 87.1598 121.609 87.3942 121.416 87.7119C120.317 89.5608 119.026 91.2119 117.541 92.6702C116.067 94.1285 114.458 95.1025 112.708 95.5869C110.969 96.0608 109.75 95.264 109.041 93.191C108.416 91.139 108.995 86.6442 110.771 79.7119C112.547 72.7692 113.916 67.0973 114.875 62.691C114.958 62.3056 115.125 61.9514 115.375 61.6285C115.677 61.2014 116.104 61.0452 116.646 61.1702C116.812 61.2119 116.989 61.3056 117.187 61.441C117.396 61.5817 117.5 61.8733 117.5 62.316C113.041 80.764 111.047 90.7223 111.521 92.191C111.989 93.665 113.021 93.8733 114.604 92.816C116.198 91.764 117.396 90.7692 118.187 89.8369C118.989 88.9098 119.489 88.2952 119.687 88.0035Z" fill="black"/>
<path d="M131.194 86.1349C131.611 85.5411 131.986 85.187 132.319 85.0724C132.652 84.963 132.882 84.9838 133.007 85.1349C133.142 85.2911 133.116 85.5255 132.923 85.8432C131.824 87.6922 130.533 89.3432 129.048 90.8015C127.574 92.2599 125.965 93.2338 124.215 93.7182C122.475 94.1922 121.257 93.3953 120.548 91.3224C119.923 89.2703 120.501 84.7755 122.277 77.8432C124.053 70.9005 125.423 65.2286 126.382 60.8224C126.465 60.437 126.632 60.0828 126.882 59.7599C127.184 59.3328 127.611 59.1765 128.152 59.3015C128.319 59.3432 128.496 59.437 128.694 59.5724C128.902 59.713 129.007 60.0047 129.007 60.4474C124.548 78.8953 122.553 88.8536 123.027 90.3224C123.496 91.7963 124.527 92.0047 126.111 90.9474C127.705 89.8953 128.902 88.9005 129.694 87.9682C130.496 87.0411 130.996 86.4265 131.194 86.1349Z" fill="black"/>
<path d="M148.138 82.62C148.539 82.7606 148.649 83.2554 148.472 84.0992C148.123 84.7658 147.732 85.4012 147.305 85.995C146.888 86.5783 146.409 87.12 145.868 87.62C145.826 87.6356 145.805 87.6564 145.805 87.6825C145.456 88.0054 145.076 88.3023 144.659 88.5783C141.201 90.495 139.201 90.0314 138.659 87.1825C137.368 88.7137 136.498 89.6617 136.055 90.0367C134.94 90.9533 133.67 91.4846 132.243 91.62C131.201 91.745 130.446 91.5523 129.972 91.0367C129.503 90.5262 129.404 89.7398 129.68 88.6825C130.128 87.0158 130.868 85.4742 131.909 84.0575C133.133 82.4637 134.576 81.1148 136.243 80.0158C137.118 79.3908 138.086 79.0471 139.159 78.9742C140.201 78.8492 140.914 79.3387 141.305 80.4325C141.456 80.7658 141.435 81.0887 141.243 81.3908C140.935 81.7554 140.539 81.8856 140.055 81.7867C140.024 81.7867 139.982 81.7867 139.93 81.7867C139.873 81.7867 139.831 81.7762 139.805 81.745C139.263 81.1929 138.769 81.0054 138.326 81.1825C137.894 81.3492 137.44 81.6356 136.972 82.0367C134.831 83.8023 133.394 86.0106 132.659 88.6617C132.618 88.7867 132.607 88.9221 132.618 89.0575C132.618 89.1825 132.675 89.2814 132.784 89.3492C133.05 89.3908 133.336 89.3231 133.659 89.1408C133.977 88.9481 134.284 88.6981 134.576 88.3908C134.878 88.0731 135.138 87.8179 135.347 87.62C135.357 87.5783 135.368 87.5575 135.368 87.5575C136.336 86.4325 137.289 85.2867 138.222 84.12C138.607 83.5262 139.149 83.1408 139.847 82.9742C140.857 82.8075 141.357 83.1929 141.347 84.12C141.305 84.4846 141.253 84.8439 141.201 85.2033C141.034 86.7189 141.149 87.5783 141.555 87.7867C141.972 87.9846 142.539 87.8908 143.263 87.5158C143.982 87.1304 144.664 86.5158 145.305 85.6825C145.956 84.8387 146.493 84.0783 146.909 83.4117C147.336 82.7346 147.748 82.4689 148.138 82.62Z" fill="black"/>
<path d="M157.364 78.637C157.405 79.7203 157.02 80.4911 156.218 80.9495C155.426 81.4078 155.077 81.0328 155.176 79.8245C155.27 78.6161 154.697 78.4078 153.447 79.1995C152.197 79.9807 151.202 80.8818 150.468 81.9078C149.327 83.5068 148.374 85.1943 147.593 86.9703C147.499 87.137 147.437 87.2724 147.405 87.3661C147.155 87.8557 146.921 88.3349 146.697 88.8036C146.53 89.0953 146.317 89.2984 146.051 89.4078C145.791 89.5224 145.525 89.5693 145.26 89.5536C144.984 89.5693 144.77 89.512 144.614 89.387C144.447 89.2516 144.395 89.0536 144.447 88.8036C144.562 88.3349 144.697 87.8766 144.864 87.4286C145.822 84.637 146.812 81.8349 147.822 79.012C147.838 78.9859 147.843 78.9599 147.843 78.9286C147.984 78.4859 148.155 78.0693 148.364 77.6786C148.614 77.2932 148.947 77.0953 149.364 77.0953C149.78 77.0953 150.093 77.2932 150.301 77.6786C150.551 78.1943 150.744 78.4807 150.885 78.5328C151.02 78.5901 151.286 78.5016 151.676 78.262C152.562 77.762 153.431 77.3766 154.28 77.0953C155.124 76.8036 155.843 76.7203 156.426 76.8453C157.02 76.9599 157.333 77.5536 157.364 78.637Z" fill="black"/>
<path d="M285.909 3.97423C286.368 4.2659 286.79 4.59403 287.18 4.9534C287.566 5.31798 287.857 5.78153 288.055 6.34923C288.264 6.98986 288.102 7.5159 287.576 7.93257C287.284 8.15653 286.962 8.23465 286.618 8.16173C286.269 8.09403 285.998 7.88569 285.805 7.53673C285.274 6.59403 284.587 5.88569 283.743 5.41173C282.894 4.94298 281.998 4.54715 281.055 4.22423C278.956 3.53153 276.826 3.03153 274.659 2.72423C272.493 2.42215 270.326 2.21382 268.159 2.09923C264.545 1.92215 259.816 2.19298 253.972 2.91173C248.139 3.62007 241.691 4.75549 234.639 6.30757C227.581 7.84923 220.415 9.79715 213.139 12.1409C205.857 14.4742 198.972 17.193 192.472 20.2867C185.982 23.3701 180.399 26.8024 175.722 30.5784C171.045 34.3597 167.753 38.4534 165.847 42.8701C164.305 46.693 164.482 50.4274 166.368 54.0784C167.732 56.5784 169.446 58.7763 171.514 60.6617C174.613 63.469 177.936 65.9742 181.493 68.1826C184.519 70.1722 187.561 72.1357 190.618 74.0784C193.602 75.969 196.597 77.8857 199.597 79.8284C202.93 82.0263 206.227 84.2607 209.493 86.5367C209.795 86.7763 210.107 86.9847 210.43 87.1617C212.18 88.344 213.769 89.6982 215.201 91.2242C216.701 93.0159 217.17 94.5055 216.618 95.7034C216.061 96.9117 214.79 97.8701 212.805 98.5784C210.831 99.2972 208.477 99.8076 205.743 100.099C203.019 100.391 200.232 100.495 197.389 100.412C194.555 100.328 192.014 100.084 189.764 99.6826C187.524 99.2919 185.909 98.7763 184.909 98.1409C182.894 96.8076 182.498 95.0992 183.722 93.0159C185.066 90.9013 186.857 89.2347 189.097 87.9951C192.305 86.1097 195.748 85.4326 199.43 85.9742C200.149 86.1149 200.852 86.3388 201.534 86.6409C201.587 86.6722 201.649 86.7034 201.722 86.7451C201.899 86.8024 202.034 86.9222 202.118 87.0992C202.212 87.2659 202.222 87.469 202.139 87.7034C201.915 88.094 201.587 88.2555 201.159 88.1826C200.753 88.0992 200.368 87.9847 199.993 87.8284C197.368 87.0263 194.826 87.1826 192.368 88.3076C189.909 89.4326 187.972 91.1722 186.555 93.5367C185.956 94.6722 186.061 95.5628 186.868 96.2034C187.67 96.8544 188.831 97.3336 190.347 97.6409C191.857 97.943 193.357 98.1253 194.847 98.1826C196.331 98.2503 197.436 98.2867 198.159 98.2867C198.295 98.2555 198.399 98.2659 198.472 98.3076C198.607 98.2763 198.784 98.2659 198.993 98.2659C199.92 98.3076 201.191 98.3076 202.805 98.2659C204.415 98.2347 206.066 98.1253 207.764 97.9326C209.456 97.7503 210.873 97.4117 212.014 96.9117C213.165 96.4117 213.748 95.7086 213.764 94.8076C213.774 93.9013 212.899 92.7138 211.139 91.2451C209.248 89.6617 207.284 88.1565 205.243 86.7242C200.144 83.1722 194.956 79.7815 189.68 76.5576C187.774 75.3232 185.873 74.094 183.972 72.8701C180.79 70.8284 177.659 68.7242 174.576 66.5576C171.701 64.5576 169.087 62.2763 166.722 59.7034C165.045 57.8284 163.738 55.7242 162.805 53.3909C161.337 49.5888 161.467 45.818 163.201 42.0784C165.092 37.9274 168.175 34.0263 172.451 30.3701C176.717 26.7034 181.795 23.344 187.701 20.2867C193.602 17.2347 199.977 14.4951 206.826 12.0784C213.686 9.66173 220.67 7.60965 227.784 5.91173C234.909 4.2034 241.79 2.90132 248.43 1.99507C255.066 1.09403 261.128 0.620068 266.618 0.578401C272.102 0.536734 276.68 0.974234 280.347 1.8909C282.29 2.28153 284.144 2.97423 285.909 3.97423Z" fill="black"/>
<path d="M219.149 73.1618C218.492 74.2608 217.669 75.3076 216.669 76.3076C215.68 77.3076 214.503 78.0681 213.128 78.5785C211.763 79.0941 210.659 79.1722 209.794 78.8076C208.919 78.4483 208.586 77.3858 208.794 75.6201C209.128 73.7608 209.701 71.9535 210.503 70.2035C210.701 69.8285 211.024 69.5316 211.482 69.3076C211.8 69.1722 212.097 69.1774 212.378 69.3285C212.669 69.4847 212.8 69.7139 212.774 70.016C212.633 70.6149 212.472 71.2139 212.294 71.8076C212.112 72.391 211.987 72.7816 211.919 72.9743C211.534 74.0576 211.315 75.1514 211.274 76.2451C211.373 76.8597 212.196 76.7608 213.753 75.9535C215.321 75.1514 216.763 73.9066 218.086 72.2243C219.404 70.5316 220.076 69.9899 220.107 70.5993C220.133 71.1983 219.815 72.0524 219.149 73.1618ZM213.878 66.0993C213.821 66.1826 213.675 66.2868 213.44 66.4118C213.216 66.5264 212.972 66.6306 212.711 66.7243C212.446 66.8076 212.222 66.8024 212.044 66.7035C211.878 66.5941 211.836 66.3441 211.919 65.9535C212.055 65.2764 212.216 64.6722 212.399 64.141C212.591 63.6149 212.862 63.0108 213.211 62.3285C213.446 62.0368 213.716 61.8597 214.024 61.7868C214.341 61.7191 214.628 61.7608 214.878 61.9118C215.128 62.0681 215.237 62.3233 215.211 62.6826C215.055 63.9483 214.612 65.0889 213.878 66.0993Z" fill="black"/>
<path d="M238.913 67.2428C239.022 67.2011 239.163 67.1803 239.33 67.1803C239.496 67.1803 239.621 67.2324 239.705 67.3261C239.83 67.4667 239.856 67.6334 239.788 67.8261C239.715 68.0084 239.585 68.1699 239.392 68.3053C238.111 69.1959 236.84 70.1178 235.58 71.0761C234.048 72.1907 232.528 73.3001 231.017 74.4095C230.793 74.5501 230.569 74.7115 230.351 74.8886C230.028 75.1542 229.689 75.399 229.33 75.6178C228.548 76.1595 228.101 76.8886 227.976 77.8053C227.569 80.0292 227.127 82.2376 226.642 84.4303C226.043 87.3574 225.163 90.1907 223.996 92.9303C223.356 94.498 222.507 95.9355 221.455 97.2428C220.179 98.8782 218.616 100.04 216.767 100.722C213.673 101.889 210.569 102.185 207.455 101.618C206.163 101.378 205.012 100.852 203.996 100.034C202.595 98.9511 202.319 97.597 203.163 95.972C203.538 95.274 203.97 94.6074 204.455 93.972C205.569 92.5813 206.804 91.2949 208.163 90.1178C213.08 85.7272 218.173 81.6074 223.434 77.7428C223.46 77.7324 223.476 77.722 223.476 77.722C224.028 77.3053 224.58 76.8886 225.121 76.472C225.173 76.3886 225.267 76.2115 225.392 75.9303C225.528 75.6386 225.621 75.3626 225.663 75.097C225.705 74.8365 225.647 74.6542 225.496 74.5553C225.34 74.4615 225.038 74.5709 224.58 74.8886C224.397 74.9876 224.226 75.0917 224.059 75.2011C223.653 75.4928 223.236 75.7584 222.809 75.9928C220.298 77.0501 218.825 76.2532 218.392 73.597C218.184 71.9876 218.429 70.4667 219.121 69.0345C219.819 67.6074 220.798 66.4199 222.08 65.472C223.356 64.5136 224.819 63.9876 226.476 63.8886C226.653 63.847 226.83 63.847 226.996 63.8886C227.465 63.8626 227.923 63.8157 228.371 63.7428C228.83 63.6751 229.272 63.5032 229.705 63.222C230.173 62.9303 230.564 62.9251 230.871 63.2011C231.173 63.4824 231.293 63.8834 231.226 64.4095C230.934 65.4251 230.642 66.4667 230.351 67.5345C230.153 68.1907 229.976 68.8574 229.809 69.5345C229.601 70.274 229.413 71.0136 229.246 71.7636C228.981 72.7532 228.996 73.2428 229.288 73.2428C229.58 73.2428 230.059 73.0032 230.726 72.5136C230.809 72.472 230.897 72.4303 230.996 72.3886C232.189 71.5709 233.392 70.7532 234.601 69.9303C235.444 69.3782 236.288 68.8001 237.121 68.2011C237.705 67.8417 238.298 67.524 238.913 67.2428ZM224.538 82.2845C224.788 80.8417 224.84 79.9199 224.705 79.5136C224.58 79.1126 224.267 79.0553 223.767 79.347C223.267 79.6282 222.642 80.097 221.892 80.7636C221.392 81.2115 220.851 81.6542 220.267 82.097C216.741 84.8157 213.319 87.6803 209.996 90.6803C208.528 91.899 207.262 93.2897 206.205 94.847C205.095 96.5136 205.351 97.7949 206.976 98.7011C207.934 99.2272 208.955 99.5397 210.038 99.6386C211.111 99.7324 212.267 99.6855 213.517 99.4928C215.007 99.3522 216.319 98.8574 217.455 98.0136C218.58 97.1803 219.575 96.024 220.434 94.5553C220.934 93.6074 221.397 92.6386 221.83 91.6386C223.064 88.5813 223.965 85.4615 224.538 82.2845ZM221.684 74.3678C222.101 74.4667 222.653 74.222 223.351 73.6386C224.043 73.0553 224.726 72.3001 225.392 71.3678C226.059 70.4251 226.548 69.4928 226.871 68.5761C227.205 67.6595 227.205 66.9303 226.871 66.3886C226.798 66.222 226.689 66.0865 226.538 65.972C226.231 65.722 225.923 65.6334 225.621 65.7011C225.33 65.7584 225.022 65.8626 224.705 66.0136C223.663 66.6386 222.793 67.5657 222.101 68.7845C221.403 69.9928 221.002 71.1542 220.892 72.2636C220.778 73.3782 221.043 74.0761 221.684 74.3678Z" fill="black"/>
<path d="M256.647 65.2316C256.939 65.5129 256.72 66.1274 256.001 67.0858C255.277 68.0337 254.47 68.8566 253.585 69.5649C252.71 70.2733 251.673 71.0129 250.481 71.7733C249.715 72.2733 248.84 72.5441 247.856 72.5858C246.882 72.6274 246.314 72.1379 246.147 71.1066C245.981 70.0649 246.048 68.9972 246.356 67.8983C246.673 66.7733 246.694 66.2264 246.418 66.2524C246.137 66.2681 245.616 66.6066 244.856 67.2733C242.897 69.0649 241.126 71.0441 239.543 73.2108C239.126 73.9087 238.533 74.3514 237.751 74.5441C237.35 74.6014 237.022 74.5233 236.772 74.3149C236.512 74.0962 236.434 73.8306 236.543 73.5233C237.491 70.8045 238.46 68.1014 239.46 65.4191C239.684 64.867 240.085 64.4764 240.668 64.2524C240.929 64.1691 241.189 64.2108 241.439 64.3774C241.699 64.5441 241.861 64.7629 241.918 65.0233C241.902 65.2889 241.84 65.6014 241.731 65.9608C241.689 66.1691 241.647 66.3722 241.606 66.5649C241.564 66.7629 241.564 66.9191 241.606 67.0441C241.658 67.1691 241.762 67.2004 241.918 67.1274C242.137 66.9608 242.345 66.7889 242.543 66.6066C243.069 66.1795 243.585 65.7524 244.085 65.3358C244.501 65.0024 244.949 64.6847 245.439 64.3774C245.939 64.0754 246.465 63.8358 247.022 63.6691C247.923 63.4608 248.611 63.5649 249.085 63.9816C249.554 64.3879 249.71 65.0389 249.543 65.9399C249.361 66.7629 249.168 67.5754 248.96 68.3774C248.652 69.1587 248.658 69.7056 248.981 70.0233C249.314 70.3462 250.527 69.7212 252.626 68.1483L254.21 66.8358C255.668 65.5181 256.481 64.9816 256.647 65.2316Z" fill="black"/>
<path d="M164.607 131.91C164.44 131.967 164.253 131.993 164.045 131.993C163.847 131.983 163.659 131.92 163.482 131.806C163.243 131.639 163.128 131.473 163.128 131.306C163.128 131.129 163.17 130.962 163.253 130.806C164.446 127.946 165.404 125.004 166.128 121.973C166.586 120.087 166.951 118.16 167.232 116.202C167.409 114.993 167.237 113.759 166.711 112.493C166.196 111.134 165.19 110.264 163.69 109.889C162.534 109.681 161.404 109.655 160.295 109.806C160.097 109.837 159.899 109.868 159.69 109.91C157.341 110.358 155.097 111.066 152.961 112.035C149.263 113.592 145.722 115.358 142.336 117.327C138.946 119.301 135.67 121.389 132.503 123.598C118.586 133.42 106.555 144.905 96.4196 158.056C93.8467 161.264 91.7113 164.723 90.0029 168.431C89.404 169.754 88.9196 171.118 88.5446 172.535C88.3206 173.342 88.2113 174.176 88.2113 175.035C88.1383 177.842 89.654 179.691 92.7529 180.577C95.3467 181.316 97.9196 181.551 100.461 181.285C102.446 181.134 104.378 180.905 106.253 180.598C107.128 180.462 107.961 180.285 108.753 180.077C120.586 178.035 131.513 174.681 141.545 170.014C141.696 169.931 141.857 169.863 142.024 169.806C142.69 169.446 143.404 169.118 144.17 168.827C144.362 168.775 144.696 168.696 145.17 168.598C145.638 168.488 146.086 168.441 146.503 168.452C146.93 168.467 147.232 168.629 147.399 168.931C147.451 169.087 147.446 169.212 147.378 169.306C147.305 169.405 147.19 169.473 147.024 169.514C146.409 169.806 145.805 170.087 145.211 170.348C143.378 171.17 141.555 171.973 139.753 172.764C129.529 177.223 118.68 180.358 107.211 182.16C104.836 182.535 102.461 182.868 100.086 183.16C97.404 183.478 94.6488 183.348 91.8154 182.764C86.1592 181.587 83.7477 178.493 84.5654 173.493C84.8988 171.493 85.5238 169.592 86.4404 167.785C87.7165 165.16 89.1904 162.67 90.8571 160.306C92.5238 157.946 94.2842 155.65 96.1488 153.41C104.44 143.327 113.888 134.28 124.503 126.264C127.753 123.848 131.086 121.535 134.503 119.327C137.93 117.118 141.503 115.087 145.211 113.223C148.336 111.629 151.597 110.28 155.003 109.181C156.347 108.754 157.716 108.426 159.107 108.202C160.008 108.066 160.925 107.952 161.857 107.868C162.951 107.785 164.065 107.837 165.19 108.014C168.284 108.571 170.091 110.259 170.607 113.077C170.815 114.316 170.847 115.535 170.711 116.743C170.362 119.092 169.836 121.379 169.128 123.598C168.43 125.821 167.654 128.014 166.795 130.181C166.571 130.92 166.091 131.452 165.357 131.785C165.149 131.842 164.94 131.879 164.732 131.889L164.607 131.91Z" fill="black"/>
<path d="M159.512 158.281C159.928 157.688 160.303 157.333 160.637 157.219C160.97 157.109 161.199 157.13 161.324 157.281C161.459 157.438 161.433 157.672 161.241 157.99C160.142 159.839 158.85 161.49 157.366 162.948C155.892 164.406 154.282 165.38 152.532 165.865C150.793 166.339 149.574 165.542 148.866 163.469C148.241 161.417 148.819 156.922 150.595 149.99C152.371 143.047 153.741 137.375 154.699 132.969C154.782 132.583 154.949 132.229 155.199 131.906C155.501 131.479 155.928 131.323 156.47 131.448C156.637 131.49 156.814 131.583 157.012 131.719C157.22 131.859 157.324 132.151 157.324 132.594C152.866 151.042 150.871 161 151.345 162.469C151.814 163.943 152.845 164.151 154.428 163.094C156.022 162.042 157.22 161.047 158.012 160.115C158.814 159.188 159.314 158.573 159.512 158.281Z" fill="black"/>
<path d="M161.56 165.058C160.091 165.297 159.226 164.652 158.976 163.12C158.685 161.277 159.372 157.797 161.039 152.683C161.08 152.464 161.221 152.329 161.455 152.287C162.44 152.136 162.997 152.448 163.122 153.224C163.164 153.49 163.133 153.839 163.039 154.266C162.982 154.391 162.502 156.553 161.601 160.745C161.45 161.454 161.403 161.954 161.455 162.245C161.513 162.594 161.69 162.74 161.997 162.683C163.122 162.506 165.622 159.235 169.497 152.87C169.982 152.027 170.518 151.553 171.101 151.454C171.987 151.318 172.482 151.568 172.58 152.204C172.622 152.454 172.502 153.428 172.226 155.12C171.851 157.454 171.69 158.782 171.747 159.099C171.815 159.615 172.018 159.844 172.351 159.787C173.211 159.652 175.44 157.745 179.039 154.079C179.247 153.829 179.424 153.698 179.58 153.683C179.966 153.615 180.216 153.902 180.33 154.537C180.357 154.719 180.32 154.865 180.226 154.974C178.362 157.198 176.752 158.912 175.393 160.12C174.143 161.245 172.982 161.891 171.914 162.058L171.58 162.12C169.94 162.037 168.945 160.928 168.601 158.787C167.153 160.553 165.945 161.985 164.976 163.079C164.002 164.178 162.862 164.839 161.56 165.058Z" fill="black"/>
<path d="M186.452 127.605C186.504 127.469 186.65 127.334 186.89 127.209C187.14 127.084 187.395 126.98 187.66 126.896C187.921 126.813 188.15 126.787 188.348 126.813C188.556 126.829 188.66 126.912 188.66 127.063C188.603 127.787 188.462 128.516 188.244 129.25C188.228 129.365 188.192 129.495 188.14 129.646C187.332 132.802 186.504 135.933 185.66 139.042C185.52 139.5 185.41 139.954 185.327 140.396C185.004 141.469 184.603 142.766 184.119 144.292C183.577 145.907 183.124 147.375 182.765 148.709C183.192 147.99 183.791 147.412 184.556 146.98C185.332 146.552 185.931 146.302 186.348 146.23C187.983 146.011 189.02 146.667 189.452 148.209C190.004 149.959 189.978 151.844 189.369 153.855C188.754 155.87 187.806 157.584 186.515 159C185.358 159.917 184.212 160.427 183.077 160.521C181.936 160.62 180.848 160.23 179.806 159.355C179.697 159.37 179.593 159.438 179.494 159.563C179.4 159.688 179.285 159.829 179.16 159.98C179.025 160.219 178.869 160.412 178.702 160.563C178.577 160.636 178.431 160.667 178.265 160.667C178.098 160.667 177.968 160.641 177.869 160.584C177.483 160.365 177.317 160.037 177.369 159.605C178.119 156.021 179.072 152.261 180.223 148.313C181.374 144.355 182.546 140.511 183.744 136.771C184.202 135.079 184.681 133.454 185.181 131.896C185.39 131.271 185.577 130.625 185.744 129.959C185.962 129.198 186.202 128.412 186.452 127.605ZM184.077 149.459C183.004 150.5 182.145 151.704 181.494 153.063C180.837 154.412 180.749 155.745 181.223 157.063C181.473 157.829 181.874 158.329 182.431 158.563C182.983 158.802 183.556 158.594 184.14 157.938C184.707 157.188 185.249 156.287 185.765 155.23C186.291 154.162 186.681 153.052 186.931 151.896C187.108 150.896 187.171 150.037 187.119 149.313C187.077 148.594 186.817 148.198 186.348 148.125C185.874 148.042 185.119 148.49 184.077 149.459Z" fill="black"/>
<mask id="mask0_23_378" style="mask-type:luminance" maskUnits="userSpaceOnUse" x="193" y="153" width="6" height="6">
<path d="M193.526 153.463H198.933V158.87H193.526V153.463Z" fill="white"/>
</mask>
<g mask="url(#mask0_23_378)">
<mask id="mask1_23_378" style="mask-type:luminance" maskUnits="userSpaceOnUse" x="193" y="153" width="6" height="6">
<path d="M196.229 153.463C194.735 153.463 193.526 154.672 193.526 156.167C193.526 157.656 194.735 158.87 196.229 158.87C197.724 158.87 198.933 157.656 198.933 156.167C198.933 154.672 197.724 153.463 196.229 153.463Z" fill="white"/>
</mask>
<g mask="url(#mask1_23_378)">
<path d="M193.526 153.463H198.933V158.87H193.526V153.463Z" fill="black"/>
</g>
</g>
<mask id="mask2_23_378" style="mask-type:luminance" maskUnits="userSpaceOnUse" x="114" y="62" width="12" height="18">
<path d="M114 62.3335H126V79.6668H114V62.3335Z" fill="white"/>
</mask>
<g mask="url(#mask2_23_378)">
<mask id="mask3_23_378" style="mask-type:luminance" maskUnits="userSpaceOnUse" x="114" y="63" width="12" height="17">
<path d="M117.938 63.5835L125.959 65.5522L122.599 79.2606L114.573 77.297L117.938 63.5835Z" fill="white"/>
</mask>
<g mask="url(#mask3_23_378)">
<path d="M117.938 63.5835L125.958 65.5522L122.599 79.2502L114.578 77.2814L117.938 63.5835Z" fill="white"/>
</g>
</g>
<mask id="mask4_23_378" style="mask-type:luminance" maskUnits="userSpaceOnUse" x="126" y="65" width="14" height="11">
<path d="M126 65H139.333V75.6667H126V65Z" fill="white"/>
</mask>
<g mask="url(#mask4_23_378)">
<mask id="mask5_23_378" style="mask-type:luminance" maskUnits="userSpaceOnUse" x="126" y="65" width="14" height="10">
<path d="M128.443 65L139.281 67.5365L137.589 74.7708L126.75 72.2344L128.443 65Z" fill="white"/>
</mask>
<g mask="url(#mask5_23_378)">
<path d="M128.443 65L139.266 67.5313L137.573 74.7656L126.75 72.2344L128.443 65Z" fill="white"/>
</g>
</g>
<mask id="mask6_23_378" style="mask-type:luminance" maskUnits="userSpaceOnUse" x="160" y="75" width="10" height="17">
<path d="M160.667 75.6665H170V91.6665H160.667V75.6665Z" fill="white"/>
</mask>
<g mask="url(#mask6_23_378)">
<mask id="mask7_23_378" style="mask-type:luminance" maskUnits="userSpaceOnUse" x="161" y="76" width="9" height="16">
<path d="M162.719 76.4268L169.5 77.0986L168.104 91.1507L161.323 90.4788L162.719 76.4268Z" fill="white"/>
</mask>
<g mask="url(#mask7_23_378)">
<path d="M162.719 76.4268L169.5 77.0986L168.099 91.1663L161.323 90.4893L162.719 76.4268Z" fill="white"/>
</g>
</g>
<mask id="mask8_23_378" style="mask-type:luminance" maskUnits="userSpaceOnUse" x="103" y="69" width="11" height="11">
<path d="M103.333 69H114V79.6667H103.333V69Z" fill="white"/>
</mask>
<g mask="url(#mask8_23_378)">
<mask id="mask9_23_378" style="mask-type:luminance" maskUnits="userSpaceOnUse" x="103" y="69" width="11" height="11">
<path d="M105.952 69.2188L113.348 71.0313L111.327 79.2656L103.932 77.4479L105.952 69.2188Z" fill="white"/>
</mask>
<g mask="url(#mask9_23_378)">
<path d="M105.952 69.2188L113.348 71.0313L111.327 79.2656L103.932 77.4479L105.952 69.2188Z" fill="white"/>
</g>
</g>
<mask id="mask10_23_378" style="mask-type:luminance" maskUnits="userSpaceOnUse" x="96" y="73" width="13" height="12">
<path d="M96.667 73H108.667V85H96.667V73Z" fill="white"/>
</mask>
<g mask="url(#mask10_23_378)">
<mask id="mask11_23_378" style="mask-type:luminance" maskUnits="userSpaceOnUse" x="97" y="73" width="12" height="12">
<path d="M102.407 73.6094L108.641 77.9792L103.777 84.9219L97.5371 80.5521L102.407 73.6094Z" fill="white"/>
</mask>
<g mask="url(#mask11_23_378)">
<path d="M102.407 73.6094L108.641 77.9792L103.777 84.9219L97.5371 80.5521L102.407 73.6094Z" fill="white"/>
</g>
</g>
<mask id="mask12_23_378" style="mask-type:luminance" maskUnits="userSpaceOnUse" x="92" y="75" width="13" height="13">
<path d="M92.667 75.6665H104.667V87.6665H92.667V75.6665Z" fill="white"/>
</mask>
<g mask="url(#mask12_23_378)">
<mask id="mask13_23_378" style="mask-type:luminance" maskUnits="userSpaceOnUse" x="92" y="76" width="12" height="12">
<path d="M98.8027 76.4321L103.933 80.9946L98.1204 87.5259L92.9902 82.9634L98.8027 76.4321Z" fill="white"/>
</mask>
<g mask="url(#mask13_23_378)">
<path d="M98.8027 76.4321L103.933 80.9946L98.1204 87.5259L92.9902 82.9634L98.8027 76.4321Z" fill="white"/>
</g>
</g>
<mask id="mask14_23_378" style="mask-type:luminance" maskUnits="userSpaceOnUse" x="131" y="57" width="25" height="18">
<path d="M131.333 57H155.333V74.3333H131.333V57Z" fill="white"/>
</mask>
<g mask="url(#mask14_23_378)">
<mask id="mask15_23_378" style="mask-type:luminance" maskUnits="userSpaceOnUse" x="131" y="57" width="24" height="17">
<path d="M133.922 57.3853L154.088 61.4894L151.609 73.6717L131.442 69.5675L133.922 57.3853Z" fill="white"/>
</mask>
<g mask="url(#mask15_23_378)">
<path d="M133.922 57.3853L154.099 61.4946L151.619 73.6769L131.442 69.5675L133.922 57.3853Z" fill="white"/>
</g>
</g>
<path d="M150.593 204.261V196.032H152.343V196.573H151.343V203.698H152.343V204.261H150.593Z" fill="black"/>
<path d="M159.039 199.323C159.039 199.948 158.914 200.5 158.664 200.969C158.424 201.443 158.08 201.803 157.622 202.053C157.174 202.303 156.664 202.428 156.08 202.428H153.81V196.344H155.81C156.836 196.344 157.627 196.61 158.185 197.136C158.752 197.652 159.039 198.381 159.039 199.323ZM158.205 199.323C158.205 198.573 157.997 198.006 157.58 197.615C157.174 197.214 156.58 197.011 155.789 197.011H154.622V201.761H155.976C156.419 201.761 156.81 201.667 157.143 201.469C157.487 201.277 157.752 201 157.935 200.636C158.112 200.261 158.205 199.823 158.205 199.323Z" fill="black"/>
<path d="M164.657 200.094C164.657 200.917 164.475 201.527 164.115 201.928C163.751 202.318 163.23 202.511 162.553 202.511C161.87 202.511 161.355 202.303 161.011 201.886C160.662 201.469 160.49 200.876 160.49 200.094C160.49 198.485 161.183 197.678 162.574 197.678C163.292 197.678 163.824 197.876 164.157 198.261C164.49 198.652 164.657 199.261 164.657 200.094ZM163.844 200.094C163.844 199.443 163.745 198.969 163.553 198.678C163.355 198.386 163.037 198.24 162.594 198.24C162.136 198.24 161.803 198.396 161.594 198.699C161.396 198.99 161.303 199.459 161.303 200.094C161.303 200.709 161.396 201.173 161.594 201.49C161.803 201.798 162.12 201.949 162.553 201.949C163.011 201.949 163.334 201.803 163.532 201.511C163.74 201.209 163.844 200.735 163.844 200.094Z" fill="black"/>
<path d="M166.289 202.428V196.032H167.06V202.428H166.289Z" fill="black"/>
<path d="M168.911 202.428V196.032H169.682V202.428H168.911Z" fill="black"/>
<path d="M172.721 202.511C172.247 202.511 171.893 202.396 171.659 202.157C171.419 201.907 171.305 201.563 171.305 201.115C171.305 200.646 171.461 200.277 171.784 200.011C172.102 199.751 172.617 199.61 173.326 199.594L174.367 199.574V199.324C174.367 198.949 174.284 198.678 174.117 198.511C173.961 198.344 173.711 198.261 173.367 198.261C173.018 198.261 172.763 198.324 172.596 198.449C172.44 198.563 172.352 198.751 172.326 199.011L171.513 198.928C171.638 198.094 172.263 197.678 173.388 197.678C173.971 197.678 174.409 197.818 174.701 198.094C175.003 198.36 175.159 198.74 175.159 199.24V201.261C175.159 201.485 175.185 201.657 175.242 201.782C175.294 201.896 175.414 201.949 175.596 201.949C175.664 201.949 175.747 201.943 175.846 201.928V202.407C175.648 202.449 175.451 202.469 175.242 202.469C174.951 202.469 174.732 202.396 174.596 202.24C174.471 202.089 174.398 201.855 174.388 201.532H174.367C174.169 201.896 173.94 202.152 173.68 202.303C173.414 202.438 173.096 202.511 172.721 202.511ZM172.888 201.928C173.18 201.928 173.435 201.865 173.659 201.74C173.878 201.615 174.055 201.443 174.18 201.219C174.305 200.985 174.367 200.751 174.367 200.511V200.115L173.513 200.136C173.148 200.152 172.872 200.193 172.68 200.261C172.497 200.334 172.352 200.438 172.242 200.574C172.143 200.714 172.096 200.902 172.096 201.136C172.096 201.386 172.164 201.584 172.305 201.719C172.44 201.86 172.638 201.928 172.888 201.928Z" fill="black"/>
<path d="M177.103 202.428V198.844C177.103 198.527 177.092 198.167 177.082 197.761H177.811C177.837 198.292 177.853 198.61 177.853 198.719H177.874C177.999 198.318 178.134 198.048 178.29 197.907C178.457 197.756 178.686 197.678 178.978 197.678C179.072 197.678 179.176 197.693 179.29 197.719V198.428C179.191 198.402 179.051 198.386 178.874 198.386C178.551 198.386 178.311 198.527 178.145 198.803C177.978 199.084 177.895 199.48 177.895 199.99V202.428H177.103Z" fill="black"/>
<path d="M188.692 200.74C188.692 201.313 188.468 201.751 188.025 202.053C187.593 202.36 186.983 202.511 186.192 202.511C184.702 202.511 183.843 202.001 183.608 200.97L184.421 200.803C184.504 201.178 184.692 201.449 184.983 201.615C185.285 201.782 185.697 201.865 186.213 201.865C186.754 201.865 187.16 201.777 187.442 201.595C187.733 201.417 187.879 201.152 187.879 200.803C187.879 200.595 187.827 200.428 187.733 200.303C187.65 200.178 187.525 200.084 187.358 200.011C187.202 199.928 187.009 199.86 186.775 199.803C186.551 199.751 186.301 199.688 186.025 199.615C185.535 199.522 185.171 199.417 184.921 199.303C184.681 199.194 184.489 199.074 184.338 198.949C184.197 198.824 184.088 198.673 184.004 198.49C183.931 198.313 183.9 198.11 183.9 197.886C183.9 197.376 184.093 196.98 184.483 196.699C184.884 196.407 185.463 196.261 186.213 196.261C186.89 196.261 187.41 196.365 187.775 196.574C188.15 196.782 188.41 197.147 188.567 197.657L187.754 197.803C187.655 197.485 187.483 197.256 187.233 197.115C186.983 196.964 186.634 196.886 186.192 196.886C185.702 196.886 185.327 196.97 185.067 197.136C184.817 197.292 184.692 197.527 184.692 197.845C184.692 198.027 184.739 198.178 184.838 198.303C184.947 198.428 185.093 198.532 185.275 198.615C185.468 198.699 185.843 198.803 186.4 198.928C186.577 198.97 186.759 199.022 186.942 199.074C187.134 199.115 187.317 199.173 187.483 199.24C187.65 199.298 187.806 199.365 187.963 199.449C188.114 199.532 188.239 199.636 188.338 199.761C188.447 199.876 188.53 200.011 188.588 200.178C188.655 200.345 188.692 200.532 188.692 200.74Z" fill="black"/>
<path d="M190.344 196.761V196.032H191.135V196.761H190.344ZM190.344 202.428V197.761H191.135V202.428H190.344Z" fill="black"/>
<path d="M194.737 204.261C194.237 204.261 193.831 204.157 193.529 203.949C193.221 203.751 193.029 203.475 192.945 203.115L193.737 202.99C193.779 203.209 193.888 203.376 194.07 203.49C194.247 203.615 194.477 203.678 194.758 203.678C195.534 203.678 195.924 203.219 195.924 202.303V201.553C195.768 201.86 195.56 202.089 195.299 202.24C195.049 202.396 194.758 202.469 194.424 202.469C193.852 202.469 193.43 202.282 193.154 201.907C192.888 201.521 192.758 200.917 192.758 200.094C192.758 199.277 192.893 198.673 193.174 198.282C193.466 197.881 193.909 197.678 194.508 197.678C194.841 197.678 195.122 197.756 195.362 197.907C195.612 198.063 195.799 198.277 195.924 198.553H195.945C195.945 198.469 195.945 198.324 195.945 198.115C195.956 197.896 195.971 197.777 195.987 197.761H196.716C196.701 197.917 196.695 198.235 196.695 198.719V202.303C196.695 203.605 196.039 204.261 194.737 204.261ZM195.924 200.094C195.924 199.719 195.867 199.396 195.758 199.115C195.659 198.839 195.513 198.631 195.32 198.49C195.138 198.339 194.93 198.261 194.695 198.261C194.289 198.261 193.997 198.407 193.82 198.699C193.638 198.99 193.549 199.459 193.549 200.094C193.549 200.735 193.633 201.193 193.799 201.469C193.977 201.751 194.268 201.886 194.674 201.886C194.924 201.886 195.138 201.818 195.32 201.678C195.513 201.527 195.659 201.318 195.758 201.053C195.867 200.792 195.924 200.469 195.924 200.094Z" fill="black"/>
<path d="M201.514 202.428V199.469C201.514 199.167 201.478 198.928 201.41 198.761C201.353 198.584 201.254 198.459 201.118 198.386C200.993 198.318 200.806 198.282 200.556 198.282C200.181 198.282 199.879 198.407 199.66 198.657C199.452 198.907 199.348 199.261 199.348 199.719V202.428H198.556V198.761C198.556 198.219 198.546 197.886 198.535 197.761H199.264C199.275 197.777 199.285 197.818 199.285 197.886C199.285 197.943 199.285 198.011 199.285 198.094C199.296 198.178 199.306 198.334 199.306 198.553H199.327C199.493 198.235 199.691 198.011 199.931 197.886C200.165 197.751 200.457 197.678 200.806 197.678C201.316 197.678 201.691 197.803 201.931 198.053C202.165 198.303 202.285 198.73 202.285 199.324V202.428H201.514Z" fill="black"/>
<path d="M210.052 196.928C209.385 196.928 208.865 197.152 208.49 197.595C208.115 198.027 207.927 198.615 207.927 199.365C207.927 200.105 208.12 200.699 208.51 201.157C208.896 201.615 209.427 201.845 210.094 201.845C210.937 201.845 211.578 201.423 212.01 200.574L212.677 200.907C212.427 201.438 212.073 201.839 211.615 202.115C211.167 202.381 210.646 202.511 210.052 202.511C209.437 202.511 208.906 202.386 208.448 202.136C208 201.876 207.661 201.506 207.427 201.032C207.203 200.563 207.094 200.006 207.094 199.365C207.094 198.397 207.349 197.636 207.865 197.095C208.391 196.542 209.12 196.261 210.052 196.261C210.687 196.261 211.224 196.386 211.656 196.636C212.099 196.886 212.417 197.261 212.615 197.761L211.844 198.032C211.703 197.673 211.474 197.402 211.156 197.22C210.849 197.027 210.479 196.928 210.052 196.928Z" fill="black"/>
<path d="M214.273 202.428V196.032H215.044V202.428H214.273Z" fill="black"/>
<path d="M217.646 197.761V200.72C217.646 201.027 217.672 201.272 217.729 201.449C217.797 201.615 217.896 201.735 218.021 201.803C218.156 201.876 218.354 201.907 218.604 201.907C218.979 201.907 219.271 201.782 219.479 201.532C219.698 201.282 219.813 200.928 219.813 200.47V197.761H220.583V201.428C220.583 201.97 220.594 202.303 220.625 202.428H219.875C219.875 202.417 219.875 202.381 219.875 202.324C219.875 202.256 219.865 202.178 219.854 202.095C219.854 202.011 219.854 201.86 219.854 201.636H219.833C219.651 201.959 219.443 202.188 219.208 202.324C218.984 202.449 218.698 202.511 218.354 202.511C217.839 202.511 217.464 202.386 217.229 202.136C216.99 201.876 216.875 201.449 216.875 200.865V197.761H217.646Z" fill="black"/>
<path d="M226.403 200.073C226.403 201.698 225.83 202.511 224.695 202.511C224.33 202.511 224.033 202.448 223.799 202.323C223.559 202.198 223.372 201.99 223.236 201.698H223.215C223.215 201.797 223.205 201.938 223.195 202.115C223.195 202.297 223.184 202.402 223.174 202.428H222.424C222.45 202.277 222.465 201.959 222.465 201.469V196.032H223.236V197.844C223.236 198.042 223.226 198.261 223.215 198.511H223.236C223.372 198.209 223.559 197.99 223.799 197.865C224.033 197.74 224.33 197.678 224.695 197.678C225.278 197.678 225.705 197.881 225.986 198.282C226.262 198.672 226.403 199.271 226.403 200.073ZM225.59 200.094C225.59 199.443 225.497 198.98 225.32 198.698C225.153 198.422 224.872 198.282 224.486 198.282C224.054 198.282 223.736 198.438 223.528 198.74C223.33 199.032 223.236 199.5 223.236 200.136C223.236 200.761 223.33 201.219 223.528 201.511C223.721 201.803 224.038 201.948 224.486 201.948C224.872 201.948 225.153 201.803 225.32 201.511C225.497 201.219 225.59 200.75 225.59 200.094Z" fill="black"/>
<path d="M230.94 200.428V199.74H233.086V200.428H230.94Z" fill="black"/>
<path d="M237.987 202.428V196.344H242.591V197.032H238.8V198.969H242.341V199.636H238.8V201.761H242.779V202.428H237.987Z" fill="black"/>
<path d="M244.202 200.428V199.74H246.348V200.428H244.202Z" fill="black"/>
<path d="M251.51 201.136C251.51 201.584 251.344 201.923 251.01 202.157C250.677 202.396 250.208 202.511 249.615 202.511C249.031 202.511 248.578 202.423 248.26 202.24C247.953 202.048 247.75 201.74 247.656 201.324L248.344 201.199C248.396 201.449 248.531 201.636 248.74 201.761C248.948 201.876 249.24 201.928 249.615 201.928C250 201.928 250.286 201.865 250.469 201.74C250.646 201.615 250.74 201.438 250.74 201.199C250.74 201.021 250.677 200.876 250.552 200.761C250.427 200.636 250.224 200.542 249.948 200.469L249.385 200.324C248.938 200.199 248.62 200.089 248.427 199.99C248.245 199.881 248.099 199.751 247.99 199.594C247.891 199.428 247.844 199.23 247.844 198.99C247.844 198.574 247.99 198.256 248.281 198.032C248.583 197.798 249.031 197.678 249.615 197.678C250.125 197.678 250.536 197.777 250.844 197.969C251.146 198.152 251.344 198.438 251.427 198.824L250.719 198.907C250.677 198.714 250.557 198.563 250.365 198.449C250.182 198.339 249.932 198.282 249.615 198.282C249.266 198.282 249.01 198.339 248.844 198.449C248.677 198.548 248.594 198.699 248.594 198.907C248.594 199.048 248.625 199.157 248.698 199.24C248.766 199.324 248.865 199.402 248.99 199.469C249.125 199.527 249.417 199.61 249.865 199.719C250.266 199.818 250.557 199.917 250.74 200.011C250.917 200.094 251.057 200.193 251.156 200.303C251.266 200.402 251.349 200.521 251.406 200.657C251.474 200.798 251.51 200.959 251.51 201.136Z" fill="black"/>
<path d="M253.063 196.761V196.032H253.855V196.761H253.063ZM253.063 202.428V197.761H253.855V202.428H253.063Z" fill="black"/>
<path d="M257.457 204.261C256.957 204.261 256.55 204.157 256.248 203.949C255.941 203.751 255.748 203.475 255.665 203.115L256.457 202.99C256.498 203.209 256.608 203.376 256.79 203.49C256.967 203.615 257.196 203.678 257.478 203.678C258.254 203.678 258.644 203.219 258.644 202.303V201.553C258.488 201.86 258.28 202.089 258.019 202.24C257.769 202.396 257.478 202.469 257.144 202.469C256.571 202.469 256.149 202.282 255.873 201.907C255.608 201.521 255.478 200.917 255.478 200.094C255.478 199.277 255.613 198.673 255.894 198.282C256.186 197.881 256.629 197.678 257.228 197.678C257.561 197.678 257.842 197.756 258.082 197.907C258.332 198.063 258.519 198.277 258.644 198.553H258.665C258.665 198.469 258.665 198.324 258.665 198.115C258.675 197.896 258.691 197.777 258.707 197.761H259.436C259.42 197.917 259.415 198.235 259.415 198.719V202.303C259.415 203.605 258.759 204.261 257.457 204.261ZM258.644 200.094C258.644 199.719 258.587 199.396 258.478 199.115C258.379 198.839 258.233 198.631 258.04 198.49C257.858 198.339 257.649 198.261 257.415 198.261C257.009 198.261 256.717 198.407 256.54 198.699C256.358 198.99 256.269 199.459 256.269 200.094C256.269 200.735 256.353 201.193 256.519 201.469C256.696 201.751 256.988 201.886 257.394 201.886C257.644 201.886 257.858 201.818 258.04 201.678C258.233 201.527 258.379 201.318 258.478 201.053C258.587 200.792 258.644 200.469 258.644 200.094Z" fill="black"/>
<path d="M264.235 202.428V199.469C264.235 199.167 264.199 198.928 264.131 198.761C264.074 198.584 263.975 198.459 263.839 198.386C263.714 198.318 263.527 198.282 263.277 198.282C262.902 198.282 262.6 198.407 262.381 198.657C262.173 198.907 262.068 199.261 262.068 199.719V202.428H261.277V198.761C261.277 198.219 261.266 197.886 261.256 197.761H261.985C261.995 197.777 262.006 197.818 262.006 197.886C262.006 197.943 262.006 198.011 262.006 198.094C262.016 198.178 262.027 198.334 262.027 198.553H262.048C262.214 198.235 262.412 198.011 262.652 197.886C262.886 197.751 263.178 197.678 263.527 197.678C264.037 197.678 264.412 197.803 264.652 198.053C264.886 198.303 265.006 198.73 265.006 199.324V202.428H264.235Z" fill="black"/>
<path d="M272.897 201.678C272.757 201.985 272.564 202.198 272.314 202.323C272.074 202.448 271.783 202.511 271.439 202.511C270.855 202.511 270.423 202.318 270.147 201.928C269.866 201.527 269.73 200.922 269.73 200.115C269.73 198.49 270.298 197.678 271.439 197.678C271.798 197.678 272.095 197.74 272.335 197.865C272.569 197.99 272.757 198.198 272.897 198.49V196.032H273.668V201.469C273.668 201.959 273.673 202.277 273.689 202.428H272.96C272.944 202.386 272.928 202.282 272.918 202.115C272.918 201.948 272.918 201.803 272.918 201.678H272.897ZM270.543 200.094C270.543 200.75 270.626 201.214 270.793 201.49C270.97 201.771 271.257 201.907 271.647 201.907C272.074 201.907 272.387 201.756 272.585 201.448C272.793 201.146 272.897 200.672 272.897 200.032C272.897 199.422 272.793 198.969 272.585 198.678C272.387 198.386 272.074 198.24 271.647 198.24C271.257 198.24 270.97 198.386 270.793 198.678C270.626 198.969 270.543 199.443 270.543 200.094Z" fill="black"/>
<path d="M279.466 200.094C279.466 200.917 279.284 201.527 278.925 201.928C278.56 202.318 278.039 202.511 277.362 202.511C276.68 202.511 276.164 202.303 275.821 201.886C275.472 201.469 275.3 200.876 275.3 200.094C275.3 198.485 275.993 197.678 277.383 197.678C278.102 197.678 278.633 197.876 278.966 198.261C279.3 198.652 279.466 199.261 279.466 200.094ZM278.654 200.094C278.654 199.443 278.555 198.969 278.362 198.678C278.164 198.386 277.847 198.24 277.404 198.24C276.946 198.24 276.612 198.396 276.404 198.699C276.206 198.99 276.112 199.459 276.112 200.094C276.112 200.709 276.206 201.173 276.404 201.49C276.612 201.798 276.93 201.949 277.362 201.949C277.821 201.949 278.144 201.803 278.341 201.511C278.55 201.209 278.654 200.735 278.654 200.094Z" fill="black"/>
<path d="M281.682 200.074C281.682 200.699 281.775 201.167 281.973 201.469C282.166 201.761 282.458 201.907 282.848 201.907C283.124 201.907 283.354 201.834 283.536 201.678C283.729 201.527 283.848 201.298 283.89 200.99L284.682 201.032C284.609 201.49 284.416 201.855 284.098 202.115C283.775 202.381 283.369 202.511 282.869 202.511C282.213 202.511 281.713 202.313 281.369 201.907C281.036 201.49 280.869 200.886 280.869 200.094C280.869 199.303 281.041 198.709 281.39 198.303C281.734 197.886 282.229 197.678 282.869 197.678C283.338 197.678 283.734 197.803 284.057 198.053C284.374 198.292 284.577 198.631 284.661 199.074L283.848 199.136C283.807 198.876 283.702 198.667 283.536 198.511C283.38 198.36 283.15 198.282 282.848 198.282C282.432 198.282 282.13 198.423 281.952 198.699C281.77 198.964 281.682 199.423 281.682 200.074Z" fill="black"/>
<path d="M286.922 197.761V200.72C286.922 201.027 286.948 201.272 287.006 201.449C287.073 201.615 287.172 201.735 287.297 201.803C287.433 201.876 287.631 201.907 287.881 201.907C288.256 201.907 288.547 201.782 288.756 201.532C288.974 201.282 289.089 200.928 289.089 200.47V197.761H289.86V201.428C289.86 201.97 289.87 202.303 289.901 202.428H289.151C289.151 202.417 289.151 202.381 289.151 202.324C289.151 202.256 289.141 202.178 289.131 202.095C289.131 202.011 289.131 201.86 289.131 201.636H289.11C288.927 201.959 288.719 202.188 288.485 202.324C288.261 202.449 287.974 202.511 287.631 202.511C287.115 202.511 286.74 202.386 286.506 202.136C286.266 201.876 286.151 201.449 286.151 200.865V197.761H286.922Z" fill="black"/>
<path d="M294.45 202.428V199.469C294.45 199.011 294.387 198.699 294.262 198.532C294.137 198.365 293.913 198.282 293.596 198.282C293.262 198.282 292.997 198.407 292.804 198.657C292.606 198.907 292.512 199.261 292.512 199.719V202.428H291.742V198.761C291.742 198.219 291.731 197.886 291.721 197.761H292.45C292.46 197.777 292.471 197.818 292.471 197.886C292.471 197.943 292.471 198.011 292.471 198.094C292.481 198.178 292.492 198.334 292.492 198.553H292.512C292.679 198.219 292.867 197.99 293.075 197.865C293.294 197.74 293.559 197.678 293.867 197.678C294.226 197.678 294.502 197.751 294.7 197.886C294.908 198.027 295.054 198.251 295.137 198.553H295.158C295.309 198.251 295.497 198.027 295.721 197.886C295.955 197.751 296.231 197.678 296.554 197.678C297.023 197.678 297.367 197.813 297.575 198.074C297.794 198.324 297.908 198.74 297.908 199.324V202.428H297.137V199.469C297.137 199.011 297.075 198.699 296.95 198.532C296.835 198.365 296.617 198.282 296.283 198.282C295.95 198.282 295.684 198.407 295.492 198.657C295.309 198.907 295.221 199.261 295.221 199.719V202.428H294.45Z" fill="black"/>
<path d="M300.338 200.261C300.338 200.792 300.447 201.199 300.671 201.49C300.89 201.782 301.218 201.928 301.65 201.928C301.984 201.928 302.244 201.865 302.442 201.74C302.65 201.605 302.786 201.428 302.859 201.219L303.546 201.407C303.265 202.146 302.635 202.511 301.65 202.511C300.952 202.511 300.426 202.313 300.067 201.907C299.702 201.49 299.525 200.881 299.525 200.074C299.525 199.298 299.702 198.709 300.067 198.303C300.426 197.886 300.942 197.678 301.609 197.678C302.984 197.678 303.671 198.506 303.671 200.157V200.261H300.338ZM302.859 199.657C302.817 199.173 302.692 198.818 302.484 198.594C302.286 198.36 301.994 198.24 301.609 198.24C301.218 198.24 300.911 198.376 300.692 198.636C300.484 198.886 300.369 199.23 300.359 199.657H302.859Z" fill="black"/>
<path d="M308.282 202.428V199.469C308.282 199.167 308.245 198.928 308.178 198.761C308.12 198.584 308.021 198.459 307.886 198.386C307.761 198.318 307.574 198.282 307.324 198.282C306.949 198.282 306.646 198.407 306.428 198.657C306.219 198.907 306.115 199.261 306.115 199.719V202.428H305.324V198.761C305.324 198.219 305.313 197.886 305.303 197.761H306.032C306.042 197.777 306.053 197.818 306.053 197.886C306.053 197.943 306.053 198.011 306.053 198.094C306.063 198.178 306.074 198.334 306.074 198.553H306.094C306.261 198.235 306.459 198.011 306.699 197.886C306.933 197.751 307.225 197.678 307.574 197.678C308.084 197.678 308.459 197.803 308.699 198.053C308.933 198.303 309.053 198.73 309.053 199.324V202.428H308.282Z" fill="black"/>
<path d="M312.685 202.386C312.419 202.454 312.154 202.49 311.893 202.49C311.268 202.49 310.956 202.146 310.956 201.448V198.323H310.414V197.761H310.997L311.227 196.719H311.747V197.761H312.602V198.323H311.747V201.282C311.747 201.506 311.779 201.667 311.852 201.761C311.919 201.844 312.044 201.886 312.227 201.886C312.336 201.886 312.487 201.865 312.685 201.823V202.386Z" fill="black"/>
<path d="M317.507 201.136C317.507 201.584 317.34 201.923 317.007 202.157C316.673 202.396 316.204 202.511 315.611 202.511C315.027 202.511 314.574 202.423 314.257 202.24C313.949 202.048 313.746 201.74 313.652 201.324L314.34 201.199C314.392 201.449 314.527 201.636 314.736 201.761C314.944 201.876 315.236 201.928 315.611 201.928C315.996 201.928 316.283 201.865 316.465 201.74C316.642 201.615 316.736 201.438 316.736 201.199C316.736 201.021 316.673 200.876 316.548 200.761C316.423 200.636 316.22 200.542 315.944 200.469L315.382 200.324C314.934 200.199 314.616 200.089 314.423 199.99C314.241 199.881 314.095 199.751 313.986 199.594C313.887 199.428 313.84 199.23 313.84 198.99C313.84 198.574 313.986 198.256 314.277 198.032C314.579 197.798 315.027 197.678 315.611 197.678C316.121 197.678 316.533 197.777 316.84 197.969C317.142 198.152 317.34 198.438 317.423 198.824L316.715 198.907C316.673 198.714 316.553 198.563 316.361 198.449C316.178 198.339 315.928 198.282 315.611 198.282C315.262 198.282 315.007 198.339 314.84 198.449C314.673 198.548 314.59 198.699 314.59 198.907C314.59 199.048 314.621 199.157 314.694 199.24C314.762 199.324 314.861 199.402 314.986 199.469C315.121 199.527 315.413 199.61 315.861 199.719C316.262 199.818 316.553 199.917 316.736 200.011C316.913 200.094 317.053 200.193 317.152 200.303C317.262 200.402 317.345 200.521 317.402 200.657C317.47 200.798 317.507 200.959 317.507 201.136Z" fill="black"/>
<path d="M319.289 202.428V201.49H320.122V202.428H319.289Z" fill="black"/>
<path d="M191.019 215.664L190.311 213.894H187.54L186.852 215.664H185.998L188.477 209.581H189.415L191.852 215.664H191.019ZM188.936 210.206L188.894 210.331C188.821 210.571 188.717 210.873 188.581 211.248L187.79 213.248H190.061L189.29 211.248C189.206 211.039 189.123 210.81 189.04 210.56L188.936 210.206Z" fill="black"/>
<path d="M199.179 214.914C199.039 215.222 198.846 215.435 198.596 215.56C198.356 215.685 198.065 215.748 197.721 215.748C197.138 215.748 196.705 215.555 196.429 215.164C196.148 214.763 196.013 214.159 196.013 213.352C196.013 211.727 196.58 210.914 197.721 210.914C198.08 210.914 198.377 210.977 198.617 211.102C198.851 211.227 199.039 211.435 199.179 211.727V209.269H199.95V214.706C199.95 215.196 199.955 215.513 199.971 215.664H199.242C199.226 215.623 199.211 215.519 199.2 215.352C199.2 215.185 199.2 215.039 199.2 214.914H199.179ZM196.825 213.331C196.825 213.987 196.909 214.451 197.075 214.727C197.252 215.008 197.539 215.144 197.929 215.144C198.356 215.144 198.669 214.993 198.867 214.685C199.075 214.383 199.179 213.909 199.179 213.269C199.179 212.659 199.075 212.206 198.867 211.914C198.669 211.623 198.356 211.477 197.929 211.477C197.539 211.477 197.252 211.623 197.075 211.914C196.909 212.206 196.825 212.68 196.825 213.331Z" fill="black"/>
<path d="M205.75 213.331C205.75 214.154 205.567 214.763 205.208 215.164C204.843 215.555 204.323 215.747 203.646 215.747C202.963 215.747 202.448 215.539 202.104 215.122C201.755 214.706 201.583 214.112 201.583 213.331C201.583 211.721 202.276 210.914 203.666 210.914C204.385 210.914 204.916 211.112 205.25 211.497C205.583 211.888 205.75 212.497 205.75 213.331ZM204.937 213.331C204.937 212.68 204.838 212.206 204.646 211.914C204.448 211.622 204.13 211.477 203.687 211.477C203.229 211.477 202.896 211.633 202.687 211.935C202.489 212.227 202.396 212.695 202.396 213.331C202.396 213.945 202.489 214.409 202.687 214.727C202.896 215.034 203.213 215.185 203.646 215.185C204.104 215.185 204.427 215.039 204.625 214.747C204.833 214.445 204.937 213.971 204.937 213.331Z" fill="black"/>
<path d="M207.381 215.664V209.269H208.152V215.664H207.381Z" fill="black"/>
<path d="M210.004 215.664V209.269H210.775V215.664H210.004Z" fill="black"/>
<path d="M213.813 215.747C213.339 215.747 212.985 215.633 212.751 215.393C212.511 215.143 212.396 214.799 212.396 214.352C212.396 213.883 212.553 213.513 212.876 213.247C213.193 212.987 213.709 212.846 214.417 212.831L215.459 212.81V212.56C215.459 212.185 215.376 211.914 215.209 211.747C215.053 211.581 214.803 211.497 214.459 211.497C214.11 211.497 213.855 211.56 213.688 211.685C213.532 211.799 213.443 211.987 213.417 212.247L212.605 212.164C212.73 211.331 213.355 210.914 214.48 210.914C215.063 210.914 215.501 211.055 215.792 211.331C216.094 211.596 216.251 211.977 216.251 212.477V214.497C216.251 214.721 216.277 214.893 216.334 215.018C216.386 215.133 216.506 215.185 216.688 215.185C216.756 215.185 216.839 215.18 216.938 215.164V215.643C216.74 215.685 216.542 215.706 216.334 215.706C216.042 215.706 215.824 215.633 215.688 215.477C215.563 215.326 215.49 215.091 215.48 214.768H215.459C215.261 215.133 215.032 215.388 214.771 215.539C214.506 215.674 214.188 215.747 213.813 215.747ZM213.98 215.164C214.271 215.164 214.527 215.102 214.751 214.977C214.969 214.852 215.146 214.68 215.271 214.456C215.396 214.221 215.459 213.987 215.459 213.747V213.352L214.605 213.372C214.24 213.388 213.964 213.43 213.771 213.497C213.589 213.57 213.443 213.674 213.334 213.81C213.235 213.951 213.188 214.138 213.188 214.372C213.188 214.622 213.256 214.82 213.396 214.956C213.532 215.096 213.73 215.164 213.98 215.164Z" fill="black"/>
<path d="M218.196 215.664V212.081C218.196 211.763 218.185 211.404 218.175 210.997H218.904C218.93 211.529 218.946 211.846 218.946 211.956H218.966C219.091 211.555 219.227 211.284 219.383 211.143C219.55 210.992 219.779 210.914 220.071 210.914C220.164 210.914 220.269 210.93 220.383 210.956V211.664C220.284 211.638 220.144 211.622 219.966 211.622C219.644 211.622 219.404 211.763 219.237 212.039C219.071 212.32 218.987 212.716 218.987 213.227V215.664H218.196Z" fill="black"/>
<path d="M228.846 213.31C228.846 214.935 228.273 215.747 227.138 215.747C226.414 215.747 225.93 215.477 225.68 214.935H225.659C225.669 214.966 225.68 215.206 225.68 215.664V217.497H224.909V211.956C224.909 211.471 224.893 211.154 224.867 210.997H225.617C225.628 211.013 225.638 211.055 225.638 211.122C225.638 211.195 225.638 211.305 225.638 211.456C225.648 211.596 225.659 211.695 225.659 211.747H225.68C225.815 211.456 225.997 211.247 226.221 211.122C226.456 210.987 226.763 210.914 227.138 210.914C227.706 210.914 228.128 211.112 228.409 211.497C228.701 211.888 228.846 212.492 228.846 213.31ZM228.034 213.331C228.034 212.68 227.94 212.216 227.763 211.935C227.596 211.659 227.315 211.518 226.93 211.518C226.622 211.518 226.378 211.581 226.201 211.706C226.034 211.831 225.898 212.034 225.805 212.31C225.721 212.591 225.68 212.951 225.68 213.393C225.68 214.008 225.773 214.456 225.971 214.747C226.164 215.039 226.482 215.185 226.93 215.185C227.305 215.185 227.581 215.049 227.763 214.768C227.94 214.477 228.034 213.997 228.034 213.331Z" fill="black"/>
<path d="M231.063 213.497C231.063 214.029 231.172 214.435 231.396 214.727C231.615 215.018 231.943 215.164 232.375 215.164C232.708 215.164 232.969 215.102 233.167 214.977C233.375 214.841 233.51 214.664 233.583 214.456L234.271 214.643C233.99 215.383 233.359 215.747 232.375 215.747C231.677 215.747 231.151 215.549 230.792 215.143C230.427 214.727 230.25 214.117 230.25 213.31C230.25 212.534 230.427 211.945 230.792 211.539C231.151 211.122 231.667 210.914 232.333 210.914C233.708 210.914 234.396 211.742 234.396 213.393V213.497H231.063ZM233.583 212.893C233.542 212.409 233.417 212.055 233.208 211.831C233.01 211.596 232.719 211.477 232.333 211.477C231.943 211.477 231.635 211.612 231.417 211.872C231.208 212.122 231.094 212.466 231.083 212.893H233.583Z" fill="black"/>
<path d="M236.048 215.664V212.081C236.048 211.763 236.038 211.404 236.027 210.997H236.757C236.783 211.529 236.798 211.846 236.798 211.956H236.819C236.944 211.555 237.079 211.284 237.236 211.143C237.402 210.992 237.632 210.914 237.923 210.914C238.017 210.914 238.121 210.93 238.236 210.956V211.664C238.137 211.638 237.996 211.622 237.819 211.622C237.496 211.622 237.257 211.763 237.09 212.039C236.923 212.32 236.84 212.716 236.84 213.227V215.664H236.048Z" fill="black"/>
<path d="M246.262 214.372C246.262 214.82 246.096 215.159 245.762 215.393C245.429 215.633 244.96 215.747 244.367 215.747C243.783 215.747 243.33 215.659 243.012 215.477C242.705 215.284 242.502 214.977 242.408 214.56L243.096 214.435C243.148 214.685 243.283 214.872 243.492 214.997C243.7 215.112 243.992 215.164 244.367 215.164C244.752 215.164 245.038 215.102 245.221 214.977C245.398 214.852 245.492 214.674 245.492 214.435C245.492 214.258 245.429 214.112 245.304 213.997C245.179 213.872 244.976 213.779 244.7 213.706L244.137 213.56C243.689 213.435 243.372 213.326 243.179 213.227C242.997 213.117 242.851 212.987 242.742 212.831C242.643 212.664 242.596 212.466 242.596 212.227C242.596 211.81 242.742 211.492 243.033 211.268C243.335 211.034 243.783 210.914 244.367 210.914C244.877 210.914 245.288 211.013 245.596 211.206C245.898 211.388 246.096 211.674 246.179 212.06L245.471 212.143C245.429 211.951 245.309 211.799 245.117 211.685C244.934 211.576 244.684 211.518 244.367 211.518C244.018 211.518 243.762 211.576 243.596 211.685C243.429 211.784 243.346 211.935 243.346 212.143C243.346 212.284 243.377 212.393 243.45 212.477C243.518 212.56 243.617 212.638 243.742 212.706C243.877 212.763 244.169 212.846 244.617 212.956C245.018 213.055 245.309 213.154 245.492 213.247C245.669 213.331 245.809 213.43 245.908 213.539C246.018 213.638 246.101 213.758 246.158 213.893C246.226 214.034 246.262 214.195 246.262 214.372Z" fill="black"/>
<path d="M247.815 209.998V209.269H248.607V209.998H247.815ZM247.815 215.664V210.998H248.607V215.664H247.815Z" fill="black"/>
<path d="M252.209 217.497C251.709 217.497 251.302 217.393 251 217.185C250.693 216.987 250.5 216.711 250.417 216.352L251.209 216.227C251.25 216.445 251.36 216.612 251.542 216.727C251.719 216.852 251.948 216.914 252.229 216.914C253.006 216.914 253.396 216.456 253.396 215.539V214.789C253.24 215.096 253.032 215.326 252.771 215.477C252.521 215.633 252.229 215.706 251.896 215.706C251.323 215.706 250.901 215.518 250.625 215.143C250.36 214.758 250.229 214.154 250.229 213.331C250.229 212.513 250.365 211.909 250.646 211.518C250.938 211.117 251.381 210.914 251.979 210.914C252.313 210.914 252.594 210.992 252.834 211.143C253.084 211.299 253.271 211.513 253.396 211.789H253.417C253.417 211.706 253.417 211.56 253.417 211.352C253.427 211.133 253.443 211.013 253.459 210.997H254.188C254.172 211.154 254.167 211.471 254.167 211.956V215.539C254.167 216.841 253.511 217.497 252.209 217.497ZM253.396 213.331C253.396 212.956 253.339 212.633 253.229 212.352C253.131 212.076 252.985 211.867 252.792 211.727C252.61 211.576 252.401 211.497 252.167 211.497C251.761 211.497 251.469 211.643 251.292 211.935C251.11 212.227 251.021 212.695 251.021 213.331C251.021 213.971 251.104 214.43 251.271 214.706C251.448 214.987 251.74 215.122 252.146 215.122C252.396 215.122 252.61 215.055 252.792 214.914C252.985 214.763 253.131 214.555 253.229 214.289C253.339 214.029 253.396 213.706 253.396 213.331Z" fill="black"/>
<path d="M258.986 215.664V212.706C258.986 212.404 258.95 212.164 258.882 211.997C258.825 211.82 258.726 211.695 258.59 211.622C258.465 211.555 258.278 211.518 258.028 211.518C257.653 211.518 257.351 211.643 257.132 211.893C256.924 212.143 256.819 212.497 256.819 212.956V215.664H256.028V211.997C256.028 211.456 256.017 211.122 256.007 210.997H256.736C256.746 211.013 256.757 211.055 256.757 211.122C256.757 211.18 256.757 211.247 256.757 211.331C256.767 211.414 256.778 211.57 256.778 211.789H256.799C256.965 211.471 257.163 211.247 257.403 211.122C257.637 210.987 257.929 210.914 258.278 210.914C258.788 210.914 259.163 211.039 259.403 211.289C259.637 211.539 259.757 211.966 259.757 212.56V215.664H258.986Z" fill="black"/>
<path d="M262.785 215.747C262.311 215.747 261.957 215.633 261.722 215.393C261.483 215.143 261.368 214.799 261.368 214.352C261.368 213.883 261.524 213.513 261.847 213.247C262.165 212.987 262.681 212.846 263.389 212.831L264.431 212.81V212.56C264.431 212.185 264.347 211.914 264.181 211.747C264.024 211.581 263.774 211.497 263.431 211.497C263.082 211.497 262.826 211.56 262.66 211.685C262.504 211.799 262.415 211.987 262.389 212.247L261.576 212.164C261.701 211.331 262.326 210.914 263.451 210.914C264.035 210.914 264.472 211.055 264.764 211.331C265.066 211.596 265.222 211.977 265.222 212.477V214.497C265.222 214.721 265.248 214.893 265.306 215.018C265.358 215.133 265.478 215.185 265.66 215.185C265.728 215.185 265.811 215.18 265.91 215.164V215.643C265.712 215.685 265.514 215.706 265.306 215.706C265.014 215.706 264.795 215.633 264.66 215.477C264.535 215.326 264.462 215.091 264.451 214.768H264.431C264.233 215.133 264.004 215.388 263.743 215.539C263.478 215.674 263.16 215.747 262.785 215.747ZM262.951 215.164C263.243 215.164 263.498 215.102 263.722 214.977C263.941 214.852 264.118 214.68 264.243 214.456C264.368 214.221 264.431 213.987 264.431 213.747V213.352L263.576 213.372C263.212 213.388 262.936 213.43 262.743 213.497C262.561 213.57 262.415 213.674 262.306 213.81C262.207 213.951 262.16 214.138 262.16 214.372C262.16 214.622 262.228 214.82 262.368 214.956C262.504 215.096 262.701 215.164 262.951 215.164Z" fill="black"/>
<path d="M268.958 215.623C268.693 215.69 268.427 215.727 268.167 215.727C267.542 215.727 267.229 215.383 267.229 214.685V211.56H266.688V210.998H267.271L267.5 209.956H268.021V210.998H268.875V211.56H268.021V214.519C268.021 214.743 268.052 214.904 268.125 214.998C268.193 215.081 268.318 215.123 268.5 215.123C268.609 215.123 268.76 215.102 268.958 215.06V215.623Z" fill="black"/>
<path d="M271.031 210.998V213.956C271.031 214.263 271.057 214.508 271.114 214.685C271.182 214.852 271.281 214.972 271.406 215.039C271.541 215.112 271.739 215.143 271.989 215.143C272.364 215.143 272.656 215.018 272.864 214.768C273.083 214.518 273.197 214.164 273.197 213.706V210.998H273.968V214.664C273.968 215.206 273.979 215.539 274.01 215.664H273.26C273.26 215.654 273.26 215.617 273.26 215.56C273.26 215.492 273.249 215.414 273.239 215.331C273.239 215.248 273.239 215.097 273.239 214.873H273.218C273.036 215.195 272.827 215.425 272.593 215.56C272.369 215.685 272.083 215.748 271.739 215.748C271.223 215.748 270.848 215.623 270.614 215.373C270.374 215.112 270.26 214.685 270.26 214.102V210.998H271.031Z" fill="black"/>
<path d="M275.85 215.664V212.081C275.85 211.763 275.84 211.404 275.829 210.997H276.558C276.584 211.529 276.6 211.846 276.6 211.956H276.621C276.746 211.555 276.881 211.284 277.037 211.143C277.204 210.992 277.433 210.914 277.725 210.914C277.819 210.914 277.923 210.93 278.037 210.956V211.664C277.938 211.638 277.798 211.622 277.621 211.622C277.298 211.622 277.058 211.763 276.892 212.039C276.725 212.32 276.642 212.716 276.642 213.227V215.664H275.85Z" fill="black"/>
<path d="M280.034 213.497C280.034 214.029 280.144 214.435 280.368 214.727C280.586 215.018 280.914 215.164 281.347 215.164C281.68 215.164 281.94 215.102 282.138 214.977C282.347 214.841 282.482 214.664 282.555 214.456L283.243 214.643C282.961 215.383 282.331 215.747 281.347 215.747C280.649 215.747 280.123 215.549 279.763 215.143C279.399 214.727 279.222 214.117 279.222 213.31C279.222 212.534 279.399 211.945 279.763 211.539C280.123 211.122 280.638 210.914 281.305 210.914C282.68 210.914 283.368 211.742 283.368 213.393V213.497H280.034ZM282.555 212.893C282.513 212.409 282.388 212.055 282.18 211.831C281.982 211.596 281.69 211.477 281.305 211.477C280.914 211.477 280.607 211.612 280.388 211.872C280.18 212.122 280.065 212.466 280.055 212.893H282.555Z" fill="black"/>
<path d="M285.229 215.664V214.727H286.062V215.664H285.229Z" fill="black"/>
<path d="M293.008 213.977C293.008 214.55 292.784 214.987 292.341 215.289C291.909 215.597 291.3 215.748 290.508 215.748C289.019 215.748 288.159 215.237 287.925 214.206L288.737 214.039C288.821 214.414 289.008 214.685 289.3 214.852C289.602 215.018 290.013 215.102 290.529 215.102C291.071 215.102 291.477 215.013 291.758 214.831C292.05 214.654 292.196 214.388 292.196 214.039C292.196 213.831 292.144 213.664 292.05 213.539C291.966 213.414 291.841 213.32 291.675 213.248C291.519 213.164 291.326 213.097 291.091 213.039C290.868 212.987 290.618 212.925 290.341 212.852C289.852 212.758 289.487 212.654 289.237 212.539C288.998 212.43 288.805 212.31 288.654 212.185C288.513 212.06 288.404 211.909 288.321 211.727C288.248 211.55 288.216 211.347 288.216 211.123C288.216 210.612 288.409 210.216 288.8 209.935C289.201 209.643 289.779 209.498 290.529 209.498C291.206 209.498 291.727 209.602 292.091 209.81C292.466 210.018 292.727 210.383 292.883 210.893L292.071 211.039C291.972 210.722 291.8 210.492 291.55 210.352C291.3 210.201 290.951 210.123 290.508 210.123C290.019 210.123 289.644 210.206 289.383 210.373C289.133 210.529 289.008 210.763 289.008 211.081C289.008 211.263 289.055 211.414 289.154 211.539C289.263 211.664 289.409 211.768 289.591 211.852C289.784 211.935 290.159 212.039 290.716 212.164C290.894 212.206 291.076 212.258 291.258 212.31C291.451 212.352 291.633 212.409 291.8 212.477C291.966 212.534 292.123 212.602 292.279 212.685C292.43 212.768 292.555 212.873 292.654 212.998C292.763 213.112 292.847 213.248 292.904 213.414C292.972 213.581 293.008 213.768 293.008 213.977Z" fill="black"/>
<path d="M294.66 209.998V209.269H295.452V209.998H294.66ZM294.66 215.664V210.998H295.452V215.664H294.66Z" fill="black"/>
<path d="M300.011 215.664V212.706C300.011 212.247 299.949 211.935 299.824 211.768C299.699 211.602 299.475 211.518 299.157 211.518C298.824 211.518 298.558 211.643 298.366 211.893C298.168 212.143 298.074 212.497 298.074 212.956V215.664H297.303V211.997C297.303 211.456 297.293 211.122 297.282 210.997H298.011C298.022 211.013 298.032 211.055 298.032 211.122C298.032 211.18 298.032 211.247 298.032 211.331C298.043 211.414 298.053 211.57 298.053 211.789H298.074C298.241 211.456 298.428 211.227 298.636 211.102C298.855 210.977 299.121 210.914 299.428 210.914C299.787 210.914 300.063 210.987 300.261 211.122C300.47 211.263 300.616 211.487 300.699 211.789H300.72C300.871 211.487 301.058 211.263 301.282 211.122C301.517 210.987 301.793 210.914 302.116 210.914C302.584 210.914 302.928 211.049 303.136 211.31C303.355 211.56 303.47 211.977 303.47 212.56V215.664H302.699V212.706C302.699 212.247 302.636 211.935 302.511 211.768C302.397 211.602 302.178 211.518 301.845 211.518C301.511 211.518 301.246 211.643 301.053 211.893C300.871 212.143 300.782 212.497 300.782 212.956V215.664H300.011Z" fill="black"/>
<path d="M309.254 213.31C309.254 214.935 308.681 215.747 307.545 215.747C306.821 215.747 306.337 215.477 306.087 214.935H306.066C306.076 214.966 306.087 215.206 306.087 215.664V217.497H305.316V211.956C305.316 211.471 305.3 211.154 305.274 210.997H306.024C306.035 211.013 306.045 211.055 306.045 211.122C306.045 211.195 306.045 211.305 306.045 211.456C306.056 211.596 306.066 211.695 306.066 211.747H306.087C306.222 211.456 306.405 211.247 306.629 211.122C306.863 210.987 307.17 210.914 307.545 210.914C308.113 210.914 308.535 211.112 308.816 211.497C309.108 211.888 309.254 212.492 309.254 213.31ZM308.441 213.331C308.441 212.68 308.347 212.216 308.17 211.935C308.004 211.659 307.722 211.518 307.337 211.518C307.03 211.518 306.785 211.581 306.608 211.706C306.441 211.831 306.306 212.034 306.212 212.31C306.129 212.591 306.087 212.951 306.087 213.393C306.087 214.008 306.181 214.456 306.379 214.747C306.571 215.039 306.889 215.185 307.337 215.185C307.712 215.185 307.988 215.049 308.17 214.768C308.347 214.477 308.441 213.997 308.441 213.331Z" fill="black"/>
<path d="M310.886 215.664V209.269H311.657V215.664H310.886Z" fill="black"/>
<path d="M314.091 213.497C314.091 214.029 314.2 214.435 314.424 214.727C314.643 215.018 314.971 215.164 315.403 215.164C315.737 215.164 315.997 215.102 316.195 214.977C316.403 214.841 316.539 214.664 316.612 214.456L317.299 214.643C317.018 215.383 316.388 215.747 315.403 215.747C314.705 215.747 314.179 215.549 313.82 215.143C313.455 214.727 313.278 214.117 313.278 213.31C313.278 212.534 313.455 211.945 313.82 211.539C314.179 211.122 314.695 210.914 315.362 210.914C316.737 210.914 317.424 211.742 317.424 213.393V213.497H314.091ZM316.612 212.893C316.57 212.409 316.445 212.055 316.237 211.831C316.039 211.596 315.747 211.477 315.362 211.477C314.971 211.477 314.664 211.612 314.445 211.872C314.237 212.122 314.122 212.466 314.112 212.893H316.612Z" fill="black"/>
<path d="M318.535 217.498V216.935H319.556V209.81H318.535V209.269H320.306V217.498H318.535Z" fill="black"/>
</svg>
