<svg width="40" height="40" viewBox="0 0 40 40" fill="none" xmlns="http://www.w3.org/2000/svg">
<mask id="mask0_1_6194" style="mask-type:luminance" maskUnits="userSpaceOnUse" x="0" y="0" width="40" height="40">
<path d="M0.338623 0.349121H39.323V39.3283H0.338623V0.349121Z" fill="white"/>
</mask>
<g mask="url(#mask0_1_6194)">
<path d="M11.3335 17.422H28.422C29.9532 17.4272 31.1876 18.672 31.1824 20.1981C31.172 21.7189 29.9428 22.9533 28.422 22.9585H11.3335C9.8022 22.9533 8.56783 21.7085 8.57824 20.1772C8.57824 18.6564 9.81262 17.4272 11.3335 17.422ZM19.4637 0.354329C8.80741 0.645996 0.323036 9.38037 0.33866 20.047C0.317827 30.9064 9.10949 39.7293 19.9689 39.7502C30.8282 39.771 39.6512 30.9845 39.672 20.12C39.672 20.0991 39.672 20.0731 39.672 20.047C39.6928 9.18766 30.9012 0.364746 20.0366 0.349121C19.8491 0.349121 19.6564 0.349121 19.4637 0.354329Z" fill="#787FF6"/>
</g>
</svg>
