<svg width="227" height="132" viewBox="0 0 227 132" fill="none" xmlns="http://www.w3.org/2000/svg">
<path d="M119.932 73.5002C115.807 73.5002 111.927 71.896 109.011 68.9793L94.1668 54.1356C83.9376 61.4793 73.0365 60.9689 62.4845 52.6043C61.0209 51.4429 60.7761 49.3179 61.9376 47.8543C63.099 46.3908 65.224 46.146 66.6876 47.3075C75.6095 54.3804 83.7345 54.3022 92.2501 47.0522C93.5938 45.9116 95.5834 45.9897 96.8334 47.2345L113.792 64.1981C115.432 65.8387 117.615 66.7397 119.932 66.7397C122.25 66.7397 124.432 65.8387 126.068 64.1981C129.458 60.8127 129.458 55.3022 126.068 51.9168L103.531 29.3804C102.214 28.0575 102.214 25.9168 103.531 24.5991C104.854 23.2762 106.995 23.2762 108.313 24.5991L130.854 47.1356C136.875 53.1564 136.875 62.9585 130.854 68.9793C127.938 71.896 124.057 73.5002 119.932 73.5002Z" fill="#787FF6"/>
<mask id="mask0_9_3" style="mask-type:luminance" maskUnits="userSpaceOnUse" x="68" y="34" width="159" height="98">
<path d="M68.6667 34.8335H226.823V131.906H68.6667V34.8335Z" fill="white"/>
</mask>
<g mask="url(#mask0_9_3)">
<path d="M222.719 131.417H73.1146C71.25 131.417 69.7344 129.906 69.7344 128.036V54.8281C69.7344 52.9583 71.25 51.4427 73.1146 51.4427C74.9844 51.4427 76.4948 52.9583 76.4948 54.8281V124.656H219.339V42.1823H117.734C115.87 42.1823 114.354 40.6667 114.354 38.8021C114.354 36.9323 115.87 35.4219 117.734 35.4219H222.719C224.589 35.4219 226.099 36.9323 226.099 38.8021V128.036C226.099 129.906 224.589 131.417 222.719 131.417Z" fill="#787FF6"/>
</g>
<path d="M71.5728 84.5938C60.3176 84.5938 51.802 81.2604 46.2187 74.6615H36.0416C34.177 74.6615 32.6614 73.1458 32.6614 71.2812V13.5365C32.6614 11.6719 34.177 10.1562 36.0416 10.1562H37.5572C42.6978 10.1562 47.7603 9.28646 52.6041 7.56771L57.2499 5.91667C62.8176 3.94271 68.6405 2.9375 74.552 2.9375H100.651C114.474 2.9375 127.469 8.32292 137.245 18.099L155.557 36.4115C156.88 37.7292 156.88 39.8698 155.557 41.1927C154.24 42.5104 152.099 42.5104 150.776 41.1927L132.463 22.8802C123.969 14.3802 112.667 9.70312 100.651 9.70312H74.552C69.4166 9.70312 64.3541 10.5729 59.5103 12.2917L54.8645 13.9375C49.8801 15.7083 44.6926 16.6979 39.4218 16.8854V67.901H47.8541C48.927 67.901 49.9374 68.4062 50.5728 69.2708C55.0312 75.3177 62.3749 78.1094 73.0208 77.8125C74.9114 77.7604 76.4426 79.2344 76.4947 81.099C76.5468 82.9635 75.078 84.5208 73.2083 84.5729C72.6562 84.5885 72.1093 84.5938 71.5728 84.5938Z" fill="#787FF6"/>
<mask id="mask1_9_3" style="mask-type:luminance" maskUnits="userSpaceOnUse" x="0" y="0" width="41" height="85">
<path d="M0.932373 0.96875H40.6667V84.1667H0.932373V0.96875Z" fill="white"/>
</mask>
<g mask="url(#mask1_9_3)">
<path d="M36.0417 83.849H4.54696C2.68237 83.849 1.16675 82.3333 1.16675 80.4635V4.35417C1.16675 2.48437 2.68237 0.96875 4.54696 0.96875H36.0417C37.9115 0.96875 39.422 2.48437 39.422 4.35417V80.4635C39.422 82.3333 37.9115 83.849 36.0417 83.849ZM7.92717 77.0833H32.6615V7.73438H7.92717V77.0833Z" fill="#787FF6"/>
</g>
<path d="M147.589 100.578C137.948 100.578 130.104 92.7345 130.104 83.0886C130.104 73.448 137.948 65.6042 147.589 65.6042C157.234 65.6042 165.078 73.448 165.078 83.0886C165.078 92.7345 157.234 100.578 147.589 100.578ZM147.589 72.3647C141.677 72.3647 136.865 77.1772 136.865 83.0886C136.865 89.0053 141.677 93.8178 147.589 93.8178C153.505 93.8178 158.318 89.0053 158.318 83.0886C158.318 77.1772 153.505 72.3647 147.589 72.3647Z" fill="#787FF6"/>
<path d="M194.234 115.672H102.255C100.391 115.672 98.875 114.156 98.875 112.292C98.875 106.406 94.0885 101.62 88.2083 101.62C86.3385 101.62 84.8281 100.109 84.8281 98.2397V67.2813C84.8281 65.4167 86.3385 63.9011 88.2083 63.9011C92.8906 63.9011 96.9792 60.9063 98.3854 56.4428C98.9479 54.6615 100.844 53.672 102.625 54.2345C104.406 54.7917 105.396 56.6928 104.833 58.474C102.885 64.6667 97.7708 69.1355 91.5885 70.3386V95.1876C98.4948 96.5522 103.943 102.005 105.307 108.906H191.182C192.547 102.005 198 96.5522 204.901 95.1876V70.3334C198 68.974 192.547 63.5209 191.182 56.6147H130.99C129.12 56.6147 127.609 55.1042 127.609 53.2345C127.609 51.3699 129.12 49.8542 130.99 49.8542H194.234C196.104 49.8542 197.615 51.3699 197.615 53.2345C197.615 59.1199 202.401 63.9011 208.281 63.9011C210.151 63.9011 211.667 65.4167 211.667 67.2813V98.2397C211.667 100.109 210.151 101.62 208.281 101.62C202.401 101.62 197.615 106.406 197.615 112.292C197.615 114.156 196.104 115.672 194.234 115.672Z" fill="#787FF6"/>
</svg>
