<svg width="49" height="49" viewBox="0 0 49 49" fill="none" xmlns="http://www.w3.org/2000/svg">
<mask id="mask0_9_768" style="mask-type:luminance" maskUnits="userSpaceOnUse" x="0" y="0" width="49" height="49">
<path d="M0.203125 0.46875H48.1771V48.4427H0.203125V0.46875Z" fill="white"/>
</mask>
<g mask="url(#mask0_9_768)">
<path d="M24.2969 0.46875C11.0469 0.46875 0.203125 11.3125 0.203125 24.5625C0.203125 37.8177 11.0469 48.6615 24.2969 48.6615C37.5521 48.6615 48.3958 37.8177 48.3958 24.5625C48.3958 11.3125 37.5521 0.46875 24.2969 0.46875ZM33.9375 26.974H26.7083V34.2031C26.7083 35.651 25.7448 36.6146 24.2969 36.6146C22.8542 36.6146 21.8906 35.651 21.8906 34.2031V26.974H14.6615C13.2135 26.974 12.25 26.0104 12.25 24.5625C12.25 23.1198 13.2135 22.1562 14.6615 22.1562H21.8906V14.9271C21.8906 13.4792 22.8542 12.5156 24.2969 12.5156C25.7448 12.5156 26.7083 13.4792 26.7083 14.9271V22.1562H33.9375C35.3854 22.1562 36.349 23.1198 36.349 24.5625C36.349 26.0104 35.3854 26.974 33.9375 26.974Z" fill="#787FF6"/>
</g>
</svg>
