<svg width="172" height="139" viewBox="0 0 172 139" fill="none" xmlns="http://www.w3.org/2000/svg">
<mask id="mask0_9_4" style="mask-type:luminance" maskUnits="userSpaceOnUse" x="76" y="0" width="70" height="70">
<path d="M76 0.291748H145.333V69.1667H76V0.291748Z" fill="white"/>
</mask>
<g mask="url(#mask0_9_4)">
<path d="M110.833 68.3491C129.594 68.3491 144.859 53.0835 144.859 34.323C144.859 15.5626 129.594 0.296997 110.833 0.296997C92.0729 0.296997 76.8073 15.5626 76.8073 34.323C76.8073 53.0835 92.0729 68.3491 110.833 68.3491ZM82.4635 34.323C82.4635 18.6824 95.1927 5.95325 110.833 5.95325C126.474 5.95325 139.198 18.6824 139.198 34.323C139.198 49.9637 126.474 62.6876 110.833 62.6876C95.1927 62.6876 82.4635 49.9637 82.4635 34.323Z" fill="#787FF6"/>
</g>
<path d="M102.521 49.9063C103.99 51.3386 105.948 52.349 108.099 52.7969L108.078 55.8021C108.068 57.3177 109.292 58.5625 110.812 58.573H110.833C112.339 58.573 113.573 57.349 113.583 55.8438L113.609 52.7865C115.75 52.3334 117.703 51.3177 119.161 49.8855C120.859 48.2188 121.792 46.0886 121.792 43.8802V42.6667C121.792 39.7344 120.141 36.9584 117.375 35.2448L107.562 29.1719C106.411 28.4584 105.75 27.4584 105.75 26.4323V24.5313C105.75 23.6042 106.266 22.7188 107.193 22.0261C108.208 21.2761 109.568 20.8646 111.021 20.8646C112.474 20.8646 113.833 21.2761 114.849 22.0261C115.776 22.7188 116.292 23.6042 116.292 24.5313V26.6771C116.292 28.1927 117.526 29.4271 119.042 29.4271C120.562 29.4271 121.797 28.1927 121.797 26.6771V24.5313C121.797 20.3386 118.469 16.7136 113.771 15.6615V12.823C113.771 11.3073 112.536 10.0677 111.021 10.0677C109.505 10.0677 108.266 11.3073 108.266 12.823V15.6615C103.573 16.7136 100.245 20.3386 100.245 24.5313V26.4323C100.245 29.3646 101.896 32.1407 104.667 33.849L114.479 39.9271C115.63 40.6407 116.292 41.6355 116.292 42.6667V43.8802C116.292 44.8073 115.776 45.6927 114.849 46.3855C113.833 47.1355 112.474 47.5469 111.021 47.5469H110.646C109.193 47.5469 107.833 47.1355 106.818 46.3855C105.891 45.6927 105.375 44.8073 105.375 43.8802V42.698C105.375 41.1823 104.141 39.948 102.625 39.948C101.109 39.948 99.8698 41.1823 99.8698 42.698V43.8802C99.8698 46.099 100.812 48.2344 102.521 49.9063Z" fill="#787FF6"/>
<mask id="mask1_9_4" style="mask-type:luminance" maskUnits="userSpaceOnUse" x="0" y="70" width="172" height="69">
<path d="M0.213501 70.5001H172V138.224H0.213501V70.5001Z" fill="white"/>
</mask>
<g mask="url(#mask1_9_4)">
<path d="M168.229 76.5262C164.391 72.2605 158.26 71.8335 153.948 75.5262L128.677 95.9689C128.687 95.7189 128.693 95.4689 128.687 95.2137C128.589 89.1199 123.802 84.1616 118.016 84.1616H89.9583C88.3385 84.1616 86.8125 83.2293 85.875 81.6616C85.6718 81.323 85.3906 81.047 85.0833 80.8022C73.5937 71.7345 58.1562 70.547 44.9323 76.4272L40.0468 78.5991H30.2291V74.1147C30.2291 72.5053 28.927 71.2032 27.3177 71.2032H3.13017C1.52079 71.2032 0.213501 72.5053 0.213501 74.1147V127.99C0.213501 129.599 1.52079 130.906 3.13017 130.906H27.3177C28.927 130.906 30.2291 129.599 30.2291 127.99V123.37H40.2135L74.7656 134.339C82.5989 137.235 89.1718 138.682 95.7395 138.682C101.005 138.682 106.266 137.755 112.187 135.891C112.729 135.724 113.281 135.542 113.833 135.354C115.031 134.896 116.198 134.349 117.318 133.719C118.245 133.203 119.12 132.604 119.943 131.938L168.219 92.5522C168.375 92.4168 168.521 92.271 168.651 92.1147C172.24 87.6251 172.052 80.7762 168.229 76.5262ZM24.4062 125.078H6.04163V77.0314H24.4062V125.078ZM164.266 88.2553L119.24 124.99C115.307 128.198 110.698 130.474 105.755 131.63C95.9687 133.917 87.901 132.995 76.7239 128.854C76.6823 128.839 76.6354 128.823 76.5937 128.807L41.5468 117.682C41.2604 117.589 40.9635 117.547 40.6666 117.547H30.2291V84.422H40.6666C41.0729 84.422 41.4791 84.3387 41.8489 84.172L47.302 81.7501C58.4375 76.797 71.0833 78.0991 81.2291 85.2085C83.2604 88.2137 86.4791 89.9897 89.9583 89.9897H118.016C120.641 89.9897 122.812 92.3751 122.865 95.3126C122.891 96.9324 122.302 98.4741 121.255 99.5366C120.745 100.063 120.141 100.438 119.505 100.651C118.672 100.787 117.833 100.854 116.984 100.854H85.7656C84.1666 100.854 82.8333 102.125 82.8125 103.729C82.7916 105.354 84.1041 106.677 85.7239 106.677H118.266C119.141 106.677 120.005 106.563 120.833 106.339C124.469 105.682 127.896 104.094 130.911 101.656L157.646 80.0262C157.672 80.0105 157.698 79.9897 157.719 79.9689C159.599 78.3439 162.198 78.5314 163.896 80.422C165.776 82.5105 165.922 85.9637 164.266 88.2553Z" fill="#787FF6"/>
</g>
</svg>
