<svg width="139" height="139" viewBox="0 0 139 139" fill="none" xmlns="http://www.w3.org/2000/svg">
<mask id="mask0_20_2" style="mask-type:luminance" maskUnits="userSpaceOnUse" x="0" y="0" width="139" height="139">
<path d="M0.5625 0.291748H138.495V138.224H0.5625V0.291748Z" fill="white"/>
</mask>
<g mask="url(#mask0_20_2)">
<path d="M69.7604 133.177C34.6458 133.177 6.07812 104.609 6.07812 69.4897C6.07812 34.3751 34.6458 5.80737 69.7604 5.80737C104.88 5.80737 133.448 34.3751 133.448 69.4897C133.448 104.609 104.88 133.177 69.7604 133.177ZM133.526 42.5522C130.036 34.3126 125.047 26.9115 118.693 20.5574C112.339 14.2032 104.938 9.21362 96.6979 5.72925C88.1667 2.11987 79.1042 0.291748 69.7604 0.291748C60.4219 0.291748 51.3594 2.11987 42.8281 5.72925C34.5833 9.21362 27.1823 14.2032 20.8281 20.5574C14.474 26.9115 9.48438 34.3126 6 42.5522C2.39063 51.0886 0.5625 60.1511 0.5625 69.4897C0.5625 78.8334 2.39063 87.8959 6 96.4272C9.48438 104.667 14.474 112.068 20.8281 118.422C27.1823 124.776 34.5833 129.766 42.8281 133.255C51.3594 136.865 60.4219 138.693 69.7604 138.693C79.1042 138.693 88.1667 136.865 96.6979 133.255C104.938 129.766 112.339 124.776 118.693 118.422C125.047 112.068 130.036 104.667 133.526 96.4272C137.135 87.8959 138.964 78.8334 138.964 69.4897C138.964 60.1511 137.135 51.0886 133.526 42.5522Z" fill="#787FF6"/>
</g>
<path d="M102.927 92.8543L72.5205 68.1772V35.4481C72.5205 33.9272 71.2861 32.6929 69.7601 32.6929C68.2393 32.6929 67.0049 33.9272 67.0049 35.4481V69.4897C67.0049 70.3231 67.3799 71.1095 68.0257 71.6304L99.4528 97.1356C99.9632 97.547 100.578 97.7502 101.187 97.7502C101.994 97.7502 102.786 97.4012 103.333 96.7293C104.291 95.547 104.109 93.8127 102.927 92.8543Z" fill="#787FF6"/>
</svg>
