<svg width="156" height="132" viewBox="0 0 156 132" fill="none" xmlns="http://www.w3.org/2000/svg">
<mask id="mask0_1_7119" style="mask-type:luminance" maskUnits="userSpaceOnUse" x="0" y="0" width="156" height="132">
<path d="M0 0.96875H156V131.906H0V0.96875Z" fill="white"/>
</mask>
<g mask="url(#mask0_1_7119)">
<path d="M154.849 4.61467C154.537 4.06258 154.151 3.56258 153.698 3.11467C153.245 2.66675 152.734 2.29175 152.177 1.99488C151.615 1.69279 151.021 1.47404 150.401 1.33863C149.776 1.20842 149.146 1.16154 148.511 1.20842L12.073 9.40113C10.7189 9.48446 9.41158 9.77613 8.15637 10.2813C6.89595 10.7865 5.75012 11.4793 4.71887 12.3543C3.68241 13.2293 2.81262 14.2449 2.10429 15.4011C1.40116 16.5574 0.895953 17.797 0.588661 19.1199C0.286578 20.4376 0.192827 21.7761 0.323036 23.1251C0.448036 24.474 0.786578 25.7709 1.33345 27.0105C1.87512 28.2501 2.60429 29.3751 3.51574 30.3803C4.42199 31.3855 5.46887 32.2188 6.64595 32.8855L56.1355 60.8178C56.6147 61.0626 56.8387 61.4532 56.8126 61.9897L56.2657 118.818C56.2449 120.177 56.4428 121.5 56.8543 122.792C57.2657 124.089 57.8751 125.281 58.6772 126.38C59.4793 127.474 60.4376 128.412 61.547 129.198C62.6564 129.979 63.8595 130.568 65.1616 130.958C66.3751 131.328 67.6147 131.516 68.8855 131.516C69.922 131.516 70.9428 131.391 71.9428 131.136C72.948 130.88 73.9064 130.505 74.8178 130.011C75.7293 129.516 76.5678 128.922 77.3282 128.219C78.0887 127.516 78.7553 126.729 79.323 125.865L154.636 11.8022C154.99 11.2761 155.266 10.7084 155.464 10.1043C155.656 9.49488 155.766 8.87508 155.781 8.23967C155.802 7.60425 155.729 6.97925 155.573 6.35946C155.412 5.74488 155.172 5.16154 154.849 4.61467ZM9.35429 28.0886C8.69283 27.7136 8.10429 27.2449 7.59387 26.6772C7.08345 26.1147 6.67199 25.4845 6.36991 24.7865C6.06262 24.0886 5.86991 23.3595 5.8022 22.6043C5.72929 21.8438 5.77616 21.0938 5.94804 20.3543C6.11991 19.6095 6.40637 18.9168 6.8022 18.2657C7.19804 17.6147 7.68762 17.0418 8.27095 16.5522C8.84908 16.0626 9.49491 15.672 10.2032 15.3907C10.9116 15.1095 11.6407 14.9428 12.4012 14.8959L145.354 6.91675L59.5262 56.4688C59.3074 56.3074 59.0835 56.1616 58.8439 56.0261L9.35429 28.0886ZM74.7241 122.839C74.3022 123.474 73.7918 124.026 73.1928 124.5C72.5939 124.969 71.9376 125.333 71.2189 125.589C70.5053 125.849 69.7657 125.984 69.0053 126.005C68.2397 126.021 67.4949 125.922 66.7657 125.698C66.0418 125.474 65.3647 125.141 64.7449 124.703C64.1251 124.261 63.5887 123.734 63.1355 123.12C62.6876 122.505 62.3491 121.833 62.1147 121.109C61.8803 120.38 61.7657 119.641 61.7762 118.875L62.323 62.047C62.3282 61.7761 62.3126 61.5053 62.2866 61.2345L148.109 11.6928L74.7241 122.839Z" fill="#787FF6"/>
</g>
</svg>
