<svg width="168" height="132" viewBox="0 0 168 132" fill="none" xmlns="http://www.w3.org/2000/svg">
<mask id="mask0_1_7100" style="mask-type:luminance" maskUnits="userSpaceOnUse" x="0" y="0" width="168" height="132">
<path d="M0.885376 0.96875H167.807V131.906H0.885376V0.96875Z" fill="white"/>
</mask>
<g mask="url(#mask0_1_7100)">
<path fill-rule="evenodd" clip-rule="evenodd" d="M51.9739 36.0938C54.2656 20.3281 67.8437 8.21354 84.2448 8.21354C100.646 8.21354 114.229 20.3281 116.516 36.0938C116.677 37.1771 117.312 38.1302 118.25 38.6875C119.187 39.2448 120.328 39.3542 121.354 38.974C124.464 37.8333 127.833 37.2031 131.354 37.2031C147.365 37.2031 160.344 50.1823 160.344 66.1927C160.344 82.2031 147.365 95.1823 131.354 95.1823H105.99C103.984 95.1823 102.365 96.8073 102.365 98.8073C102.365 100.807 103.984 102.432 105.99 102.432H131.354C151.365 102.432 167.589 86.2083 167.589 66.1927C167.589 46.1823 151.365 29.9583 131.354 29.9583C128.437 29.9583 125.594 30.3021 122.875 30.9583C118.479 13.7187 102.854 0.96875 84.2448 0.96875C65.6354 0.96875 50.0104 13.7187 45.6198 30.9583C42.8958 30.3021 40.0573 29.9583 37.1354 29.9583C17.125 29.9583 0.901001 46.1823 0.901001 66.1927C0.901001 86.2083 17.125 102.432 37.1354 102.432H62.5052C64.5052 102.432 66.125 100.807 66.125 98.8073C66.125 96.8073 64.5052 95.1823 62.5052 95.1823H37.1354C21.125 95.1823 8.14579 82.2031 8.14579 66.1927C8.14579 50.1823 21.125 37.2031 37.1354 37.2031C40.6562 37.2031 44.026 37.8333 47.1354 38.974C48.1614 39.3542 49.302 39.2448 50.2395 38.6875C51.177 38.1302 51.8177 37.1771 51.9739 36.0938ZM108.552 67.2552L86.8073 45.5156C85.3906 44.099 83.0989 44.099 81.6823 45.5156L59.9427 67.2552C58.526 68.6719 58.526 70.9635 59.9427 72.3802C61.3541 73.7969 63.651 73.7969 65.0677 72.3802L80.6198 56.8229V127.797C80.6198 129.797 82.2448 131.422 84.2448 131.422C86.2448 131.422 87.8698 129.797 87.8698 127.797V56.8229L103.427 72.3802C104.839 73.7969 107.135 73.7969 108.552 72.3802C109.964 70.9635 109.964 68.6719 108.552 67.2552Z" fill="#787FF6"/>
</g>
</svg>
