<svg width="70" height="70" viewBox="0 0 70 70" fill="none" xmlns="http://www.w3.org/2000/svg">
<mask id="mask0_1_6340" style="mask-type:luminance" maskUnits="userSpaceOnUse" x="0" y="0" width="70" height="70">
<path d="M0.770874 0.432373H69.7396V69.4011H0.770874V0.432373Z" fill="white"/>
</mask>
<g mask="url(#mask0_1_6340)">
<path d="M35.25 0.427246C16.2084 0.427246 0.770874 15.8647 0.770874 34.9116C0.770874 53.9533 16.2084 69.3908 35.25 69.3908C54.2917 69.3908 69.7292 53.9533 69.7292 34.9116C69.7292 15.8647 54.2917 0.427246 35.25 0.427246ZM35.25 10.0835C42.1042 10.0835 47.6615 15.6408 47.6615 22.5002C47.6615 29.3543 42.1042 34.9116 35.25 34.9116C28.3959 34.9116 22.8386 29.3543 22.8386 22.5002C22.8386 15.6408 28.3959 10.0835 35.25 10.0835ZM35.25 61.1147C26.4375 61.1147 18.6615 56.7554 13.9115 50.0835C18.6615 43.4116 26.4375 39.047 35.25 39.047C44.0625 39.047 51.8386 43.4116 56.5938 50.0835C51.8386 56.7554 44.0625 61.1147 35.25 61.1147Z" fill="black"/>
</g>
</svg>
